**ABCDEFGHIJKLMNOPQRSTUVWXYZabcdefghijklmnopqrstuvwxyz**************************
**PARASOLID !"#$%&'()*+,-./:;<=>?@[\]^_`{|}~0123456789**************************
**PART1;
MC=unknown;
MC_MODEL=unknown;
MC_ID=unknown;
OS=unknown;
OS_RELEASE=unknown;
FRU=Parasolid 35.1.246;
APPL=Onshape;
SITE=unknown;
USER=unknown;
FORMAT=text;
GUISE=transmit;
KEY=BTGapi::writeModels_.xmt;
FILE=BTGapi::writeModels_.xmt;
DATE=2023-12-06T18:32:18 (UTC);
**PART2;
SCH=SCH_3501246_35102;
USFLD_SIZE=0;
**PART3;
**END_OF_HEADER*****************************************************************
T51 : TRANSMIT FILE created by modeller version 350124623 SCH_3501246_35102_1300
6231 0 12 36 CCCI7 lattice222 0 CCCI4 mesh1006 0 I8 polyline1008 0 CCCCCCCDI5 ow
ner1040 0 CCCI16 boundary_lattice222 0 CCCI13 boundary_mesh1006 0 I17 boundary_p
olyline1008 0 CCCA16 index_map_offset0 0 1 dA9 index_map82 0 A17 node_id_index_m
ap82 0 A20 schema_embedding_map82 0 A5 child12 0 A14 lowest_node_id0 0 1 dA16 me
sh_offset_data206 0 Z1 1078 2 3 0 0 0 0 0 0 0 1e3 1e-8 0 4 5 1 0 1 2 6 0 7 8 9 0
 0 10 11 12 0 0 0 0 0 0 0 81 255 1 2 1060 13 1 14 0 0 0 15 70 11 CI9 list_type0
 0 1 uI10 notransmit0 0 1 lCCCDCCDI12 finger_index0 0 1 dI12 finger_block1012 0
 CZ3 0 4 T1 0 0 7 20 1 16 16 13 255 6 229 0 1 0 17 0 0 18 0 50 255 7 224 0 17 19
 0 0 +.2032 0 .003175 1 0 0 0 0 -1 30 255 8 228 0 11 20 0 0 +.2032 .0635 .003175
 0 0 -1 29 255 9 353 0 12 21 0 -.200025 .058039 0 19 9 CCCCCCI5 frame230 0 CA5 o
wner12 0 Z10 72 0 1 18 0 22 0 V0 16 255 11 192 23 ?24 0 25 8 0 0 1 18 255 12 351
 26 27 0 28 9 ?1 81 1 26 630 29 12 0 0 30 31 32 17 255 27 0 33 34 35 12 36 37 0
 38 +18 28 348 31 34 12 39 21 ?1 81 1 31 631 29 28 0 0 26 40 41 17 34 0 33 42 27
 28 43 44 0 45 +18 39 342 46 35 28 47 48 ?1 29 21 350 0 28 48 9 .200025 .058039
 0 29 48 344 0 39 49 21 -.200025 -.060325 0 29 49 68 0 47 50 48 .2032 -.0635 .00
3175 18 47 66 51 52 39 53 49 ?1 29 50 63 0 53 54 49 -.2032 -.0635 .003175 18 53
 61 55 56 47 57 50 ?1 29 54 58 0 57 58 50 -.2032 .0635 .003175 18 57 56 59 60 53
 61 54 ?1 29 58 53 0 61 62 54 .2032 .0635 .003175 18 61 51 63 64 57 65 58 ?1 29
 62 581 0 66 67 58 .200025 -.060325 0 18 66 477 30 42 65 68 62 ?1 29 67 588 0 65
 69 62 .200025 .058039 -.0762 18 65 491 70 71 61 66 67 ?1 29 69 860 0 68 72 67 -
.200025 -.060325 -.0762 18 68 808 73 74 66 75 69 ?1 29 72 861 0 75 76 69 .200025
 -.060325 -.0762 18 75 809 77 78 68 79 72 ?1 29 76 863 0 79 80 72 -.200025 .0580
39 -.0762 18 79 791 81 82 75 83 76 ?1 29 80 868 0 83 84 76 -.2032 .0635 -.079375
 18 83 800 85 86 79 87 80 ?1 29 84 869 0 87 88 80 -.2032 -.0635 -.079375 18 87 8
06 89 90 83 91 84 ?1 29 88 870 0 91 92 84 .2032 -.0635 -.079375 18 91 804 93 94
 87 95 88 ?1 29 92 871 0 95 0 88 .2032 .0635 -.079375 18 95 792 96 24 91 0 92 ?1
 81 1 96 793 29 95 0 0 97 85 98 17 24 0 99 100 101 95 64 11 0 102 +15 255 99 213
 0 24 103 0 17 100 0 99 104 24 83 105 106 0 107 +17 101 0 99 24 104 61 60 108 0
 109 -17 64 0 110 111 102 61 24 11 0 101 -17 102 0 110 64 94 95 112 113 0 105 -1
5 110 215 0 94 17 0 17 94 0 110 102 111 91 52 114 0 112 +17 112 0 115 116 105 91
 102 113 0 117 +16 113 779 118 ?112 119 106 120 0 0 1 17 105 0 115 112 107 95 10
0 106 0 0 -15 115 835 0 105 121 0 17 107 0 115 105 116 83 122 123 0 0 -16 106 75
1 124 ?100 113 125 126 0 0 1 81 1 124 753 29 106 0 0 127 128 129 16 125 988 130
 ?131 106 132 133 0 0 1 30 126 859 0 106 134 120 0 +0 .0635 -.079375 -1 0 0 31 2
55 134 1014 0 132 133 126 0 +-.1016 .0635 -.0381 0 1 0 0 0 1 .0127 30 120 858 0
 113 126 135 0 +.2032 0 -.079375 0 -1 0 30 135 857 0 119 120 136 0 +0 -.0635 -.0
79375 -1 0 0 16 119 782 97 ?116 123 113 135 0 0 1 30 136 856 0 123 135 137 0 +-.
2032 0 -.079375 0 -1 0 16 123 773 128 ?122 37 119 136 0 0 1 30 137 574 0 138 136
 139 0 +-.200025 -.001143000000000012 -.0762 0 1 0 16 138 399 140 ?141 142 44 13
7 0 0 1 30 139 573 0 142 137 143 0 +0 -.060325 -.0762 1 0 0 16 142 433 144 ?78 1
45 138 139 0 0 1 30 143 572 0 145 139 146 0 +.200025 -.001143000000000012 -.0762
 0 1 0 16 145 436 147 ?71 148 142 143 0 0 1 30 146 571 0 148 143 149 0 +-1387778
780781446e-32 .058039 -.0762 1 0 0 16 148 421 150 ?151 152 145 146 0 0 1 30 149
 566 0 37 146 153 0 +-.200025 -.001143000000000012 0 0 1 0 16 37 445 154 ?27 155
 123 149 0 0 1 30 153 565 0 155 149 156 0 +0 -.060325 0 1 0 0 16 155 405 40 ?157
 158 37 153 0 0 1 30 156 564 0 158 153 159 0 +.200025 -.001143000000000012 0 0 1
 0 16 158 413 160 ?161 44 155 156 0 0 1 30 159 563 0 44 156 162 0 +-138777878078
1446e-32 .058039 0 1 0 0 16 44 450 163 ?34 138 158 159 0 0 1 30 162 554 0 152 15
9 164 0 +-.200025 .058039 -.0762 0 0 1 16 152 402 165 ?38 166 148 162 0 0 1 30 1
64 553 0 166 162 167 0 +.200025 .058039 -.0762 0 0 1 16 166 424 168 ?45 169 152
 164 0 0 1 30 167 552 0 169 164 170 0 +.200025 -.060325 -.0762 0 0 1 16 169 418
 171 ?172 173 166 167 0 0 1 30 170 551 0 173 167 174 0 +-.200025 -.060325 -.0762
 0 0 1 16 173 410 175 ?176 177 169 170 0 0 1 30 174 13 0 178 170 179 0 +.2032 0
 .003175 0 -1 0 16 178 11 180 ?111 108 181 174 0 0 1 30 179 18 0 108 174 182 0 +
0 .0635 .003175 -1 0 0 16 108 16 183 ?60 184 178 179 0 0 1 30 182 23 0 184 179 1
85 0 +-.2032 0 .003175 0 -1 0 16 184 21 186 ?56 187 108 182 0 0 1 30 185 28 0 18
7 182 188 0 +0 -.0635 .003175 -1 0 0 16 187 26 189 ?190 191 184 185 0 0 1 31 188
 33 0 191 185 192 0 +.1514475 1069269736505532e-33 .003175 0 0 1 1 0 0 .0174625
 16 191 31 193 ?194 195 187 188 0 0 1 31 192 38 0 195 188 196 0 +.0504825 288248
4535213445e-32 .003175 0 0 1 1 0 0 .0174625 16 195 36 197 ?198 199 191 192 0 0 1
 31 196 43 0 199 192 200 0 +-.0504825 2882484535213445e-32 .003175 0 0 1 1 0 0 .
0174625 16 199 41 201 ?202 203 195 196 0 0 1 31 200 48 0 203 196 204 0 +-.151447
5 2882484535213445e-32 .003175 0 0 1 1 0 0 .0174625 16 203 46 205 ?206 114 199 2
00 0 0 1 31 204 180 0 177 200 207 0 +.1514475 1069269736505532e-33 0 0 0 1 1 0 0
 .0174625 16 177 140 208 ?209 210 173 204 0 0 1 31 207 179 0 210 204 211 0 +.050
4825 2882484535213445e-32 0 0 0 1 1 0 0 .0174625 16 210 136 212 ?213 214 177 207
 0 0 1 31 211 178 0 214 207 215 0 +-.0504825 2882484535213445e-32 0 0 0 1 1 0 0
 .0174625 16 214 132 216 ?217 181 210 211 0 0 1 31 215 177 0 181 211 218 0 +-.15
14475 2882484535213445e-32 0 0 0 1 1 0 0 .0174625 16 181 128 219 ?220 178 214 21
5 0 0 1 30 218 225 0 114 215 221 0 +.2032 -.0635 .003175 0 0 -1 16 114 189 222 ?
94 223 203 218 0 0 1 30 221 226 0 223 218 20 0 +-.2032 -.0635 .003175 0 0 -1 16
 223 190 224 ?90 25 114 221 0 0 1 30 20 227 0 25 221 8 0 +-.2032 .0635 .003175 0
 0 -1 16 25 191 225 ?86 11 223 20 0 0 1 81 1 225 921 29 25 0 0 23 222 226 17 86
 0 227 122 228 83 104 25 0 100 +15 227 211 0 86 229 0 17 122 0 227 230 86 87 107
 123 0 0 +17 228 0 227 86 230 57 56 184 0 0 -17 104 0 99 101 100 57 86 25 0 228
 -17 230 0 227 228 122 53 90 223 0 190 -17 56 0 231 232 60 53 228 184 0 230 +15
 231 6 0 109 233 234 17 232 0 231 109 56 47 190 187 0 0 -17 60 0 231 56 109 57 1
01 108 0 104 +17 109 0 231 60 232 61 111 178 0 0 -17 111 0 110 94 64 47 109 178
 0 232 +17 190 0 235 90 52 53 232 187 0 0 +15 235 209 0 90 236 0 17 90 0 235 117
 190 87 230 223 0 116 +17 52 0 235 190 117 47 94 114 0 111 -17 117 0 235 52 90 9
1 116 119 0 0 -17 116 0 115 107 112 87 117 119 0 122 +14 255 236 210 237 ?238 23
9 235 6 240 +0 0 238 239 22 81 1 237 1067 241 236 242 0 243 244 245 14 238 194 2
44 ?233 236 246 6 247 +0 0 233 236 22 14 239 206 243 ?236 248 249 6 250 +0 0 236
 248 22 50 240 221 0 236 250 251 0 +0 -.0635 .003175 0 -1 0 0 0 -1 13 22 73 0 0
 0 0 0 0 10 17 14 17 216 252 ?103 0 110 6 7 +0 0 103 0 22 81 1 252 1061 241 17 2
53 0 0 254 255 14 103 214 254 ?229 17 256 6 19 -0 0 229 17 22 81 1 254 1062 241
 103 257 0 252 258 259 14 229 212 258 ?260 103 227 6 251 -0 0 260 103 22 15 256
 979 0 261 103 99 50 19 223 0 103 251 7 0 +0 .0635 .003175 0 -1 0 0 0 -1 50 251
 222 0 229 240 19 0 +-.2032 0 .003175 1 0 0 0 0 -1 17 261 0 256 261 261 0 262 13
2 0 0 -17 262 0 263 262 262 0 261 132 0 0 +16 132 991 264 ?262 125 0 134 0 0 1 8
1 1 264 1016 29 132 0 0 265 130 266 80 7 CCCCCDI12 legal_owners0 16 1 lCZ1 29 26
7 268 9000 0 0 0 0 3 6 0 0 0 FFTFTFTTFFFFFFFF1 81 1 265 928 29 269 0 270 271 264
 272 81 1 130 1017 29 125 0 0 264 273 274 82 255 3 266 18 0 1 81 1 273 1018 29 2
75 0 276 130 277 278 82 3 274 18 1 1 14 275 996 279 ?280 121 281 6 282 -0 0 280
 121 22 81 1 276 1056 283 275 273 279 284 285 286 81 1 277 1019 29 280 0 285 273
 287 288 82 3 278 18 0 2 14 280 1001 289 ?0 275 290 6 291 +0 0 0 275 22 81 1 285
 1058 283 280 277 289 276 0 292 81 1 287 1020 29 103 0 257 277 0 293 82 3 288 18
 1 2 81 1 257 1026 283 103 287 254 253 294 295 82 3 293 18 2 2 80 1 283 0 296 80
01 0 0 0 0 3 5 0 0 0 FFFFTFTFFFFFFFFF2 81 1 253 1024 283 17 297 252 0 257 298 81
 1 294 1028 283 229 271 258 257 299 300 83 255 3 295 .917647058823529 .917647058
823529 .917647058823529 81 1 271 927 29 229 0 294 297 265 301 81 1 258 1063 241
 229 294 0 254 302 303 81 1 299 1030 283 260 304 302 294 305 306 83 3 300 .91764
7058823529 .917647058823529 .917647058823529 14 260 198 302 ?248 229 307 6 308 +
0 0 248 229 22 81 1 304 288 29 260 0 299 309 310 311 81 1 302 1064 241 260 299 0
 258 312 313 81 1 305 1032 283 248 309 312 299 314 315 83 3 306 .917647058823529
 .917647058823529 .917647058823529 14 248 202 312 ?239 260 316 6 317 +0 0 239 26
0 22 81 1 309 287 29 248 0 305 318 304 319 81 1 312 1065 241 248 305 0 302 243 3
20 81 1 314 1034 283 239 318 243 305 242 321 83 3 315 .917647058823529 .91764705
8823529 .917647058823529 81 1 318 286 29 239 0 314 322 309 323 81 1 243 1066 241
 239 314 0 312 237 324 81 1 242 1036 283 236 325 237 314 326 327 83 3 321 .91764
7058823529 .917647058823529 .917647058823529 81 1 325 925 29 236 0 242 224 297 3
28 81 1 326 1038 283 238 310 244 242 329 330 83 3 327 .917647058823529 .91764705
8823529 .917647058823529 81 1 310 289 29 238 0 326 304 165 331 81 1 244 1068 241
 238 326 0 237 332 333 81 1 329 1040 283 233 322 332 326 334 335 83 3 330 .91764
7058823529 .917647058823529 .917647058823529 14 233 1 332 ?336 238 231 6 337 +0
 0 336 238 22 81 1 322 282 29 233 0 329 205 318 338 81 1 332 1069 241 233 329 0
 244 339 340 81 1 334 1042 283 336 127 339 329 341 342 83 3 335 .917647058823529
 .917647058823529 .917647058823529 14 336 112 339 ?343 233 33 6 344 -0 0 343 233
 22 81 1 127 644 29 336 0 334 160 124 345 81 1 339 1070 241 336 334 0 332 346 34
7 81 1 341 1044 283 343 348 346 334 349 350 83 3 342 .917647058823529 .917647058
823529 .917647058823529 14 343 509 346 ?351 336 352 6 353 +0 0 351 336 22 81 1 3
48 511 29 343 0 341 168 354 355 81 1 346 1071 241 343 341 0 339 356 357 81 1 349
 1046 283 351 354 356 341 358 359 83 3 350 .917647058823529 .917647058823529 .91
7647058823529 14 351 513 356 ?360 343 361 6 362 -0 0 360 343 22 81 1 354 515 29
 351 0 349 348 363 364 81 1 356 1072 241 351 349 0 346 365 366 81 1 358 1048 283
 360 363 365 349 367 368 83 3 359 .917647058823529 .917647058823529 .91764705882
3529 14 360 517 365 ?369 351 370 6 371 -0 0 369 351 22 81 1 363 519 29 360 0 358
 354 372 373 81 1 365 1073 241 360 358 0 356 374 375 81 1 367 1050 283 369 372 3
74 358 270 376 83 3 368 .917647058823529 .917647058823529 .917647058823529 14 36
9 521 374 ?269 360 377 6 378 +0 0 269 360 22 81 1 372 523 29 369 0 367 363 46 37
9 81 1 374 1074 241 369 367 0 365 380 381 81 1 270 1052 283 269 265 380 367 284
 382 83 3 376 .917647058823529 .917647058823529 .917647058823529 14 269 836 380
 ?121 369 383 6 384 -0 0 121 369 22 81 1 380 1075 241 269 270 0 374 385 386 81 1
 284 1054 283 121 387 385 270 276 388 83 3 382 .917647058823529 .917647058823529
 .917647058823529 14 121 832 385 ?275 269 115 6 389 +0 0 275 269 22 81 1 387 834
 29 121 0 284 89 390 391 81 1 385 1076 241 121 284 0 380 279 392 83 3 388 .91764
7058823529 .917647058823529 .917647058823529 80 1 241 393 394 8015 0 0 0 0 3 5 0
 0 0 FFFFTFFFFFFFFFFF2 81 1 279 1077 241 275 276 0 385 289 395 83 1 392 .6901960
78431373 81 1 289 1078 241 280 285 0 279 0 396 83 1 395 .690196078431373 83 1 39
6 .690196078431373 79 255 21 394 SDL/TYSA_TRANSLUCENCY81 1 89 807 29 87 0 0 93 3
87 397 81 1 390 911 29 1 0 398 387 73 399 82 3 391 13 2 2 81 1 398 1021 400 1 39
0 401 0 0 402 81 1 73 912 29 68 0 0 390 77 403 82 3 399 6 0 3 81 1 77 913 29 75
 0 0 73 81 404 82 3 403 14 0 0 81 1 81 914 29 79 0 0 77 70 405 82 3 404 14 1 0 8
1 1 70 915 29 65 0 0 81 144 406 82 3 405 14 2 0 81 1 144 916 29 142 0 0 70 150 4
07 82 3 406 14 3 0 81 1 150 917 29 148 0 0 144 140 408 82 3 407 14 0 1 81 1 140
 918 29 138 0 0 150 147 409 82 3 408 14 1 1 81 1 147 919 29 145 0 0 140 23 410 8
2 3 409 14 2 1 81 1 23 920 29 11 0 0 147 225 411 82 3 410 14 3 1 82 3 411 14 4 1
 80 1 400 412 413 8038 0 0 0 0 0 0 0 0 0 TTTTTTTTTTTTTFTF10 81 1 401 1022 412 1
 398 14 0 0 414 98 255 10 402 66 117 116 116 111 110 32 66 111 120 80 1 412 415
 416 8017 0 0 0 0 0 0 0 0 0 TTTTTTTTTTTTTFTF3 81 1 14 1023 417 1 401 2 0 0 418 8
4 255 10 414 Button Box80 1 417 283 419 8040 0 0 0 0 3 5 0 0 0 TTTFFFFFFFFFFFFF2
 83 3 418 .917647058823529 .917647058823529 .917647058823529 79 17 419 SDL/TYSA_
COLOUR_279 13 416 SDL/TYSA_NAME79 14 413 SDL/TYSA_UNAME81 1 93 805 29 91 0 0 85
 89 420 82 3 397 13 7 0 81 1 85 801 29 83 0 0 96 93 421 82 3 420 13 5 0 82 3 421
 13 3 0 50 389 847 0 121 282 384 0 +0 0 -.079375 0 0 -1 1 0 0 51 255 282 1011 0
 275 291 389 0 +-.1016 .060325 -.0381 0 1 0 .0127 0 0 1 50 384 846 0 269 389 378
 0 +0 0 -.0762 0 0 -1 1 0 0 50 378 544 0 369 384 371 0 +-1387778780781446e-32 .0
58039 -.0762 0 -1 0 0 0 -1 50 371 543 0 360 378 362 0 +.200025 -.001143000000000
012 -.0762 1 0 0 0 0 -1 50 362 542 0 351 371 353 0 +0 -.060325 -.0762 0 -1 0 0 0
 -1 50 353 541 0 343 362 337 0 +-.200025 -.001143000000000012 -.0762 1 0 0 0 0 -
1 50 337 3 0 233 353 344 0 +0 0 .003175 0 0 1 1 0 0 50 344 176 0 336 337 247 0 +
0 0 0 0 0 1 1 0 0 51 247 217 0 238 344 308 0 --.1514475 2882484535213445e-32 .00
3175 0 0 -1 .0174625 -1 0 0 51 308 218 0 260 247 317 0 --.0504825 28824845352134
45e-32 .003175 0 0 -1 .0174625 -1 0 0 51 317 219 0 248 308 250 0 -.0504825 28824
84535213445e-32 .003175 0 0 -1 .0174625 -1 0 0 51 250 220 0 239 317 240 0 -.1514
475 1069269736505532e-33 .003175 0 0 -1 .0174625 -1 0 0 50 291 1013 0 280 0 282
 0 +0 .060325 -.0381 0 1 0 -1 0 0 83 1 386 .690196078431373 15 383 839 0 74 269
 0 17 74 0 383 78 82 68 141 138 0 422 -17 78 0 383 71 74 75 423 142 0 424 +17 82
 0 383 74 71 79 151 148 0 425 -17 141 0 352 38 422 79 74 138 0 0 +17 422 0 352 1
41 36 68 176 173 0 423 -15 352 512 0 36 343 0 17 36 0 352 422 38 39 27 37 0 0 -1
7 176 0 361 157 423 39 422 173 0 36 +17 423 0 361 176 424 68 78 142 0 0 -15 361
 516 0 157 351 0 17 424 0 361 423 157 75 172 169 0 426 -17 157 0 361 424 176 66
 35 155 0 172 +17 172 0 370 161 426 66 424 169 0 0 +17 426 0 370 172 427 75 71 1
45 0 0 -15 370 520 0 161 360 0 17 427 0 370 426 161 65 45 166 0 151 -17 71 0 383
 82 78 65 426 145 0 427 +17 161 0 370 427 172 28 42 158 0 0 +17 45 0 377 43 151
 28 427 166 0 161 +17 151 0 377 45 425 65 82 148 0 0 +15 377 524 0 43 369 0 17 4
25 0 377 151 43 79 38 152 0 141 -17 43 0 377 425 45 12 34 44 0 0 -17 38 0 352 36
 141 12 425 152 0 43 +17 42 0 33 35 34 66 161 158 0 157 -15 33 343 0 35 336 428
 17 35 0 33 27 42 39 157 155 0 176 -15 428 124 0 209 336 429 17 209 0 428 209 20
9 0 430 177 0 0 +15 429 125 0 213 336 431 17 213 0 429 213 213 0 432 210 0 0 +15
 431 126 0 217 336 433 17 217 0 431 217 217 0 434 214 0 0 +15 433 127 0 220 336
 0 17 220 0 433 220 220 0 435 181 0 0 +17 435 0 436 435 435 0 220 181 0 0 -15 43
6 195 0 435 238 0 17 434 0 437 434 434 0 217 214 0 0 -15 437 199 0 434 260 0 17
 432 0 438 432 432 0 213 210 0 0 -15 438 203 0 432 248 0 17 430 0 439 430 430 0
 209 177 0 0 -15 439 207 0 430 239 0 83 1 381 .690196078431373 81 1 46 628 29 39
 0 0 372 30 440 82 3 379 9 3 2 81 1 30 629 29 66 0 0 46 26 441 82 3 440 10 0 0 8
2 3 441 10 1 0 83 1 375 .690196078431373 82 3 373 9 5 2 83 1 366 .69019607843137
3 82 3 364 9 0 2 83 1 357 .690196078431373 81 1 168 426 29 166 0 0 171 348 442 8
2 3 355 9 4 2 81 1 171 420 29 169 0 0 175 168 443 82 3 442 9 7 1 81 1 175 412 29
 173 0 0 165 171 444 82 3 443 9 5 1 81 1 165 404 29 152 0 0 310 175 445 82 3 444
 9 4 1 82 3 445 9 6 1 83 1 347 .690196078431373 81 1 160 635 29 158 0 0 154 127
 446 82 3 345 10 4 2 81 1 154 634 29 37 0 0 163 160 447 82 3 446 10 3 1 81 1 163
 633 29 44 0 0 40 154 448 82 3 447 10 2 1 81 1 40 632 29 155 0 0 31 163 449 82 3
 448 10 1 1 82 3 449 10 0 1 83 1 340 .690196078431373 81 1 205 279 29 203 0 0 21
9 322 450 82 3 338 6 2 2 81 1 219 278 29 181 0 0 201 205 451 82 3 450 6 19 1 81
 1 201 277 29 199 0 0 216 219 452 82 3 451 6 18 1 81 1 216 276 29 214 0 0 197 20
1 453 82 3 452 6 17 1 81 1 197 275 29 195 0 0 212 216 454 82 3 453 6 16 1 81 1 2
12 274 29 210 0 0 193 197 455 82 3 454 6 15 1 81 1 193 273 29 191 0 0 208 212 45
6 82 3 455 6 14 1 81 1 208 272 29 177 0 0 186 193 457 82 3 456 6 13 1 81 1 186 2
71 29 184 0 0 180 208 458 82 3 457 6 12 1 81 1 180 269 29 178 0 0 189 186 459 82
 3 458 6 11 1 81 1 189 267 29 187 0 0 183 180 460 82 3 459 6 9 1 81 1 183 265 29
 108 0 0 55 189 461 82 3 460 6 7 1 81 1 55 259 29 53 0 0 51 183 462 82 3 461 6 5
 1 81 1 51 257 29 47 0 0 59 55 463 82 3 462 6 7 0 81 1 59 255 29 57 0 0 63 51 46
4 82 3 463 6 5 0 81 1 63 253 29 61 0 0 0 59 465 82 3 464 6 3 0 82 3 465 6 1 0 83
 1 333 .690196078431373 82 3 331 6 9 2 81 1 224 923 29 223 0 0 222 325 466 81 1
 297 926 29 17 0 253 325 271 467 82 3 328 14 1 2 82 3 467 14 2 2 81 1 222 922 29
 114 0 0 225 224 468 82 3 466 14 7 1 82 3 468 14 6 1 83 1 324 .690196078431373 8
2 3 323 6 6 2 83 1 320 .690196078431373 82 3 319 6 7 2 15 316 201 0 198 248 438
 17 198 0 316 198 198 0 469 195 0 0 +17 469 0 470 469 469 0 198 195 0 0 -15 470
 8 0 469 233 471 15 471 9 0 472 233 473 17 472 0 471 472 472 0 202 199 0 0 -15 4
73 10 0 474 233 0 17 474 0 473 474 474 0 206 203 0 0 -17 206 0 246 206 206 0 474
 203 0 0 +15 246 193 0 206 238 436 17 202 0 307 202 202 0 472 199 0 0 +15 307 19
7 0 202 260 437 83 1 313 .690196078431373 82 3 311 6 8 2 83 1 303 .6901960784313
73 82 3 301 14 3 2 83 3 298 .917647058823529 .917647058823529 .917647058823529 7
9 15 296 SDL/TYSA_COLOUR83 3 292 .917647058823529 .917647058823529 .917647058823
529 15 290 1004 0 131 280 0 17 131 0 290 131 131 0 475 125 0 0 +17 475 0 281 475
 475 0 131 125 0 0 -15 281 999 0 475 275 263 15 263 1000 0 262 275 0 83 3 286 .9
17647058823529 .917647058823529 .917647058823529 82 3 272 14 4 2 79 9 268 BTI/De
tId83 1 259 .690196078431373 83 1 255 .690196078431373 15 249 205 0 194 239 439
 17 194 0 249 194 194 0 476 191 0 0 +17 476 0 234 476 476 0 194 191 0 0 -15 234
 7 0 476 233 470 83 1 245 .690196078431373 82 3 226 14 5 1 81 1 128 775 29 123 0
 0 124 118 477 81 1 118 781 29 113 0 0 128 97 478 82 3 477 13 11 1 81 1 97 784 2
9 119 0 0 118 96 479 82 3 478 13 9 1 82 3 479 13 5 1 31 133 1015 0 125 0 134 0 +
-.1016 .060325 -.0381 0 1 0 0 0 1 .0127 82 3 129 13 7 1 82 3 98 13 1 0 82 3 41 1
0 3 0 82 3 32 10 2 0 19 18 230 0 1 0 10 6 0 S0 74 4 CI16 index_map_offset0 0 1 d
CCZ20 16 7 0 0 287 398 401 14 285 289 2 0 0 0 0 0 0 0 0 0 0 0 0 0 80 1 13 241 48
0 8041 0 0 0 0 3 5 0 0 0 TTTFFFFFFFFFFFFF2 83 1 15 .690196078431373 79 23 480 SD
L/TYSA_TRANSLUCENCY_21 0 
