**ABCDEFGHIJKLMNOPQRSTUVWXYZabcdefghijklmnopqrstuvwxyz**************************
**PARASOLID !"#$%&'()*+,-./:;<=>?@[\]^_`{|}~0123456789**************************
**PART1;
MC=unknown;
MC_MODEL=unknown;
MC_ID=unknown;
OS=unknown;
OS_RELEASE=unknown;
FRU=Parasolid 35.1.246;
APPL=Onshape;
SITE=unknown;
USER=unknown;
FORMAT=text;
GUISE=transmit;
KEY=BTGapi::writeModels_.xmt;
FILE=BTGapi::writeModels_.xmt;
DATE=2023-12-06T18:32:39 (UTC);
**PART2;
SCH=SCH_3501246_35102;
USFLD_SIZE=0;
**PART3;
**END_OF_HEADER*****************************************************************
T51 : TRANSMIT FILE created by modeller version 350124623 SCH_3501246_35102_1300
6231 0 12 36 CCCI7 lattice222 0 CCCI4 mesh1006 0 I8 polyline1008 0 CCCCCCCDI5 ow
ner1040 0 CCCI16 boundary_lattice222 0 CCCI13 boundary_mesh1006 0 I17 boundary_p
olyline1008 0 CCCA16 index_map_offset0 0 1 dA9 index_map82 0 A17 node_id_index_m
ap82 0 A20 schema_embedding_map82 0 A5 child12 0 A14 lowest_node_id0 0 1 dA16 me
sh_offset_data206 0 Z1 701 2 3 0 0 0 0 0 0 0 1e3 1e-8 0 4 5 1 0 1 2 6 0 7 8 9 0
 0 10 11 12 0 0 0 0 0 0 0 81 255 1 2 692 13 1 14 0 0 0 15 70 11 CI9 list_type0 0
 1 uI10 notransmit0 0 1 lCCCDCCDI12 finger_index0 0 1 dI12 finger_block1012 0 CZ
3 0 4 T1 0 0 5 20 1 16 16 13 255 6 137 0 1 0 17 0 0 18 0 51 255 7 610 0 19 20 0
 0 +867361737988404e-33 867361737988404e-33 .01524 -1 -136592399683213e-30 0 .00
635 136592399683213e-30 -1 0 31 255 8 523 0 11 21 0 0 +-635e-6 .00635 .00889 910
615997888088e-31 -1 0 1 910615997888088e-31 0 .00635 29 255 9 489 0 12 22 0 -.00
9525 -.00635 .01524 19 9 CCCCCCI5 frame230 0 CA5 owner12 0 Z10 48 0 1 18 0 23 0
 V0 16 255 11 518 24 ?25 0 26 8 0 0 1 18 255 12 486 27 28 0 29 9 ?1 81 1 27 656
 30 12 0 0 31 32 33 17 255 28 0 34 35 36 12 37 38 0 39 +18 29 468 40 41 12 42 22
 ?1 81 1 40 649 30 29 0 0 43 44 45 17 41 0 46 47 48 29 49 50 0 51 +18 42 454 52
 53 29 54 55 ?1 29 22 471 0 29 55 9 .003175 -.00635 0 29 55 457 0 42 56 22 -.009
525 .00635 .01524 29 56 453 0 54 57 55 .003175 .00635 0 18 54 450 58 49 42 59 56
 ?1 29 57 434 0 59 60 56 -.006985 -.00635 .00889 18 59 431 32 61 54 62 57 ?1 29
 60 430 0 62 63 57 -.006985 -.00635 .01524 18 62 427 31 64 59 65 60 ?1 29 63 422
 0 65 66 60 -.006985 .00635 .00889 18 65 419 67 68 62 69 63 ?1 29 66 418 0 69 70
 63 -.006985 .00635 .01524 18 69 415 71 72 65 73 66 ?1 29 70 395 0 73 74 66 -635
e-6 -.00635 .00254 18 73 392 75 76 69 77 70 ?1 29 74 391 0 77 78 70 .003175 -.00
635 .00254 18 77 388 44 79 73 80 74 ?1 29 78 387 0 80 81 74 -635e-6 .00635 .0025
4 18 80 384 82 25 77 83 78 ?1 29 81 383 0 83 84 78 .003175 .00635 .00254 18 83 3
80 85 86 80 87 81 ?1 29 84 113 0 87 88 81 -.009525 -.00635 0 18 87 92 89 35 83 9
0 84 ?1 29 88 114 0 90 0 84 -.009525 .00635 0 18 90 96 91 92 87 0 88 ?1 81 1 91
 158 30 90 0 0 89 93 94 17 92 0 95 96 53 90 97 98 0 99 +15 255 95 121 0 53 100 0
 17 96 0 95 39 92 87 101 102 0 0 -17 53 0 95 92 39 42 103 104 0 97 +17 97 0 105
 106 99 42 92 98 0 107 -16 98 455 108 ?92 109 110 111 0 0 1 17 99 0 105 97 112 9
0 48 113 0 101 +15 105 123 0 114 115 0 17 112 0 105 99 114 54 116 117 0 48 +17 4
8 0 46 41 101 54 99 113 0 0 -16 113 451 118 ?99 102 119 120 0 0 1 17 101 0 46 48
 47 90 96 102 0 0 +15 46 75 0 48 121 0 17 47 0 46 101 41 87 51 119 0 96 +16 102
 76 93 ?101 122 113 123 0 0 1 81 1 93 170 30 102 0 0 91 43 124 16 122 389 125 ?1
26 127 102 128 0 0 1 30 255 123 109 0 102 120 129 0 +-.009525 0 0 -2731847993664
265e-31 1 0 30 120 110 0 113 130 123 0 +-1734723475976805e-33 .00635 0 -1 -91061
5997888088e-31 0 30 129 133 0 110 123 111 0 +-.009525 -.00635 .00254 0 0 -1 16 1
10 487 131 ?35 98 127 129 0 0 1 30 111 134 0 98 129 132 0 +-.009525 .00635 .0025
4 0 0 -1 31 132 402 0 109 111 133 0 +.003175 1301042606982604e-33 .00254 0 0 1 1
 0 0 .00635 16 109 400 134 ?86 135 98 132 0 0 1 30 133 412 0 135 132 136 0 +-635
e-6 -.00635 .00254 0 -1 0 16 135 410 137 ?138 139 109 133 0 0 1 31 136 437 0 139
 133 140 0 +-.006985 -867361737988404e-34 .01524 1 0 0 0 0 -1 .00635 16 139 435
 141 ?64 142 135 136 0 0 1 30 140 447 0 142 136 143 0 --.006985 .00635 .00889 0
 -1 0 16 142 445 144 ?68 145 139 140 0 0 1 30 143 460 0 145 140 146 0 --.006985
 .00635 .01524 -1 -910615997888088e-31 0 16 145 458 147 ?106 117 142 143 0 0 1 3
0 146 465 0 117 143 148 0 +.003175 .00635 .00254 0 0 -1 16 117 463 149 ?112 50 1
45 146 0 0 1 31 148 478 0 50 146 150 0 -.003175 1301042606982604e-33 0 0 0 1 1 0
 0 .00635 16 50 476 151 ?41 38 117 148 0 0 1 30 150 492 0 38 148 152 0 +17347234
75976805e-33 -.00635 .01524 -1 -136592399683213e-30 0 16 38 490 153 ?28 154 50 1
50 0 0 1 30 152 497 0 154 150 155 0 -.003175 -.00635 .00254 0 0 -1 16 154 495 15
6 ?79 104 38 152 0 0 1 31 155 506 0 104 152 21 0 +-.009525 -433680868994202e-33
 .01524 -1 -2731847993664265e-31 0 2731847993664265e-31 -1 0 .00635 16 104 504 1
57 ?53 26 154 155 0 0 1 31 21 522 0 26 155 8 0 --635e-6 -.00635 .00889 136592399
683213e-30 -1 0 1 136592399683213e-30 0 .00635 16 26 514 158 ?61 11 104 21 0 0 1
 81 1 158 670 30 26 0 0 144 24 159 17 61 0 34 36 126 59 76 26 0 160 +15 34 127 0
 51 161 0 17 36 0 34 28 61 62 160 162 0 37 -17 126 0 34 61 79 73 163 122 0 0 +17
 76 0 164 165 166 73 61 26 0 138 -17 160 0 167 68 64 59 36 162 0 166 +15 167 294
 0 160 168 0 17 68 0 167 169 160 65 166 142 0 170 +17 64 0 167 160 169 62 72 139
 0 36 +16 162 428 171 ?160 172 0 173 0 0 1 17 166 0 164 76 174 59 68 142 0 0 -15
 164 539 0 174 175 0 17 174 0 164 166 165 65 25 11 0 0 -17 165 0 164 174 76 80 1
38 135 0 0 -17 25 0 105 114 170 80 174 11 0 176 +17 114 0 105 112 25 83 176 127
 0 116 -17 170 0 105 25 106 65 169 172 0 174 +17 176 0 177 138 86 80 114 127 0 1
65 +15 177 6 0 176 17 0 17 138 0 177 163 176 73 165 135 0 126 +17 86 0 177 176 1
63 83 178 109 0 114 +16 127 381 179 ?176 110 122 180 0 0 1 81 1 179 680 30 127 0
 0 125 181 182 30 180 19 0 127 128 130 0 +-1734723475976805e-33 .00635 .00254 -1
 -910615997888088e-31 0 30 128 9 0 122 183 180 0 +1734723475976805e-33 -.00635 .
00254 -1 -1365923996832132e-31 0 30 130 112 0 119 180 120 0 +1734723475976805e-3
3 -.00635 0 -1 -1365923996832132e-31 0 16 119 469 184 ?47 113 172 130 0 0 1 81 1
 184 673 30 119 0 0 137 118 185 16 172 416 186 ?170 119 162 183 0 0 1 81 1 186 6
75 30 172 0 0 118 171 187 30 183 323 0 172 173 128 0 +-.006985 .00635 .02159 0 0
 -1 30 173 326 0 162 0 183 0 +-.006985 -.00635 .02159 0 0 -1 80 7 CCCCCDI12 lega
l_owners0 16 1 lCZ1 30 188 189 9000 0 0 0 0 3 6 0 0 0 FFTFTFTTFFFFFFFF1 81 1 118
 674 30 113 0 0 184 186 190 81 1 171 676 30 162 0 0 186 131 191 82 255 3 187 11
 14 1 81 1 131 677 30 110 0 0 171 108 192 82 3 191 11 15 1 81 1 108 678 30 98 0
 0 131 125 193 82 3 192 11 16 1 81 1 125 679 30 122 0 0 108 179 194 82 3 193 11
 17 1 82 3 194 11 18 1 82 3 190 11 13 1 79 255 9 189 BTI/DetId81 1 137 672 30 13
5 0 0 24 184 195 82 3 185 11 12 1 81 1 24 671 30 11 0 0 158 137 196 82 3 195 11
 11 1 82 3 196 11 10 1 81 1 181 681 30 197 0 198 179 199 200 82 3 182 11 19 1 14
 255 197 559 198 ?19 175 201 6 20 +0 0 19 175 23 81 1 198 700 202 197 181 0 203
 204 205 81 1 199 682 30 19 0 204 181 206 207 82 3 200 11 0 2 14 19 591 204 ?0 1
97 208 6 7 +0 0 0 197 23 81 1 204 701 202 19 199 0 198 0 209 81 1 206 683 30 175
 0 203 199 210 211 82 3 207 11 1 2 14 175 538 203 ?197 168 164 6 212 -0 0 197 16
8 23 81 1 203 699 202 175 206 0 213 198 214 81 1 210 684 30 121 0 215 206 216 21
7 82 3 211 11 2 2 14 121 68 215 ?168 100 46 6 218 -0 0 168 100 23 81 1 215 697 2
02 121 210 0 219 213 220 81 1 216 685 30 168 0 213 210 221 222 82 3 217 11 3 2 1
4 168 291 213 ?175 121 167 6 223 +0 0 175 121 23 81 1 213 698 202 168 216 0 215
 203 224 81 1 221 686 30 161 0 225 216 226 227 82 3 222 11 4 2 14 161 128 225 ?1
15 17 34 6 228 +0 0 115 17 23 81 1 225 694 202 161 221 0 229 230 231 81 1 226 68
7 30 115 0 230 221 232 233 82 3 227 11 5 2 14 115 124 230 ?100 161 105 6 234 -0
 0 100 161 23 81 1 230 695 202 115 226 0 225 219 235 81 1 232 688 30 100 0 219 2
26 236 237 82 3 233 11 6 2 14 100 122 219 ?121 115 95 6 238 +0 0 121 115 23 81 1
 219 696 202 100 232 0 230 215 239 81 1 236 689 30 17 0 229 232 0 240 82 3 237 1
1 7 2 14 17 1 229 ?161 0 177 6 241 +0 0 161 0 23 81 1 229 693 202 17 236 0 0 225
 242 82 3 240 11 8 2 80 1 202 0 243 8001 0 0 0 0 3 5 0 0 0 FFFFTFTFFFFFFFFF2 83
 255 3 242 .647058823529412 .647058823529412 .647058823529412 79 15 243 SDL/TYSA
_COLOUR50 255 241 3 0 17 223 218 0 +0 1734723475976805e-33 .00254 0 0 1 1 0 0 13
 23 49 0 0 0 0 0 0 10 17 50 223 317 0 168 0 241 0 +-.006985 867361737988404e-33
 .02159 1 0 0 0 0 -1 50 218 108 0 121 241 238 0 +0 1734723475976805e-33 0 0 0 1
 1 0 0 50 238 129 0 100 218 234 0 +-.009525 0 .00254 -1 -2731847993664265e-31 0
 2731847993664265e-31 -1 0 50 234 130 0 115 238 228 0 +-1734723475976805e-33 .00
635 .00254 910615997888088e-31 -1 0 1 910615997888088e-31 0 50 228 132 0 161 234
 212 0 +1734723475976805e-33 -.00635 .00254 136592399683213e-30 -1 0 1 136592399
683213e-30 0 51 212 550 0 175 228 20 0 +-635e-6 1734723475976805e-33 .00889 0 1
 0 .00635 0 0 1 51 20 578 0 197 212 7 0 +.003175 1301042606982604e-33 .00254 0 0
 1 .00635 1 0 0 83 3 239 .647058823529412 .647058823529412 .647058823529412 83 3
 235 .647058823529412 .647058823529412 .647058823529412 83 3 231 .64705882352941
2 .647058823529412 .647058823529412 83 3 224 .647058823529412 .647058823529412 .
647058823529412 83 3 220 .647058823529412 .647058823529412 .647058823529412 83 3
 214 .647058823529412 .647058823529412 .647058823529412 83 3 209 .64705882352941
2 .647058823529412 .647058823529412 15 208 592 0 37 19 0 17 37 0 208 72 103 62 2
8 38 0 0 -17 72 0 208 107 37 69 64 139 0 106 -17 103 0 208 37 107 12 53 104 0 0
 -17 107 0 208 103 72 42 106 145 0 0 -17 106 0 105 170 97 69 107 145 0 169 +17 1
69 0 167 64 68 69 170 172 0 0 -83 3 205 .647058823529412 .647058823529412 .64705
8823529412 15 201 560 0 49 197 0 17 49 0 201 116 244 54 41 50 0 112 -17 116 0 20
1 178 49 83 112 117 0 0 -17 244 0 201 49 178 29 79 154 0 0 -17 178 0 201 244 116
 77 86 109 0 0 -17 79 0 34 126 51 77 244 154 0 163 +17 51 0 34 79 35 29 47 119 0
 244 -17 163 0 177 86 138 77 126 122 0 178 -17 35 0 34 51 28 87 39 110 0 47 +17
 39 0 95 53 96 12 35 110 0 103 -81 1 144 669 30 142 0 0 153 158 245 82 3 159 11
 9 1 81 1 153 668 30 38 0 0 157 144 246 82 3 245 11 8 1 81 1 157 667 30 104 0 0
 147 153 247 82 3 246 11 7 1 81 1 147 666 30 145 0 0 141 157 248 82 3 247 11 6 1
 81 1 141 665 30 139 0 0 149 147 249 82 3 248 11 5 1 81 1 149 664 30 117 0 0 134
 141 250 82 3 249 11 4 1 81 1 134 663 30 109 0 0 156 149 251 82 3 250 11 3 1 81
 1 156 662 30 154 0 0 151 134 252 82 3 251 11 2 1 81 1 151 661 30 50 0 0 82 156
 253 82 3 252 11 1 1 81 1 82 660 30 80 0 0 75 151 254 82 3 253 11 0 1 81 1 75 65
9 30 73 0 0 67 82 255 82 3 254 11 11 0 81 1 67 658 30 65 0 0 32 75 256 82 3 255
 11 10 0 81 1 32 657 30 59 0 0 27 67 257 82 3 256 11 9 0 82 3 257 11 8 0 81 1 43
 363 30 1 0 258 93 40 259 82 3 124 6 10 1 81 1 258 690 260 1 43 14 0 0 261 82 3
 259 6 0 3 80 1 260 262 263 8038 0 0 0 0 0 0 0 0 0 TTTTTTTTTTTTTFTF10 81 1 14 69
1 262 1 258 2 0 0 264 98 255 6 261 80 97 114 116 32 49 80 1 262 265 266 8017 0 0
 0 0 0 0 0 0 0 TTTTTTTTTTTTTFTF3 84 255 6 264 Part 179 13 266 SDL/TYSA_NAME79 14
 263 SDL/TYSA_UNAME81 1 89 154 30 87 0 0 0 91 267 82 3 94 6 6 0 82 3 267 6 2 0 8
1 1 85 652 30 83 0 0 58 71 268 81 1 58 651 30 54 0 0 44 85 269 81 1 71 653 30 69
 0 0 85 52 270 82 3 268 11 3 0 81 1 52 654 30 42 0 0 71 31 271 82 3 270 11 4 0 8
1 1 31 655 30 62 0 0 52 27 272 82 3 271 11 5 0 82 3 272 11 6 0 81 1 44 650 30 77
 0 0 40 58 273 82 3 269 11 2 0 82 3 273 11 1 0 82 3 45 11 0 0 82 3 33 11 7 0 19
 18 138 0 1 0 10 6 0 S0 74 4 CI16 index_map_offset0 0 1 dCCZ20 16 5 0 0 236 258
 14 2 204 0 0 0 0 0 0 0 0 0 0 0 0 0 0 0 80 1 13 202 274 8040 0 0 0 0 3 5 0 0 0 T
TTFFFFFFFFFFFFF2 83 3 15 .647058823529412 .647058823529412 .647058823529412 79 1
7 274 SDL/TYSA_COLOUR_21 0 
