**ABCDEFGHIJKLMNOPQRSTUVWXYZabcdefghijklmnopqrstuvwxyz**************************
**PARASOLID !"#$%&'()*+,-./:;<=>?@[\]^_`{|}~0123456789**************************
**PART1;
MC=unknown;
MC_MODEL=unknown;
MC_ID=unknown;
OS=unknown;
OS_RELEASE=unknown;
FRU=Parasolid 35.1.246;
APPL=Onshape;
SITE=unknown;
USER=unknown;
FORMAT=text;
GUISE=transmit;
KEY=BTGapi::writeModels_.xmt;
FILE=BTGapi::writeModels_.xmt;
DATE=2023-12-06T18:35:21 (UTC);
**PART2;
SCH=SCH_3501246_35102;
USFLD_SIZE=0;
**PART3;
**END_OF_HEADER*****************************************************************
T51 : TRANSMIT FILE created by modeller version 350124623 SCH_3501246_35102_1300
6231 0 12 36 CCCI7 lattice222 0 CCCI4 mesh1006 0 I8 polyline1008 0 CCCCCCCDI5 ow
ner1040 0 CCCI16 boundary_lattice222 0 CCCI13 boundary_mesh1006 0 I17 boundary_p
olyline1008 0 CCCA16 index_map_offset0 0 1 dA9 index_map82 0 A17 node_id_index_m
ap82 0 A20 schema_embedding_map82 0 A5 child12 0 A14 lowest_node_id0 0 1 dA16 me
sh_offset_data206 0 Z1 1475 2 3 0 0 0 0 0 0 0 1e3 1e-8 0 4 0 1 0 1 2 5 0 6 7 8 0
 0 9 10 11 0 0 0 0 0 0 0 81 255 1 2 1437 12 1 13 0 0 0 14 70 11 CI9 list_type0 0
 1 uI10 notransmit0 0 1 lCCCDCCDI12 finger_index0 0 1 dI12 finger_block1012 0 CZ
3 0 4 T1 0 0 5 20 1 15 15 13 255 5 1105 0 1 0 16 0 0 17 0 50 255 6 1068 0 18 19
 0 0 +.0111125 -.0015875 -1734723475976805e-32 1 0 496699635211684e-31 496699635
211684e-31 0 -1 30 255 7 1104 0 20 21 0 0 +.0111125 -.0015875 .034925 0 1 0 29 2
55 8 889 0 22 23 0 -.041275 0 -.0381 19 9 CCCCCCI5 frame230 0 CA5 owner12 0 Z9 3
76 0 1 17 0 24 0 V0 16 255 10 928 25 ?26 0 27 28 0 0 1 18 255 11 370 29 30 0 31
 32 ?1 81 1 29 1219 33 11 0 0 34 35 36 17 255 30 0 37 38 39 11 40 41 0 42 -18 31
 365 43 44 11 45 46 ?1 29 32 372 0 11 46 47 -.041275 -.0015875 -.0381 29 46 367
 0 31 48 32 -.041275 -.0015875 .0381 29 47 924 0 49 32 50 .0111125 0 .034925 18
 49 848 51 52 53 0 47 ?1 29 50 923 0 53 47 54 .0174625 0 .034925 18 53 844 55 56
 57 49 50 ?1 29 54 922 0 57 50 58 .0174625 0 -.034925 18 57 840 59 60 61 53 54 ?
1 29 58 921 0 61 54 62 .0111125 0 -.034925 18 61 836 63 64 65 57 58 ?1 29 62 920
 0 65 58 66 .0301625 0 .034925 18 65 832 67 68 69 61 62 ?1 29 66 919 0 69 62 70
 .0365125 0 .034925 18 69 828 71 72 73 65 66 ?1 29 70 918 0 73 66 74 .0365125 0
 -.034925 18 73 824 75 76 77 69 70 ?1 29 74 917 0 77 70 78 .0301625 0 -.034925 1
8 77 820 79 80 81 73 74 ?1 29 78 916 0 81 74 82 .0206375 0 .034925 18 81 816 83
 84 85 77 78 ?1 29 82 915 0 85 78 86 .0269875 0 .034925 18 85 812 87 88 89 81 82
 ?1 29 86 914 0 89 82 90 .0269875 0 -.034925 18 89 808 91 92 93 85 86 ?1 29 90 9
13 0 93 86 94 .0206375 0 -.034925 18 93 804 95 96 97 89 90 ?1 29 94 912 0 97 90
 98 .00158749999999997 0 .034925 18 97 800 99 100 101 93 94 ?1 29 98 911 0 101 9
4 102 .0079375 0 .034925 18 101 796 103 104 105 97 98 ?1 29 102 910 0 105 98 106
 .0079375 0 -.034925 18 105 792 107 108 109 101 102 ?1 29 106 909 0 109 102 110
 .001587499999999965 0 -.034925 18 109 788 111 112 113 105 106 ?1 29 110 908 0 1
13 106 114 -.0079375 0 .034925 18 113 784 115 116 117 109 110 ?1 29 114 907 0 11
7 110 118 -.001587500000000035 0 .034925 18 117 780 119 120 121 113 114 ?1 29 11
8 906 0 121 114 122 -.00158750000000003 0 -.034925 18 121 776 123 124 125 117 11
8 ?1 29 122 905 0 125 118 126 -.0079375 0 -.034925 18 125 772 127 128 129 121 12
2 ?1 29 126 904 0 129 122 130 -.0174625 0 .034925 18 129 768 131 132 133 125 126
 ?1 29 130 903 0 133 126 134 -.0111125 0 .034925 18 133 764 135 136 137 129 130
 ?1 29 134 902 0 137 130 138 -.0111125 0 -.034925 18 137 760 139 140 141 133 134
 ?1 29 138 901 0 141 134 142 -.0174625 0 -.034925 18 141 756 143 144 145 137 138
 ?1 29 142 900 0 145 138 146 -.0269875 0 .034925 18 145 752 147 148 149 141 142
 ?1 29 146 899 0 149 142 150 -.0206375 0 .034925 18 149 748 151 152 153 145 146
 ?1 29 150 898 0 153 146 154 -.0206375 0 -.034925 18 153 744 155 156 157 149 150
 ?1 29 154 897 0 157 150 158 -.0269875 0 -.034925 18 157 740 159 160 161 153 154
 ?1 29 158 896 0 161 154 162 -.0365125 0 .034925 18 161 736 163 164 165 157 158
 ?1 29 162 895 0 165 158 166 -.0301625 0 .034925 18 165 732 167 168 169 161 162
 ?1 29 166 894 0 169 162 170 -.0301625 0 -.034925 18 169 728 171 172 173 165 166
 ?1 29 170 893 0 173 166 174 -.0365125 0 -.034925 18 173 724 175 176 177 169 170
 ?1 29 174 892 0 177 170 178 .041275 0 -.0381 18 177 720 179 26 180 173 174 ?1 2
9 178 891 0 180 174 23 .041275 0 .0381 18 180 716 35 181 182 177 178 ?1 29 23 89
0 0 182 178 8 -.041275 0 .0381 18 182 712 183 184 22 180 23 ?1 81 1 183 1222 33
 182 0 0 185 43 186 17 184 0 37 39 38 182 187 188 0 189 +18 22 708 34 40 190 182
 8 ?1 81 1 34 1218 33 22 0 0 191 29 192 17 40 0 193 194 42 22 30 41 0 195 +18 19
0 195 196 197 198 22 199 ?1 81 1 196 1281 33 190 0 0 51 55 200 17 197 0 201 202
 203 190 52 20 0 204 -18 198 200 205 206 207 190 208 ?1 29 199 197 0 190 0 208 .
0111125 -.0015875 .034925 29 208 202 0 198 199 209 .0174625 -.0015875 .034925 29
 209 207 0 207 208 210 .0174625 -.0015875 -.034925 18 207 205 211 212 213 198 20
9 ?1 29 210 212 0 213 209 214 .0111125 -.0015875 -.034925 18 213 210 215 216 217
 207 210 ?1 29 214 217 0 217 210 218 .0301625 -.0015875 .034925 18 217 215 219 2
20 221 213 214 ?1 29 218 222 0 221 214 222 .0365125 -.0015875 .034925 18 221 220
 223 224 225 217 218 ?1 29 222 227 0 225 218 226 .0365125 -.0015875 -.034925 18
 225 225 227 228 229 221 222 ?1 29 226 232 0 229 222 230 .0301625 -.0015875 -.03
4925 18 229 230 231 232 233 225 226 ?1 29 230 237 0 233 226 234 .0206375 -.00158
75 .034925 18 233 235 235 236 237 229 230 ?1 29 234 242 0 237 230 238 .0269875 -
.0015875 .034925 18 237 240 239 240 241 233 234 ?1 29 238 247 0 241 234 242 .026
9875 -.0015875 -.034925 18 241 245 243 244 245 237 238 ?1 29 242 252 0 245 238 2
46 .0206375 -.0015875 -.034925 18 245 250 247 248 249 241 242 ?1 29 246 257 0 24
9 242 250 .00158749999999997 -.0015875 .034925 18 249 255 251 252 253 245 246 ?1
 29 250 262 0 253 246 254 .0079375 -.0015875 .034925 18 253 260 255 256 257 249
 250 ?1 29 254 267 0 257 250 258 .0079375 -.0015875 -.034925 18 257 265 259 260
 261 253 254 ?1 29 258 272 0 261 254 262 .001587499999999965 -.0015875 -.034925
 18 261 270 263 264 265 257 258 ?1 29 262 277 0 265 258 266 -.0079375 -.0015875
 .034925 18 265 275 267 268 269 261 262 ?1 29 266 282 0 269 262 270 -.0015875000
00000035 -.0015875 .034925 18 269 280 271 272 273 265 266 ?1 29 270 287 0 273 26
6 274 -.00158750000000003 -.0015875 -.034925 18 273 285 275 276 277 269 270 ?1 2
9 274 292 0 277 270 278 -.0079375 -.0015875 -.034925 18 277 290 279 280 281 273
 274 ?1 29 278 297 0 281 274 282 -.0174625 -.0015875 .034925 18 281 295 283 284
 285 277 278 ?1 29 282 302 0 285 278 286 -.0111125 -.0015875 .034925 18 285 300
 287 288 289 281 282 ?1 29 286 307 0 289 282 290 -.0111125 -.0015875 -.034925 18
 289 305 291 292 293 285 286 ?1 29 290 312 0 293 286 294 -.0174625 -.0015875 -.0
34925 18 293 310 295 296 297 289 290 ?1 29 294 317 0 297 290 298 -.0269875 -.001
5875 .034925 18 297 315 299 300 301 293 294 ?1 29 298 322 0 301 294 302 -.020637
5 -.0015875 .034925 18 301 320 303 304 305 297 298 ?1 29 302 327 0 305 298 306 -
.0206375 -.0015875 -.034925 18 305 325 307 308 309 301 302 ?1 29 306 332 0 309 3
02 310 -.0269875 -.0015875 -.034925 18 309 330 311 312 313 305 306 ?1 29 310 337
 0 313 306 314 -.0365125 -.0015875 .034925 18 313 335 315 316 317 309 310 ?1 29
 314 342 0 317 310 318 -.0301625 -.0015875 .034925 18 317 340 319 320 321 313 31
4 ?1 29 318 347 0 321 314 322 -.0301625 -.0015875 -.034925 18 321 345 323 324 32
5 317 318 ?1 29 322 352 0 325 318 326 -.0365125 -.0015875 -.034925 18 325 350 32
7 328 329 321 322 ?1 29 326 357 0 329 322 48 .041275 -.0015875 -.0381 18 329 355
 191 330 45 325 326 ?1 29 48 362 0 45 326 46 .041275 -.0015875 .0381 18 45 360 1
85 331 31 329 48 ?1 81 1 185 1221 33 45 0 0 35 183 332 17 331 0 333 334 187 45 4
4 335 0 336 -15 255 333 963 0 189 337 0 17 334 0 333 189 331 180 338 27 0 339 +1
7 187 0 333 331 189 31 184 188 0 38 -17 44 0 340 341 336 31 331 335 0 187 +16 33
5 185 342 ?44 343 344 345 0 0 1 17 336 0 340 44 346 45 347 344 0 338 +15 340 14
 0 346 348 0 17 346 0 340 336 341 329 42 349 0 0 -17 347 0 350 26 338 329 336 34
4 0 346 -16 344 180 351 ?336 335 349 352 0 0 1 17 338 0 350 347 339 45 334 27 0
 0 -15 350 965 0 339 353 0 17 339 0 350 338 26 180 354 355 0 0 +16 27 927 356 ?3
34 10 188 357 0 0 1 81 1 356 1290 33 27 0 0 358 359 360 16 188 926 359 ?184 27 4
1 361 0 0 1 30 357 1071 0 27 361 28 0 +.041275 -.0015875 .0381 0 1 0 30 361 1070
 0 188 362 357 0 +-.041275 -.0015875 .0381 0 1 0 30 28 1072 0 10 357 363 0 +.041
275 -.0015875 -.0381 0 1 0 30 363 1073 0 364 28 365 0 +-.0365125 -.0015875 -.034
925 0 1 0 16 364 929 366 ?176 367 368 363 0 0 1 30 365 1074 0 367 363 369 0 +-.0
301625 -.0015875 -.034925 0 1 0 16 367 930 370 ?172 371 364 365 0 0 1 30 369 107
5 0 371 365 372 0 +-.0301625 -.0015875 .034925 0 1 0 16 371 931 373 ?374 375 367
 369 0 0 1 30 372 1076 0 375 369 376 0 +-.0365125 -.0015875 .034925 0 1 0 16 375
 932 377 ?164 41 371 372 0 0 1 30 376 1077 0 378 372 379 0 +-.0269875 -.0015875
 -.034925 0 1 0 16 378 933 380 ?160 381 382 376 0 0 1 30 379 1078 0 381 376 383
 0 +-.0206375 -.0015875 -.034925 0 1 0 16 381 934 384 ?156 385 378 379 0 0 1 30
 383 1079 0 385 379 386 0 +-.0206375 -.0015875 .034925 0 1 0 16 385 935 387 ?388
 368 381 383 0 0 1 30 386 1080 0 368 383 389 0 +-.0269875 -.0015875 .034925 0 1
 0 16 368 936 390 ?148 364 385 386 0 0 1 30 389 1081 0 391 386 392 0 +-.0174625
 -.0015875 -.034925 0 1 0 16 391 937 393 ?144 394 395 389 0 0 1 30 392 1082 0 39
4 389 396 0 +-.0111125 -.0015875 -.034925 0 1 0 16 394 938 397 ?140 398 391 392
 0 0 1 30 396 1083 0 398 392 399 0 +-.0111125 -.0015875 .034925 0 1 0 16 398 939
 400 ?401 382 394 396 0 0 1 30 399 1084 0 382 396 402 0 +-.0174625 -.0015875 .03
4925 0 1 0 16 382 940 403 ?132 378 398 399 0 0 1 30 402 1085 0 404 399 405 0 +-.
0079375 -.0015875 -.034925 0 1 0 16 404 941 406 ?128 407 408 402 0 0 1 30 405 10
86 0 407 402 409 0 +-.00158750000000003 -.0015875 -.034925 0 1 0 16 407 942 410
 ?124 411 404 405 0 0 1 30 409 1087 0 411 405 412 0 +-.001587500000000035 -.0015
875 .034925 0 1 0 16 411 943 413 ?414 395 407 409 0 0 1 30 412 1088 0 395 409 41
5 0 +-.0079375 -.0015875 .034925 0 1 0 16 395 944 416 ?116 391 411 412 0 0 1 30
 415 1089 0 417 412 418 0 +.001587499999999965 -.0015875 -.034925 0 1 0 16 417 9
45 419 ?112 420 421 415 0 0 1 30 418 1090 0 420 415 422 0 +.0079375 -.0015875 -.
034925 0 1 0 16 420 946 423 ?108 424 417 418 0 0 1 30 422 1091 0 424 418 425 0 +
.0079375 -.0015875 .034925 0 1 0 16 424 947 426 ?427 408 420 422 0 0 1 30 425 10
92 0 408 422 428 0 +.00158749999999997 -.0015875 .034925 0 1 0 16 408 948 429 ?1
00 404 424 425 0 0 1 30 428 1093 0 430 425 431 0 +.0206375 -.0015875 -.034925 0
 1 0 16 430 949 432 ?96 433 434 428 0 0 1 30 431 1094 0 433 428 435 0 +.0269875
 -.0015875 -.034925 0 1 0 16 433 950 436 ?92 437 430 431 0 0 1 30 435 1095 0 437
 431 438 0 +.0269875 -.0015875 .034925 0 1 0 16 437 951 439 ?440 421 433 435 0 0
 1 30 438 1096 0 421 435 441 0 +.0206375 -.0015875 .034925 0 1 0 16 421 952 442
 ?84 417 437 438 0 0 1 30 441 1097 0 443 438 444 0 +.0301625 -.0015875 -.034925
 0 1 0 16 443 953 445 ?80 446 20 441 0 0 1 30 444 1098 0 446 441 447 0 +.0365125
 -.0015875 -.034925 0 1 0 16 446 954 448 ?76 449 443 444 0 0 1 30 447 1099 0 449
 444 450 0 +.0365125 -.0015875 .034925 0 1 0 16 449 955 451 ?452 434 446 447 0 0
 1 30 450 1100 0 434 447 453 0 +.0301625 -.0015875 .034925 0 1 0 16 434 956 454
 ?68 430 449 450 0 0 1 30 453 1101 0 455 450 456 0 +.0111125 -.0015875 -.034925
 0 1 0 16 455 957 457 ?64 458 343 453 0 0 1 30 456 1102 0 458 453 21 0 +.0174625
 -.0015875 -.034925 0 1 0 16 458 958 459 ?60 460 455 456 0 0 1 30 21 1103 0 460
 456 7 0 +.0174625 -.0015875 .034925 0 1 0 16 460 959 461 ?462 20 458 21 0 0 1 8
1 1 461 1321 33 460 0 0 463 457 464 17 462 0 465 466 467 53 468 460 0 469 +16 20
 960 463 ?52 443 460 7 0 0 1 81 1 463 1320 33 20 0 0 448 461 470 17 52 0 471 56
 204 49 197 20 0 472 +15 471 1029 0 56 473 0 17 56 0 471 468 52 53 472 474 0 462
 +17 204 0 471 52 468 190 206 475 0 476 -17 472 0 477 478 469 49 56 474 0 203 -1
5 477 555 0 478 479 480 17 478 0 477 481 472 61 203 482 0 483 +17 469 0 477 472
 481 53 466 484 0 0 -16 474 700 485 ?56 484 482 486 0 0 1 17 203 0 201 197 64 49
 478 482 0 0 -15 201 1031 0 203 18 0 17 64 0 201 203 202 61 216 455 0 478 +16 48
2 704 487 ?478 474 0 488 0 0 1 81 1 487 1392 33 482 0 0 489 490 491 30 488 888 0
 482 492 486 0 +.0111125 0 -1734723475976805e-32 496699635211684e-31 0 -1 30 492
 192 0 343 345 488 0 +-.041275 -.0015875 -693889390390723e-32 -455307998944044e-
30 0 1 30 486 887 0 474 488 493 0 +.0142875 0 .034925 1 0 0 30 493 886 0 484 486
 494 0 +.0174625 0 -1734723475976805e-32 546369598732853e-30 0 -1 16 484 696 495
 ?466 496 474 493 0 0 1 30 494 885 0 496 493 497 0 +.0142875 0 -.034925 1 0 0 16
 496 692 498 ?481 499 484 494 0 0 1 30 497 884 0 499 494 500 0 +.0301625 0 -1387
778780781446e-32 546369598732853e-30 0 -1 16 499 688 501 ?502 503 496 497 0 0 1
 30 500 883 0 503 497 504 0 +.0333375 0 .034925 1 0 0 16 503 684 505 ?506 507 49
9 500 0 0 1 30 504 882 0 507 500 508 0 +.0365125 0 -1040834085586084e-32 5960395
62254021e-30 0 -1 16 507 680 509 ?510 511 503 504 0 0 1 30 508 881 0 511 504 512
 0 +.0333375 0 -.034925 1 0 0 16 511 676 513 ?514 515 507 508 0 0 1 30 512 880 0
 515 508 516 0 +.0206375 0 -1387778780781446e-32 546369598732853e-30 0 -1 16 515
 672 517 ?518 519 511 512 0 0 1 30 516 879 0 519 512 520 0 +.0238125 0 .034925 1
 0 0 16 519 668 521 ?522 523 515 516 0 0 1 30 520 878 0 523 516 524 0 +.0269875
 0 -1387778780781446e-32 546369598732853e-30 0 -1 16 523 664 525 ?526 527 519 52
0 0 0 1 30 524 877 0 527 520 528 0 +.0238125 0 -.034925 1 0 0 16 527 660 529 ?53
0 531 523 524 0 0 1 30 528 876 0 531 524 532 0 +.00158749999999997 0 -2428612866
36753e-31 620874544014605e-31 0 -1 16 531 656 533 ?534 535 527 528 0 0 1 30 532
 875 0 535 528 536 0 +.0047625 0 .034925 1 0 0 16 535 652 537 ?538 539 531 532 0
 0 1 30 536 874 0 539 532 540 0 +.0079375 0 -1734723475976805e-32 49669963521168
4e-31 0 -1 16 539 648 541 ?542 543 535 536 0 0 1 30 540 873 0 543 536 544 0 +.00
47625 0 -.034925 1 0 0 16 543 644 545 ?546 547 539 540 0 0 1 30 544 872 0 547 54
0 548 0 +-.0079375 0 -1387778780781446e-32 496699635211684e-31 0 -1 16 547 640 5
49 ?550 551 543 544 0 0 1 30 548 871 0 551 544 552 0 +-.0047625 0 .034925 1 0 0
 16 551 636 553 ?554 555 547 548 0 0 1 30 552 870 0 555 548 556 0 +-.00158750000
0000035 0 -1387778780781446e-32 589830816813875e-31 0 -1 16 555 632 557 ?558 559
 551 552 0 0 1 30 556 869 0 559 552 560 0 +-.0047625 0 -.034925 1 0 0 16 559 628
 561 ?562 563 555 556 0 0 1 30 560 868 0 563 556 564 0 +-.0174625 0 -10408340855
86084e-32 496699635211684e-31 0 -1 16 563 624 565 ?566 567 559 560 0 0 1 30 564
 867 0 567 560 568 0 +-.0142875 0 .034925 1 0 0 16 567 620 569 ?570 571 563 564
 0 0 1 30 568 866 0 571 564 572 0 +-.0111125 0 -1387778780781446e-32 49669963521
1684e-31 0 -1 16 571 616 573 ?574 575 567 568 0 0 1 30 572 865 0 575 568 576 0 +
-.0142875 0 -.034925 1 0 0 16 575 612 577 ?578 579 571 572 0 0 1 30 576 864 0 57
9 572 580 0 +-.0269875 0 -1387778780781446e-32 496699635211684e-31 0 -1 16 579 6
08 581 ?582 583 575 576 0 0 1 30 580 863 0 583 576 584 0 +-.0238125 0 .034925 1
 0 0 16 583 604 585 ?586 587 579 580 0 0 1 30 584 862 0 587 580 588 0 +-.0206375
 0 -1040834085586084e-32 496699635211684e-31 0 -1 16 587 600 589 ?590 591 583 58
4 0 0 1 30 588 861 0 591 584 592 0 +-.0238125 0 -.034925 1 0 0 16 591 596 593 ?5
94 595 587 588 0 0 1 30 592 860 0 595 588 596 0 +-.0365125 0 -1734723475976805e-
32 993399270423368e-31 0 -1 16 595 592 597 ?598 599 591 592 0 0 1 30 596 859 0 5
99 592 600 0 +-.0333375 0 .034925 1 0 0 16 599 588 601 ?602 603 595 596 0 0 1 30
 600 858 0 603 596 604 0 +-.0301625 0 -242861286636753e-31 496699635211684e-31 0
 -1 16 603 584 605 ?606 607 599 600 0 0 1 30 604 857 0 607 600 608 0 +-.0333375
 0 -.034925 1 0 0 16 607 580 609 ?610 611 603 604 0 0 1 30 608 856 0 611 604 612
 0 +208166817117217e-31 0 -.0381 -1 0 -1681137226870315e-31 16 611 576 613 ?195
 355 607 608 0 0 1 30 612 855 0 355 608 614 0 +.041275 0 693889390390723e-32 -45
5307998944044e-30 0 1 16 355 572 615 ?339 616 611 612 0 0 1 30 614 854 0 616 612
 617 0 +-1387778780781446e-32 0 .0381 -1 0 -1681137226870315e-31 16 616 568 618
 ?189 619 355 614 0 0 1 30 617 853 0 619 614 362 0 +-.041275 0 -693889390390723e
-32 -455307998944044e-30 0 1 16 619 564 620 ?621 622 616 617 0 0 1 30 362 1069 0
 41 617 361 0 +-.041275 -.0015875 -.0381 0 1 0 16 41 925 358 ?40 188 375 362 0 0
 1 81 1 358 1289 33 41 0 0 25 356 623 80 7 CCCCCDI12 legal_owners0 16 1 lCZ1 33
 624 625 9000 0 0 0 0 3 6 0 0 0 FFTFTFTTFFFFFFFF1 81 1 25 1288 33 10 0 0 211 358
 626 82 255 3 623 6 1 1 81 1 211 1287 33 207 0 0 59 25 627 82 3 626 6 0 1 81 1 5
9 1286 33 57 0 0 215 211 628 82 3 627 6 71 0 81 1 215 1285 33 213 0 0 63 59 629
 82 3 628 6 70 0 81 1 63 1284 33 61 0 0 205 215 630 82 3 629 6 69 0 81 1 205 128
3 33 198 0 0 55 63 631 82 3 630 6 68 0 81 1 55 1282 33 53 0 0 196 205 632 82 3 6
31 6 67 0 82 3 632 6 66 0 79 255 9 625 BTI/DetId81 1 620 1330 33 619 0 0 351 633
 634 17 621 0 635 181 195 182 39 619 0 0 +16 622 15 490 ?202 475 619 636 0 0 1 8
1 1 490 1393 33 622 0 0 487 495 637 17 202 0 201 64 197 213 476 622 0 638 +16 47
5 20 639 ?206 640 622 641 0 0 1 30 636 17 0 622 0 641 0 +.0111125 -.0015875 -173
4723475976805e-32 496699635211684e-31 0 -1 30 641 22 0 475 636 642 0 +.0142875 -
.0015875 .034925 1 0 0 30 642 27 0 640 641 643 0 +.0174625 -.0015875 -1734723475
976805e-32 546369598732853e-30 0 -1 16 640 25 644 ?212 645 475 642 0 0 1 30 643
 32 0 645 642 646 0 +.0142875 -.0015875 -.034925 1 0 0 16 645 30 489 ?647 648 64
0 643 0 0 1 30 646 37 0 648 643 649 0 +.0301625 -.0015875 -1387778780781446e-32
 546369598732853e-30 0 -1 16 648 35 650 ?651 652 645 646 0 0 1 30 649 42 0 652 6
46 653 0 +.0333375 -.0015875 .034925 1 0 0 16 652 40 654 ?655 656 648 649 0 0 1
 30 653 47 0 656 649 657 0 +.0365125 -.0015875 -1040834085586084e-32 59603956225
4021e-30 0 -1 16 656 45 658 ?228 659 652 653 0 0 1 30 657 52 0 659 653 660 0 +.0
333375 -.0015875 -.034925 1 0 0 16 659 50 661 ?662 663 656 657 0 0 1 30 660 57 0
 663 657 664 0 +.0206375 -.0015875 -1387778780781446e-32 546369598732853e-30 0 -
1 16 663 55 665 ?666 667 659 660 0 0 1 30 664 62 0 667 660 668 0 +.0238125 -.001
5875 .034925 1 0 0 16 667 60 669 ?670 671 663 664 0 0 1 30 668 67 0 671 664 672
 0 +.0269875 -.0015875 -1387778780781446e-32 546369598732853e-30 0 -1 16 671 65
 673 ?244 674 667 668 0 0 1 30 672 72 0 674 668 675 0 +.0238125 -.0015875 -.0349
25 1 0 0 16 674 70 676 ?677 678 671 672 0 0 1 30 675 77 0 678 672 679 0 +.001587
49999999997 -.0015875 -242861286636753e-31 620874544014605e-31 0 -1 16 678 75 68
0 ?681 682 674 675 0 0 1 30 679 82 0 682 675 683 0 +.0047625 -.0015875 .034925 1
 0 0 16 682 80 684 ?685 686 678 679 0 0 1 30 683 87 0 686 679 687 0 +.0079375 -.
0015875 -1734723475976805e-32 496699635211684e-31 0 -1 16 686 85 688 ?260 689 68
2 683 0 0 1 30 687 92 0 689 683 690 0 +.0047625 -.0015875 -.034925 1 0 0 16 689
 90 691 ?692 693 686 687 0 0 1 30 690 97 0 693 687 694 0 +-.0079375 -.0015875 -1
387778780781446e-32 496699635211684e-31 0 -1 16 693 95 695 ?696 697 689 690 0 0
 1 30 694 102 0 697 690 698 0 +-.0047625 -.0015875 .034925 1 0 0 16 697 100 699
 ?700 701 693 694 0 0 1 30 698 107 0 701 694 702 0 +-.001587500000000035 -.00158
75 -1387778780781446e-32 589830816813875e-31 0 -1 16 701 105 703 ?276 704 697 69
8 0 0 1 30 702 112 0 704 698 705 0 +-.0047625 -.0015875 -.034925 1 0 0 16 704 11
0 706 ?707 708 701 702 0 0 1 30 705 117 0 708 702 709 0 +-.0174625 -.0015875 -10
40834085586084e-32 496699635211684e-31 0 -1 16 708 115 710 ?711 712 704 705 0 0
 1 30 709 122 0 712 705 713 0 +-.0142875 -.0015875 .034925 1 0 0 16 712 120 714
 ?715 716 708 709 0 0 1 30 713 127 0 716 709 717 0 +-.0111125 -.0015875 -1387778
780781446e-32 496699635211684e-31 0 -1 16 716 125 718 ?292 719 712 713 0 0 1 30
 717 132 0 719 713 720 0 +-.0142875 -.0015875 -.034925 1 0 0 16 719 130 721 ?722
 723 716 717 0 0 1 30 720 137 0 723 717 724 0 +-.0269875 -.0015875 -138777878078
1446e-32 496699635211684e-31 0 -1 16 723 135 725 ?726 727 719 720 0 0 1 30 724 1
42 0 727 720 728 0 +-.0238125 -.0015875 .034925 1 0 0 16 727 140 729 ?730 731 72
3 724 0 0 1 30 728 147 0 731 724 732 0 +-.0206375 -.0015875 -1040834085586084e-3
2 496699635211684e-31 0 -1 16 731 145 733 ?308 734 727 728 0 0 1 30 732 152 0 73
4 728 735 0 +-.0238125 -.0015875 -.034925 1 0 0 16 734 150 736 ?737 738 731 732
 0 0 1 30 735 157 0 738 732 739 0 +-.0365125 -.0015875 -1734723475976805e-32 993
399270423368e-31 0 -1 16 738 155 740 ?741 742 734 735 0 0 1 30 739 162 0 742 735
 743 0 +-.0333375 -.0015875 .034925 1 0 0 16 742 160 744 ?745 746 738 739 0 0 1
 30 743 167 0 746 739 747 0 +-.0301625 -.0015875 -242861286636753e-31 4966996352
11684e-31 0 -1 16 746 165 748 ?324 749 742 743 0 0 1 30 747 172 0 749 743 750 0
 +-.0333375 -.0015875 -.034925 1 0 0 16 749 170 751 ?752 349 746 747 0 0 1 30 75
0 177 0 349 747 352 0 +208166817117217e-31 -.0015875 -.0381 -1 0 -16811372268703
15e-31 16 349 175 753 ?42 344 749 750 0 0 1 30 352 182 0 344 750 345 0 +.041275
 -.0015875 693889390390723e-32 -455307998944044e-30 0 1 30 345 187 0 335 352 492
 0 +-1387778780781446e-32 -.0015875 .0381 -1 0 -1681137226870315e-31 81 1 753 13
25 33 349 0 0 613 618 754 17 42 0 193 40 330 11 346 349 0 341 +15 193 967 0 194
 16 0 17 330 0 193 42 194 329 26 10 0 347 -17 341 0 340 346 44 11 38 343 0 0 -17
 38 0 37 184 30 31 341 343 0 0 +16 343 190 633 ?38 455 335 492 0 0 1 81 1 633 13
31 33 343 0 0 620 601 755 81 1 601 1332 33 599 0 0 633 744 756 82 3 755 6 43 1 8
1 1 744 1333 33 742 0 0 601 609 757 82 3 756 6 44 1 81 1 609 1334 33 607 0 0 744
 751 758 82 3 757 6 45 1 81 1 751 1335 33 749 0 0 609 597 759 82 3 758 6 46 1 81
 1 597 1336 33 595 0 0 751 740 760 82 3 759 6 47 1 81 1 740 1337 33 738 0 0 597
 605 761 82 3 760 6 48 1 81 1 605 1338 33 603 0 0 740 748 762 82 3 761 6 49 1 81
 1 748 1339 33 746 0 0 605 585 763 82 3 762 6 50 1 81 1 585 1340 33 583 0 0 748
 729 764 82 3 763 6 51 1 81 1 729 1341 33 727 0 0 585 593 765 82 3 764 6 52 1 81
 1 593 1342 33 591 0 0 729 736 766 82 3 765 6 53 1 81 1 736 1343 33 734 0 0 593
 581 767 82 3 766 6 54 1 81 1 581 1344 33 579 0 0 736 725 768 82 3 767 6 55 1 81
 1 725 1345 33 723 0 0 581 589 769 82 3 768 6 56 1 81 1 589 1346 33 587 0 0 725
 733 770 82 3 769 6 57 1 81 1 733 1347 33 731 0 0 589 569 771 82 3 770 6 58 1 81
 1 569 1348 33 567 0 0 733 714 772 82 3 771 6 59 1 81 1 714 1349 33 712 0 0 569
 577 773 82 3 772 6 60 1 81 1 577 1350 33 575 0 0 714 721 774 82 3 773 6 61 1 81
 1 721 1351 33 719 0 0 577 565 775 82 3 774 6 62 1 81 1 565 1352 33 563 0 0 721
 710 776 82 3 775 6 63 1 81 1 710 1353 33 708 0 0 565 573 777 82 3 776 6 64 1 81
 1 573 1354 33 571 0 0 710 718 778 82 3 777 6 65 1 81 1 718 1355 33 716 0 0 573
 553 779 82 3 778 6 66 1 81 1 553 1356 33 551 0 0 718 699 780 82 3 779 6 67 1 81
 1 699 1357 33 697 0 0 553 561 781 82 3 780 6 68 1 81 1 561 1358 33 559 0 0 699
 706 782 82 3 781 6 69 1 81 1 706 1359 33 704 0 0 561 549 783 82 3 782 6 70 1 81
 1 549 1360 33 547 0 0 706 695 784 82 3 783 6 71 1 81 1 695 1361 33 693 0 0 549
 557 785 82 3 784 6 72 1 81 1 557 1362 33 555 0 0 695 703 786 82 3 785 6 73 1 81
 1 703 1363 33 701 0 0 557 537 787 82 3 786 6 74 1 81 1 537 1364 33 535 0 0 703
 684 788 82 3 787 6 75 1 81 1 684 1365 33 682 0 0 537 545 789 82 3 788 6 76 1 81
 1 545 1366 33 543 0 0 684 691 790 82 3 789 6 77 1 81 1 691 1367 33 689 0 0 545
 533 791 82 3 790 6 78 1 81 1 533 1368 33 531 0 0 691 680 792 82 3 791 6 79 1 81
 1 680 1369 33 678 0 0 533 541 793 82 3 792 6 80 1 81 1 541 1370 33 539 0 0 680
 688 794 82 3 793 6 81 1 81 1 688 1371 33 686 0 0 541 521 795 82 3 794 6 82 1 81
 1 521 1372 33 519 0 0 688 669 796 82 3 795 6 83 1 81 1 669 1373 33 667 0 0 521
 529 797 82 3 796 6 84 1 81 1 529 1374 33 527 0 0 669 676 798 82 3 797 6 85 1 81
 1 676 1375 33 674 0 0 529 517 799 82 3 798 6 86 1 81 1 517 1376 33 515 0 0 676
 665 800 82 3 799 6 87 1 81 1 665 1377 33 663 0 0 517 525 801 82 3 800 6 88 1 81
 1 525 1378 33 523 0 0 665 673 802 82 3 801 6 89 1 81 1 673 1379 33 671 0 0 525
 505 803 82 3 802 6 90 1 81 1 505 1380 33 503 0 0 673 654 804 82 3 803 6 91 1 81
 1 654 1381 33 652 0 0 505 513 805 82 3 804 6 92 1 81 1 513 1382 33 511 0 0 654
 661 806 82 3 805 6 93 1 81 1 661 1383 33 659 0 0 513 501 807 82 3 806 6 94 1 81
 1 501 1384 33 499 0 0 661 650 808 82 3 807 6 95 1 81 1 650 1385 33 648 0 0 501
 509 809 82 3 808 6 96 1 81 1 509 1386 33 507 0 0 650 658 810 82 3 809 6 97 1 81
 1 658 1387 33 656 0 0 509 485 811 82 3 810 6 98 1 81 1 485 1388 33 474 0 0 658
 639 812 82 3 811 6 99 1 81 1 639 1389 33 475 0 0 485 498 813 82 3 812 6 100 1 8
1 1 498 1390 33 496 0 0 639 489 814 82 3 813 6 101 1 81 1 489 1391 33 645 0 0 49
8 487 815 82 3 814 6 102 1 82 3 815 6 103 1 15 37 961 0 39 816 0 17 39 0 37 30 1
84 22 621 619 0 0 -14 255 816 962 817 ?348 818 37 5 819 +0 0 348 818 24 81 1 817
 1473 820 816 821 0 822 823 824 14 348 1 823 ?479 816 825 5 826 +0 0 479 816 24
 14 818 1026 822 ?816 827 828 5 829 +0 0 816 827 24 50 819 1033 0 816 830 831 0
 +-.041275 -.0015875 -693889390390723e-32 -1 0 -455307998944044e-30 -45530799894
4044e-30 0 1 13 24 377 0 0 0 0 0 0 9 16 14 16 968 832 ?353 0 193 5 833 +0 0 353
 0 24 81 1 832 1438 820 16 834 0 0 835 836 14 353 966 835 ?337 16 350 5 837 -0 0
 337 16 24 50 833 1036 0 16 837 838 0 +208166817117217e-31 -.0015875 -.0381 1681
137226870315e-31 0 -1 -1 0 -1681137226870315e-31 50 837 1035 0 353 831 833 0 +.0
41275 -.0015875 693889390390723e-32 -1 0 -455307998944044e-30 -455307998944044e-
30 0 1 50 838 1037 0 839 833 840 0 +-.0333375 -.0015875 -.034925 0 0 1 1 0 0 14
 839 970 841 ?842 843 844 5 838 +0 0 842 843 24 50 840 1038 0 845 838 846 0 +-.0
301625 -.0015875 -242861286636753e-31 1 0 496699635211684e-31 496699635211684e-3
1 0 -1 14 845 972 847 ?848 849 850 5 840 -0 0 848 849 24 50 846 1039 0 849 840 8
51 0 +-.0333375 -.0015875 .034925 0 0 1 1 0 0 14 849 974 852 ?845 853 854 5 846
 -0 0 845 853 24 50 851 1040 0 853 846 855 0 +-.0365125 -.0015875 -1734723475976
805e-32 1 0 993399270423368e-31 993399270423368e-31 0 -1 14 853 976 856 ?849 337
 857 5 851 +0 0 849 337 24 50 855 1041 0 842 851 858 0 +-.0238125 -.0015875 -.03
4925 0 0 1 1 0 0 14 842 978 859 ?860 839 861 5 855 +0 0 860 839 24 50 858 1042 0
 862 855 863 0 +-.0206375 -.0015875 -1040834085586084e-32 1 0 496699635211684e-3
1 496699635211684e-31 0 -1 14 862 980 864 ?865 866 867 5 858 -0 0 865 866 24 50
 863 1043 0 866 858 868 0 +-.0238125 -.0015875 .034925 0 0 1 1 0 0 14 866 982 86
9 ?862 848 870 5 863 -0 0 862 848 24 50 868 1044 0 848 863 871 0 +-.0269875 -.00
15875 -1387778780781446e-32 1 0 496699635211684e-31 496699635211684e-31 0 -1 14
 848 984 872 ?866 845 873 5 868 +0 0 866 845 24 50 871 1045 0 860 868 874 0 +-.0
142875 -.0015875 -.034925 0 0 1 1 0 0 14 860 986 875 ?876 842 877 5 871 +0 0 876
 842 24 50 874 1046 0 878 871 879 0 +-.0111125 -.0015875 -1387778780781446e-32 1
 0 496699635211684e-31 496699635211684e-31 0 -1 14 878 988 880 ?881 882 883 5 87
4 -0 0 881 882 24 50 879 1047 0 882 874 884 0 +-.0142875 -.0015875 .034925 0 0 1
 1 0 0 14 882 990 885 ?878 865 886 5 879 -0 0 878 865 24 50 884 1048 0 865 879 8
87 0 +-.0174625 -.0015875 -1040834085586084e-32 1 0 496699635211684e-31 49669963
5211684e-31 0 -1 14 865 992 888 ?882 862 889 5 884 +0 0 882 862 24 50 887 1049 0
 876 884 890 0 +-.0047625 -.0015875 -.034925 0 0 1 1 0 0 14 876 994 891 ?892 860
 893 5 887 +0 0 892 860 24 50 890 1050 0 894 887 895 0 +-.001587500000000035 -.0
015875 -1387778780781446e-32 1 0 589830816813875e-31 589830816813875e-31 0 -1 14
 894 996 896 ?897 898 899 5 890 -0 0 897 898 24 50 895 1051 0 898 890 900 0 +-.0
047625 -.0015875 .034925 0 0 1 1 0 0 14 898 998 901 ?894 881 902 5 895 -0 0 894
 881 24 50 900 1052 0 881 895 903 0 +-.0079375 -.0015875 -1387778780781446e-32 1
 0 496699635211684e-31 496699635211684e-31 0 -1 14 881 1000 904 ?898 878 905 5 9
00 +0 0 898 878 24 50 903 1053 0 892 900 906 0 +.0047625 -.0015875 -.034925 0 0
 1 1 0 0 14 892 1002 907 ?908 876 909 5 903 +0 0 908 876 24 50 906 1054 0 910 90
3 911 0 +.0079375 -.0015875 -1734723475976805e-32 1 0 496699635211684e-31 496699
635211684e-31 0 -1 14 910 1004 912 ?913 914 915 5 906 -0 0 913 914 24 50 911 105
5 0 914 906 916 0 +.0047625 -.0015875 .034925 0 0 1 1 0 0 14 914 1006 917 ?910 8
97 918 5 911 -0 0 910 897 24 50 916 1056 0 897 911 919 0 +.00158749999999997 -.0
015875 -242861286636753e-31 1 0 620874544014605e-31 620874544014605e-31 0 -1 14
 897 1008 920 ?914 894 921 5 916 +0 0 914 894 24 50 919 1057 0 908 916 922 0 +.0
238125 -.0015875 -.034925 0 0 1 1 0 0 14 908 1010 923 ?827 892 924 5 919 +0 0 82
7 892 24 50 922 1058 0 925 919 926 0 +.0269875 -.0015875 -1387778780781446e-32 1
 0 546369598732852e-30 546369598732853e-30 0 -1 14 925 1012 927 ?928 929 930 5 9
22 -0 0 928 929 24 50 926 1059 0 929 922 931 0 +.0238125 -.0015875 .034925 0 0 1
 1 0 0 14 929 1014 932 ?925 913 933 5 926 -0 0 925 913 24 50 931 1060 0 913 926
 934 0 +.0206375 -.0015875 -1387778780781446e-32 1 0 546369598732852e-30 5463695
98732853e-30 0 -1 14 913 1016 935 ?929 910 936 5 931 +0 0 929 910 24 50 934 1061
 0 827 931 937 0 +.0333375 -.0015875 -.034925 0 0 1 1 0 0 14 827 1018 938 ?818 9
08 939 5 934 +0 0 818 908 24 50 937 1062 0 940 934 941 0 +.0365125 -.0015875 -10
40834085586084e-32 1 0 596039562254021e-30 596039562254021e-30 0 -1 14 940 1020
 942 ?18 943 944 5 937 -0 0 18 943 24 50 941 1063 0 943 937 945 0 +.0333375 -.00
15875 .034925 0 0 1 1 0 0 14 943 1022 946 ?940 928 947 5 941 -0 0 940 928 24 50
 945 1064 0 928 941 829 0 +.0301625 -.0015875 -1387778780781446e-32 1 0 54636959
8732852e-30 546369598732853e-30 0 -1 14 928 1024 948 ?943 925 949 5 945 +0 0 943
 925 24 50 829 1065 0 818 945 950 0 +.0142875 -.0015875 -.034925 0 0 1 1 0 0 50
 950 1066 0 843 829 19 0 +.0174625 -.0015875 -1734723475976805e-32 1 0 546369598
732852e-30 546369598732853e-30 0 -1 14 843 1028 951 ?839 473 465 5 950 -0 0 839
 473 24 50 19 1067 0 473 950 6 0 +.0142875 -.0015875 .034925 0 0 1 1 0 0 14 473
 1030 952 ?843 18 471 5 19 -0 0 843 18 24 81 1 952 1463 820 473 953 0 954 951 95
5 14 18 1032 954 ?473 940 201 5 6 +0 0 473 940 24 81 1 954 1462 820 18 956 0 942
 952 957 80 1 820 0 958 8001 0 0 0 0 3 5 0 0 0 FFFFTFTFFFFFFFFF2 81 1 956 1432 3
3 18 0 954 959 960 961 81 1 942 1461 820 940 962 0 946 954 963 83 255 3 957 .498
039215686275 .498039215686275 .498039215686275 81 1 962 1429 33 940 0 942 964 95
3 965 81 1 946 1460 820 943 966 0 948 942 967 83 3 963 .498039215686275 .4980392
15686275 .498039215686275 81 1 966 1426 33 943 0 946 968 969 970 81 1 948 1459 8
20 928 964 0 927 946 971 83 3 967 .498039215686275 .498039215686275 .49803921568
6275 81 1 964 1428 33 928 0 948 969 962 972 81 1 927 1458 820 925 968 0 932 948
 973 83 3 971 .498039215686275 .498039215686275 .498039215686275 81 1 968 1425 3
3 925 0 927 974 966 975 81 1 932 1457 820 929 976 0 935 927 977 83 3 973 .498039
215686275 .498039215686275 .498039215686275 81 1 976 1422 33 929 0 932 978 979 9
80 81 1 935 1456 820 913 974 0 912 932 981 83 3 977 .498039215686275 .4980392156
86275 .498039215686275 81 1 974 1424 33 913 0 935 979 968 982 81 1 912 1455 820
 910 978 0 917 935 983 83 3 981 .498039215686275 .498039215686275 .4980392156862
75 81 1 978 1421 33 910 0 912 984 976 985 81 1 917 1454 820 914 986 0 920 912 98
7 83 3 983 .498039215686275 .498039215686275 .498039215686275 81 1 986 1418 33 9
14 0 917 988 989 990 81 1 920 1453 820 897 984 0 896 917 991 83 3 987 .498039215
686275 .498039215686275 .498039215686275 81 1 984 1420 33 897 0 920 989 978 992
 81 1 896 1452 820 894 988 0 901 920 993 83 3 991 .498039215686275 .498039215686
275 .498039215686275 81 1 988 1417 33 894 0 896 994 986 995 81 1 901 1451 820 89
8 996 0 904 896 997 83 3 993 .498039215686275 .498039215686275 .498039215686275
 81 1 996 1414 33 898 0 901 998 999 1000 81 1 904 1450 820 881 994 0 880 901 100
1 83 3 997 .498039215686275 .498039215686275 .498039215686275 81 1 994 1416 33 8
81 0 904 999 988 1002 81 1 880 1449 820 878 998 0 885 904 1003 83 3 1001 .498039
215686275 .498039215686275 .498039215686275 81 1 998 1413 33 878 0 880 1004 996
 1005 81 1 885 1448 820 882 1006 0 888 880 1007 83 3 1003 .498039215686275 .4980
39215686275 .498039215686275 81 1 1006 1410 33 882 0 885 1008 1009 1010 81 1 888
 1447 820 865 1004 0 864 885 1011 83 3 1007 .498039215686275 .498039215686275 .4
98039215686275 81 1 1004 1412 33 865 0 888 1009 998 1012 81 1 864 1446 820 862 1
008 0 869 888 1013 83 3 1011 .498039215686275 .498039215686275 .498039215686275
 81 1 1008 1409 33 862 0 864 1014 1006 1015 81 1 869 1445 820 866 1016 0 872 864
 1017 83 3 1013 .498039215686275 .498039215686275 .498039215686275 81 1 1016 140
6 33 866 0 869 1018 1019 1020 81 1 872 1444 820 848 1014 0 847 869 1021 83 3 101
7 .498039215686275 .498039215686275 .498039215686275 81 1 1014 1408 33 848 0 872
 1019 1008 1022 81 1 847 1443 820 845 1018 0 852 872 1023 83 3 1021 .49803921568
6275 .498039215686275 .498039215686275 81 1 1018 1405 33 845 0 847 1024 1016 102
5 81 1 852 1442 820 849 1026 0 856 847 1027 83 3 1023 .498039215686275 .49803921
5686275 .498039215686275 81 1 1026 1402 33 849 0 852 821 1028 1029 81 1 856 1441
 820 853 1024 0 1030 852 1031 83 3 1027 .498039215686275 .498039215686275 .49803
9215686275 81 1 1024 1404 33 853 0 856 1028 1018 1032 81 1 1030 1440 820 337 103
3 0 835 856 1034 83 3 1031 .498039215686275 .498039215686275 .498039215686275 14
 337 964 1030 ?853 353 333 5 831 -0 0 853 353 24 81 1 1033 1399 33 337 0 1030 10
35 1036 1037 81 1 835 1439 820 353 1036 0 832 1030 1038 83 3 1034 .4980392156862
75 .498039215686275 .498039215686275 81 1 1036 1400 33 353 0 835 1033 821 1039 8
3 3 1038 .498039215686275 .498039215686275 .498039215686275 81 1 821 1401 33 816
 0 817 1036 1026 1040 82 3 1039 6 4 2 82 3 1040 6 5 2 81 1 1035 1398 33 348 0 82
3 1041 1033 1042 82 3 1037 6 3 2 81 1 823 1474 820 348 1035 0 817 1043 1044 81 1
 1041 1397 33 479 0 1043 834 1035 1045 82 3 1042 6 2 2 14 479 516 1043 ?0 348 47
7 5 830 -0 0 0 348 24 81 1 1043 1475 820 479 1041 0 823 0 1046 81 1 834 1396 33
 16 0 832 644 1041 1047 82 3 1045 6 1 2 81 1 644 1395 33 640 0 0 495 834 1048 82
 3 1047 6 0 2 81 1 495 1394 33 484 0 0 490 644 1049 82 3 1048 6 107 1 82 3 1049
 6 106 1 83 3 1046 .498039215686275 .498039215686275 .498039215686275 50 830 852
 0 479 826 819 0 +0 0 0 0 -1 0 1 0 0 50 826 3 0 348 0 830 0 +0 -.0015875 0 0 -1
 0 1 0 0 83 3 1044 .498039215686275 .498039215686275 .498039215686275 50 831 103
4 0 337 819 837 0 +-1387778780781446e-32 -.0015875 .0381 1681137226870315e-31 0
 -1 -1 0 -1681137226870315e-31 81 1 1028 1403 33 839 0 841 1026 1024 1050 82 3 1
032 6 8 2 81 1 841 1465 820 839 1028 0 951 859 1051 82 3 1050 6 7 2 81 1 951 146
4 820 843 960 0 952 841 1052 81 1 859 1466 820 842 1019 0 841 875 1053 83 3 1051
 .498039215686275 .498039215686275 .498039215686275 81 1 1019 1407 33 842 0 859
 1016 1014 1054 81 1 875 1467 820 860 1009 0 859 891 1055 83 3 1053 .49803921568
6275 .498039215686275 .498039215686275 81 1 1009 1411 33 860 0 875 1006 1004 105
6 81 1 891 1468 820 876 999 0 875 907 1057 83 3 1055 .498039215686275 .498039215
686275 .498039215686275 81 1 999 1415 33 876 0 891 996 994 1058 81 1 907 1469 82
0 892 989 0 891 923 1059 83 3 1057 .498039215686275 .498039215686275 .4980392156
86275 81 1 989 1419 33 892 0 907 986 984 1060 81 1 923 1470 820 908 979 0 907 93
8 1061 83 3 1059 .498039215686275 .498039215686275 .498039215686275 81 1 979 142
3 33 908 0 923 976 974 1062 81 1 938 1471 820 827 969 0 923 822 1063 83 3 1061 .
498039215686275 .498039215686275 .498039215686275 81 1 969 1427 33 827 0 938 966
 964 1064 81 1 822 1472 820 818 959 0 938 817 1065 83 3 1063 .498039215686275 .4
98039215686275 .498039215686275 81 1 959 1431 33 818 0 822 953 956 1066 83 3 106
5 .498039215686275 .498039215686275 .498039215686275 81 1 953 1430 33 473 0 952
 962 959 1067 82 3 1066 6 35 2 82 3 1067 6 34 2 82 3 1064 6 31 2 82 3 1062 6 27
 2 82 3 1060 6 23 2 82 3 1058 6 19 2 82 3 1056 6 15 2 82 3 1054 6 11 2 81 1 960
 1433 33 843 0 951 956 1068 1069 83 3 1052 .498039215686275 .498039215686275 .49
8039215686275 81 1 1068 1434 33 1 0 1070 960 0 1071 82 3 1069 6 37 2 81 1 1070 1
435 1072 1 1068 13 0 0 1073 82 3 1071 6 0 3 80 1 1072 1074 1075 8038 0 0 0 0 0 0
 0 0 0 TTTTTTTTTTTTTFTF10 81 1 13 1436 1074 1 1070 2 0 0 1076 98 255 6 1073 80 9
7 114 116 32 49 80 1 1074 1077 1078 8017 0 0 0 0 0 0 0 0 0 TTTTTTTTTTTTTFTF3 84
 255 6 1076 Part 179 13 1078 SDL/TYSA_NAME79 14 1075 SDL/TYSA_UNAME82 3 1029 6 6
 2 82 3 1025 6 9 2 82 3 1022 6 12 2 82 3 1020 6 10 2 82 3 1015 6 13 2 82 3 1012
 6 16 2 82 3 1010 6 14 2 82 3 1005 6 17 2 82 3 1002 6 20 2 82 3 1000 6 18 2 82 3
 995 6 21 2 82 3 992 6 24 2 82 3 990 6 22 2 82 3 985 6 25 2 82 3 982 6 28 2 82 3
 980 6 26 2 82 3 975 6 29 2 82 3 972 6 32 2 82 3 970 6 30 2 82 3 965 6 33 2 82 3
 961 6 36 2 79 15 958 SDL/TYSA_COLOUR83 3 955 .498039215686275 .498039215686275
 .498039215686275 15 465 1027 0 466 843 0 17 466 0 465 1079 462 57 469 484 0 481
 +17 1079 0 465 467 466 207 60 458 0 647 -17 481 0 477 469 478 57 483 496 0 0 +1
7 483 0 828 216 60 61 481 496 0 0 -15 828 1025 0 483 818 0 17 216 0 828 647 483
 213 64 455 0 202 -17 60 0 828 483 647 57 1079 458 0 466 +17 647 0 828 60 216 20
7 638 645 0 0 +17 638 0 825 476 212 213 647 645 0 0 -15 825 6 0 476 348 1080 17
 476 0 825 206 638 190 202 622 0 0 -17 212 0 825 638 206 207 467 640 0 1079 +17
 206 0 825 212 476 198 204 475 0 468 +17 467 0 465 462 1079 198 212 640 0 0 -17
 468 0 471 204 56 198 462 460 0 467 -15 1080 7 0 1081 348 1082 17 1081 0 1080 65
5 1083 217 651 648 0 0 -15 1082 8 0 1084 348 1085 17 1084 0 1082 670 1086 233 66
6 663 0 0 -15 1085 9 0 1087 348 1088 17 1087 0 1085 685 1089 249 681 678 0 0 -15
 1088 10 0 1090 348 1091 17 1090 0 1088 700 1092 265 696 693 0 0 -15 1091 11 0 1
093 348 1094 17 1093 0 1091 715 1095 281 711 708 0 0 -15 1094 12 0 1096 348 1097
 17 1096 0 1094 730 1098 297 726 723 0 0 -15 1097 13 0 1099 348 340 17 1099 0 10
97 745 1100 313 741 738 0 0 -17 745 0 1097 324 1099 317 1101 742 0 1102 +17 1100
 0 1097 1099 324 325 752 749 0 0 -17 741 0 857 176 316 325 1099 738 0 1100 +15 8
57 975 0 1103 853 0 17 176 0 857 1103 741 173 328 364 0 598 +17 316 0 857 741 11
03 313 164 375 0 1101 -17 1103 0 857 316 176 161 598 595 0 0 -17 164 0 854 602 1
101 161 316 375 0 1104 +17 1101 0 854 164 1102 313 745 742 0 1099 -15 854 973 0
 602 849 0 17 1102 0 854 1101 602 317 374 371 0 0 -17 602 0 854 1102 164 165 110
4 599 0 0 +17 374 0 850 606 320 165 1102 371 0 602 +15 850 971 0 606 845 0 17 60
6 0 850 1105 374 169 168 603 0 610 +17 320 0 850 374 1105 317 324 746 0 745 -17
 1105 0 850 320 606 321 172 367 0 752 -17 324 0 1097 1100 745 321 320 746 0 1105
 +17 172 0 844 1106 752 169 1105 367 0 606 +17 752 0 844 172 328 321 1100 749 0
 0 +15 844 969 0 1106 839 0 17 328 0 844 752 1106 325 176 364 0 741 -17 1106 0 8
44 328 172 173 610 607 0 0 -17 610 0 1107 168 598 169 1106 607 0 0 +15 1107 562
 0 598 479 635 17 168 0 1107 1104 610 165 606 603 0 374 -17 598 0 1107 610 1104
 173 1103 595 0 1106 +17 1104 0 1107 598 168 161 602 599 0 1103 -15 635 563 0 19
5 479 0 17 195 0 635 621 354 22 194 611 0 39 +17 354 0 635 195 181 177 339 355 0
 194 -17 194 0 193 330 40 177 195 611 0 0 -17 181 0 635 354 621 180 189 616 0 33
4 -17 189 0 333 187 334 182 181 616 0 621 +17 730 0 1094 308 1096 301 1108 727 0
 1109 +17 1098 0 1094 1096 308 309 737 734 0 0 -17 726 0 873 160 300 309 1096 72
3 0 1098 +15 873 983 0 1110 848 0 17 160 0 873 1110 726 157 312 378 0 582 +17 30
0 0 873 726 1110 297 148 368 0 1108 -17 1110 0 873 300 160 145 582 579 0 0 -17 1
48 0 870 586 1108 145 300 368 0 1111 +17 1108 0 870 148 1109 297 730 727 0 1096
 -15 870 981 0 586 866 0 17 1109 0 870 1108 586 301 388 385 0 0 -17 586 0 870 11
09 148 149 1111 583 0 0 +17 388 0 867 590 304 149 1109 385 0 586 +15 867 979 0 5
90 862 0 17 590 0 867 1112 388 153 152 587 0 594 +17 304 0 867 388 1112 301 308
 731 0 730 -17 1112 0 867 304 590 305 156 381 0 737 -17 308 0 1094 1098 730 305
 304 731 0 1112 +17 156 0 861 1113 737 153 1112 381 0 590 +17 737 0 861 156 312
 305 1098 734 0 0 +15 861 977 0 1113 842 0 17 312 0 861 737 1113 309 160 378 0 7
26 -17 1113 0 861 312 156 157 594 591 0 0 -17 594 0 1114 152 582 153 1113 591 0
 0 +15 1114 561 0 582 479 1107 17 152 0 1114 1111 594 149 590 587 0 388 -17 582
 0 1114 594 1111 157 1110 579 0 1113 +17 1111 0 1114 582 152 145 586 583 0 1110
 -17 715 0 1091 292 1093 285 1115 712 0 1116 +17 1095 0 1091 1093 292 293 722 71
9 0 0 -17 711 0 889 144 284 293 1093 708 0 1095 +15 889 991 0 1117 865 0 17 144
 0 889 1117 711 141 296 391 0 566 +17 284 0 889 711 1117 281 132 382 0 1115 -17
 1117 0 889 284 144 129 566 563 0 0 -17 132 0 886 570 1115 129 284 382 0 1118 +1
7 1115 0 886 132 1116 281 715 712 0 1093 -15 886 989 0 570 882 0 17 1116 0 886 1
115 570 285 401 398 0 0 -17 570 0 886 1116 132 133 1118 567 0 0 +17 401 0 883 57
4 288 133 1116 398 0 570 +15 883 987 0 574 878 0 17 574 0 883 1119 401 137 136 5
71 0 578 +17 288 0 883 401 1119 285 292 716 0 715 -17 1119 0 883 288 574 289 140
 394 0 722 -17 292 0 1091 1095 715 289 288 716 0 1119 +17 140 0 877 1120 722 137
 1119 394 0 574 +17 722 0 877 140 296 289 1095 719 0 0 +15 877 985 0 1120 860 0
 17 296 0 877 722 1120 293 144 391 0 711 -17 1120 0 877 296 140 141 578 575 0 0
 -17 578 0 1121 136 566 137 1120 575 0 0 +15 1121 560 0 566 479 1114 17 136 0 11
21 1118 578 133 574 571 0 401 -17 566 0 1121 578 1118 141 1117 563 0 1120 +17 11
18 0 1121 566 136 129 570 567 0 1117 -17 700 0 1088 276 1090 269 1122 697 0 1123
 +17 1092 0 1088 1090 276 277 707 704 0 0 -17 696 0 905 128 268 277 1090 693 0 1
092 +15 905 999 0 1124 881 0 17 128 0 905 1124 696 125 280 404 0 550 +17 268 0 9
05 696 1124 265 116 395 0 1122 -17 1124 0 905 268 128 113 550 547 0 0 -17 116 0
 902 554 1122 113 268 395 0 1125 +17 1122 0 902 116 1123 265 700 697 0 1090 -15
 902 997 0 554 898 0 17 1123 0 902 1122 554 269 414 411 0 0 -17 554 0 902 1123 1
16 117 1125 551 0 0 +17 414 0 899 558 272 117 1123 411 0 554 +15 899 995 0 558 8
94 0 17 558 0 899 1126 414 121 120 555 0 562 +17 272 0 899 414 1126 269 276 701
 0 700 -17 1126 0 899 272 558 273 124 407 0 707 -17 276 0 1088 1092 700 273 272
 701 0 1126 +17 124 0 893 1127 707 121 1126 407 0 558 +17 707 0 893 124 280 273
 1092 704 0 0 +15 893 993 0 1127 876 0 17 280 0 893 707 1127 277 128 404 0 696 -
17 1127 0 893 280 124 125 562 559 0 0 -17 562 0 1128 120 550 121 1127 559 0 0 +1
5 1128 559 0 550 479 1121 17 120 0 1128 1125 562 117 558 555 0 414 -17 550 0 112
8 562 1125 125 1124 547 0 1127 +17 1125 0 1128 550 120 113 554 551 0 1124 -17 68
5 0 1085 260 1087 253 1129 682 0 1130 +17 1089 0 1085 1087 260 261 692 689 0 0 -
17 681 0 921 112 252 261 1087 678 0 1089 +15 921 1007 0 1131 897 0 17 112 0 921
 1131 681 109 264 417 0 534 +17 252 0 921 681 1131 249 100 408 0 1129 -17 1131 0
 921 252 112 97 534 531 0 0 -17 100 0 918 538 1129 97 252 408 0 1132 +17 1129 0
 918 100 1130 249 685 682 0 1087 -15 918 1005 0 538 914 0 17 1130 0 918 1129 538
 253 427 424 0 0 -17 538 0 918 1130 100 101 1132 535 0 0 +17 427 0 915 542 256 1
01 1130 424 0 538 +15 915 1003 0 542 910 0 17 542 0 915 1133 427 105 104 539 0 5
46 +17 256 0 915 427 1133 253 260 686 0 685 -17 1133 0 915 256 542 257 108 420 0
 692 -17 260 0 1085 1089 685 257 256 686 0 1133 +17 108 0 909 1134 692 105 1133
 420 0 542 +17 692 0 909 108 264 257 1089 689 0 0 +15 909 1001 0 1134 892 0 17 2
64 0 909 692 1134 261 112 417 0 681 -17 1134 0 909 264 108 109 546 543 0 0 -17 5
46 0 1135 104 534 105 1134 543 0 0 +15 1135 558 0 534 479 1128 17 104 0 1135 113
2 546 101 542 539 0 427 -17 534 0 1135 546 1132 109 1131 531 0 1134 +17 1132 0 1
135 534 104 97 538 535 0 1131 -17 670 0 1082 244 1084 237 1136 667 0 1137 +17 10
86 0 1082 1084 244 245 677 674 0 0 -17 666 0 936 96 236 245 1084 663 0 1086 +15
 936 1015 0 1138 913 0 17 96 0 936 1138 666 93 248 430 0 518 +17 236 0 936 666 1
138 233 84 421 0 1136 -17 1138 0 936 236 96 81 518 515 0 0 -17 84 0 933 522 1136
 81 236 421 0 1139 +17 1136 0 933 84 1137 233 670 667 0 1084 -15 933 1013 0 522
 929 0 17 1137 0 933 1136 522 237 440 437 0 0 -17 522 0 933 1137 84 85 1139 519
 0 0 +17 440 0 930 526 240 85 1137 437 0 522 +15 930 1011 0 526 925 0 17 526 0 9
30 1140 440 89 88 523 0 530 +17 240 0 930 440 1140 237 244 671 0 670 -17 1140 0
 930 240 526 241 92 433 0 677 -17 244 0 1082 1086 670 241 240 671 0 1140 +17 92
 0 924 1141 677 89 1140 433 0 526 +17 677 0 924 92 248 241 1086 674 0 0 +15 924
 1009 0 1141 908 0 17 248 0 924 677 1141 245 96 430 0 666 -17 1141 0 924 248 92
 93 530 527 0 0 -17 530 0 1142 88 518 89 1141 527 0 0 +15 1142 557 0 518 479 113
5 17 88 0 1142 1139 530 85 526 523 0 440 -17 518 0 1142 530 1139 93 1138 515 0 1
141 +17 1139 0 1142 518 88 81 522 519 0 1138 -17 655 0 1080 228 1081 221 1143 65
2 0 1144 +17 1083 0 1080 1081 228 229 662 659 0 0 -17 651 0 949 80 220 229 1081
 648 0 1083 +15 949 1023 0 1145 928 0 17 80 0 949 1145 651 77 232 443 0 502 +17
 220 0 949 651 1145 217 68 434 0 1143 -17 1145 0 949 220 80 65 502 499 0 0 -17 6
8 0 947 506 1143 65 220 434 0 1146 +17 1143 0 947 68 1144 217 655 652 0 1081 -15
 947 1021 0 506 943 0 17 1144 0 947 1143 506 221 452 449 0 0 -17 506 0 947 1144
 68 69 1146 503 0 0 +17 452 0 944 510 224 69 1144 449 0 506 +15 944 1019 0 510 9
40 0 17 510 0 944 1147 452 73 72 507 0 514 +17 224 0 944 452 1147 221 228 656 0
 655 -17 1147 0 944 224 510 225 76 446 0 662 -17 228 0 1080 1083 655 225 224 656
 0 1147 +17 76 0 939 1148 662 73 1147 446 0 510 +17 662 0 939 76 232 225 1083 65
9 0 0 +15 939 1017 0 1148 827 0 17 232 0 939 662 1148 229 80 443 0 651 -17 1148
 0 939 232 76 77 514 511 0 0 -17 514 0 480 72 502 73 1148 511 0 0 +15 480 556 0
 502 479 1142 17 72 0 480 1146 514 69 510 507 0 452 -17 502 0 480 514 1146 77 11
45 499 0 1148 +17 1146 0 480 502 72 65 506 503 0 1145 -83 3 836 .498039215686275
 .498039215686275 .498039215686275 83 3 824 .498039215686275 .498039215686275 .4
98039215686275 17 26 0 350 339 347 177 330 10 0 354 +81 1 613 1324 33 611 0 0 45
9 753 1149 81 1 618 1326 33 616 0 0 753 342 1150 82 3 754 6 37 1 81 1 342 1327 3
3 335 0 0 618 615 1151 82 3 1150 6 38 1 81 1 615 1328 33 355 0 0 342 351 1152 82
 3 1151 6 39 1 81 1 351 1329 33 344 0 0 615 620 1153 82 3 1152 6 40 1 82 3 1153
 6 41 1 81 1 459 1323 33 458 0 0 457 613 1154 82 3 1149 6 36 1 81 1 457 1322 33
 455 0 0 461 459 1155 82 3 1154 6 35 1 82 3 1155 6 34 1 82 3 637 6 105 1 82 3 63
4 6 42 1 82 3 491 6 104 1 81 1 448 1319 33 446 0 0 445 463 1156 82 3 470 6 32 1
 81 1 445 1318 33 443 0 0 451 448 1157 82 3 1156 6 31 1 81 1 451 1317 33 449 0 0
 454 445 1158 82 3 1157 6 30 1 81 1 454 1316 33 434 0 0 436 451 1159 82 3 1158 6
 29 1 81 1 436 1315 33 433 0 0 432 454 1160 82 3 1159 6 28 1 81 1 432 1314 33 43
0 0 0 439 436 1161 82 3 1160 6 27 1 81 1 439 1313 33 437 0 0 442 432 1162 82 3 1
161 6 26 1 81 1 442 1312 33 421 0 0 423 439 1163 82 3 1162 6 25 1 81 1 423 1311
 33 420 0 0 419 442 1164 82 3 1163 6 24 1 81 1 419 1310 33 417 0 0 426 423 1165
 82 3 1164 6 23 1 81 1 426 1309 33 424 0 0 429 419 1166 82 3 1165 6 22 1 81 1 42
9 1308 33 408 0 0 410 426 1167 82 3 1166 6 21 1 81 1 410 1307 33 407 0 0 406 429
 1168 82 3 1167 6 20 1 81 1 406 1306 33 404 0 0 413 410 1169 82 3 1168 6 19 1 81
 1 413 1305 33 411 0 0 416 406 1170 82 3 1169 6 18 1 81 1 416 1304 33 395 0 0 39
7 413 1171 82 3 1170 6 17 1 81 1 397 1303 33 394 0 0 393 416 1172 82 3 1171 6 16
 1 81 1 393 1302 33 391 0 0 400 397 1173 82 3 1172 6 15 1 81 1 400 1301 33 398 0
 0 403 393 1174 82 3 1173 6 14 1 81 1 403 1300 33 382 0 0 384 400 1175 82 3 1174
 6 13 1 81 1 384 1299 33 381 0 0 380 403 1176 82 3 1175 6 12 1 81 1 380 1298 33
 378 0 0 387 384 1177 82 3 1176 6 11 1 81 1 387 1297 33 385 0 0 390 380 1178 82
 3 1177 6 10 1 81 1 390 1296 33 368 0 0 370 387 1179 82 3 1178 6 9 1 81 1 370 12
95 33 367 0 0 366 390 1180 82 3 1179 6 8 1 81 1 366 1294 33 364 0 0 373 370 1181
 82 3 1180 6 7 1 81 1 373 1293 33 371 0 0 377 366 1182 82 3 1181 6 6 1 81 1 377
 1292 33 375 0 0 359 373 1183 82 3 1182 6 5 1 81 1 359 1291 33 188 0 0 356 377 1
184 82 3 1183 6 4 1 82 3 1184 6 3 1 82 3 464 6 33 1 82 3 360 6 2 1 81 1 35 1220
 33 180 0 0 29 185 1185 82 3 332 6 5 0 82 3 1185 6 4 0 81 1 191 1217 33 329 0 0
 179 34 1186 81 1 179 1216 33 177 0 0 0 191 1187 82 3 1186 6 1 0 82 3 1187 6 0 0
 81 1 327 1229 33 325 0 0 175 171 1188 81 1 175 1228 33 173 0 0 319 327 1189 81
 1 171 1230 33 169 0 0 327 323 1190 82 3 1188 6 13 0 81 1 323 1231 33 321 0 0 17
1 147 1191 82 3 1190 6 14 0 81 1 147 1232 33 145 0 0 323 299 1192 82 3 1191 6 15
 0 81 1 299 1233 33 297 0 0 147 151 1193 82 3 1192 6 16 0 81 1 151 1234 33 149 0
 0 299 303 1194 82 3 1193 6 17 0 81 1 303 1235 33 301 0 0 151 159 1195 82 3 1194
 6 18 0 81 1 159 1236 33 157 0 0 303 311 1196 82 3 1195 6 19 0 81 1 311 1237 33
 309 0 0 159 155 1197 82 3 1196 6 20 0 81 1 155 1238 33 153 0 0 311 307 1198 82
 3 1197 6 21 0 81 1 307 1239 33 305 0 0 155 131 1199 82 3 1198 6 22 0 81 1 131 1
240 33 129 0 0 307 283 1200 82 3 1199 6 23 0 81 1 283 1241 33 281 0 0 131 135 12
01 82 3 1200 6 24 0 81 1 135 1242 33 133 0 0 283 287 1202 82 3 1201 6 25 0 81 1
 287 1243 33 285 0 0 135 143 1203 82 3 1202 6 26 0 81 1 143 1244 33 141 0 0 287
 295 1204 82 3 1203 6 27 0 81 1 295 1245 33 293 0 0 143 139 1205 82 3 1204 6 28
 0 81 1 139 1246 33 137 0 0 295 291 1206 82 3 1205 6 29 0 81 1 291 1247 33 289 0
 0 139 115 1207 82 3 1206 6 30 0 81 1 115 1248 33 113 0 0 291 267 1208 82 3 1207
 6 31 0 81 1 267 1249 33 265 0 0 115 119 1209 82 3 1208 6 32 0 81 1 119 1250 33
 117 0 0 267 271 1210 82 3 1209 6 33 0 81 1 271 1251 33 269 0 0 119 127 1211 82
 3 1210 6 34 0 81 1 127 1252 33 125 0 0 271 279 1212 82 3 1211 6 35 0 81 1 279 1
253 33 277 0 0 127 123 1213 82 3 1212 6 36 0 81 1 123 1254 33 121 0 0 279 275 12
14 82 3 1213 6 37 0 81 1 275 1255 33 273 0 0 123 99 1215 82 3 1214 6 38 0 81 1 9
9 1256 33 97 0 0 275 251 1216 82 3 1215 6 39 0 81 1 251 1257 33 249 0 0 99 103 1
217 82 3 1216 6 40 0 81 1 103 1258 33 101 0 0 251 255 1218 82 3 1217 6 41 0 81 1
 255 1259 33 253 0 0 103 111 1219 82 3 1218 6 42 0 81 1 111 1260 33 109 0 0 255
 263 1220 82 3 1219 6 43 0 81 1 263 1261 33 261 0 0 111 107 1221 82 3 1220 6 44
 0 81 1 107 1262 33 105 0 0 263 259 1222 82 3 1221 6 45 0 81 1 259 1263 33 257 0
 0 107 83 1223 82 3 1222 6 46 0 81 1 83 1264 33 81 0 0 259 235 1224 82 3 1223 6
 47 0 81 1 235 1265 33 233 0 0 83 87 1225 82 3 1224 6 48 0 81 1 87 1266 33 85 0
 0 235 239 1226 82 3 1225 6 49 0 81 1 239 1267 33 237 0 0 87 95 1227 82 3 1226 6
 50 0 81 1 95 1268 33 93 0 0 239 247 1228 82 3 1227 6 51 0 81 1 247 1269 33 245
 0 0 95 91 1229 82 3 1228 6 52 0 81 1 91 1270 33 89 0 0 247 243 1230 82 3 1229 6
 53 0 81 1 243 1271 33 241 0 0 91 67 1231 82 3 1230 6 54 0 81 1 67 1272 33 65 0
 0 243 219 1232 82 3 1231 6 55 0 81 1 219 1273 33 217 0 0 67 71 1233 82 3 1232 6
 56 0 81 1 71 1274 33 69 0 0 219 223 1234 82 3 1233 6 57 0 81 1 223 1275 33 221
 0 0 71 79 1235 82 3 1234 6 58 0 81 1 79 1276 33 77 0 0 223 231 1236 82 3 1235 6
 59 0 81 1 231 1277 33 229 0 0 79 75 1237 82 3 1236 6 60 0 81 1 75 1278 33 73 0
 0 231 227 1238 82 3 1237 6 61 0 81 1 227 1279 33 225 0 0 75 51 1239 82 3 1238 6
 62 0 81 1 51 1280 33 49 0 0 227 196 1240 82 3 1239 6 63 0 82 3 1240 6 64 0 81 1
 319 1227 33 317 0 0 167 175 1241 82 3 1189 6 12 0 81 1 167 1226 33 165 0 0 315
 319 1242 82 3 1241 6 11 0 81 1 315 1225 33 313 0 0 163 167 1243 82 3 1242 6 10
 0 81 1 163 1224 33 161 0 0 43 315 1244 82 3 1243 6 9 0 81 1 43 1223 33 31 0 0 1
83 163 1245 82 3 1244 6 8 0 82 3 1245 6 7 0 82 3 200 6 65 0 82 3 192 6 2 0 82 3
 186 6 6 0 82 3 36 6 3 0 19 17 1106 0 1 0 9 5 0 S0 74 4 CI16 index_map_offset0 0
 1 dCCZ20 15 5 0 0 1068 1070 13 2 1043 0 0 0 0 0 0 0 0 0 0 0 0 0 0 0 80 1 12 820
 1246 8040 0 0 0 0 3 5 0 0 0 TTTFFFFFFFFFFFFF2 83 3 14 .498039215686275 .4980392
15686275 .498039215686275 79 17 1246 SDL/TYSA_COLOUR_21 0 
