**ABCDEFGHIJKLMNOPQRSTUVWXYZabcdefghijklmnopqrstuvwxyz**************************
**PARASOLID !"#$%&'()*+,-./:;<=>?@[\]^_`{|}~0123456789**************************
**PART1;
MC=unknown;
MC_MODEL=unknown;
MC_ID=unknown;
OS=unknown;
OS_RELEASE=unknown;
FRU=Parasolid 35.1.246;
APPL=Onshape;
SITE=unknown;
USER=unknown;
FORMAT=text;
GUISE=transmit;
KEY=BTGapi::writeModels_.xmt;
FILE=BTGapi::writeModels_.xmt;
DATE=2023-12-06T18:34:57 (UTC);
**PART2;
SCH=SCH_3501246_35102;
USFLD_SIZE=0;
**PART3;
**END_OF_HEADER*****************************************************************
T51 : TRANSMIT FILE created by modeller version 350124623 SCH_3501246_35102_1300
6231 0 12 36 CCCI7 lattice222 0 CCCI4 mesh1006 0 I8 polyline1008 0 CCCCCCCDI5 ow
ner1040 0 CCCI16 boundary_lattice222 0 CCCI13 boundary_mesh1006 0 I17 boundary_p
olyline1008 0 CCCA16 index_map_offset0 0 1 dA9 index_map82 0 A17 node_id_index_m
ap82 0 A20 schema_embedding_map82 0 A5 child12 0 A14 lowest_node_id0 0 1 dA16 me
sh_offset_data206 0 Z1 55 2 3 0 0 0 0 0 0 0 1e3 1e-8 0 4 0 1 0 1 2 5 0 6 7 0 0 0
 8 9 0 0 0 0 0 0 0 0 81 255 1 2 52 10 1 11 0 0 0 12 70 11 CI9 list_type0 0 1 uI1
0 notransmit0 0 1 lCCCDCCDI12 finger_index0 0 1 dI12 finger_block1012 0 CZ3 0 4
 T1 0 0 5 20 1 13 13 13 255 5 39 0 1 0 14 0 0 15 0 51 255 6 38 0 14 16 0 0 -0 17
10831578408855e-34 .00127 0 0 -1 .002794 -1 0 0 31 255 7 33 0 17 18 0 0 +0 17108
31578408855e-34 0 0 0 1 1 0 0 .002794 19 9 CCCCCCI5 frame230 0 CA5 owner12 0 Z8
 13 0 1 15 0 19 0 V0 16 255 9 7 20 ?21 0 17 18 0 0 1 81 1 20 45 22 9 0 0 23 24 2
5 17 255 21 0 26 21 21 0 27 9 0 0 +16 17 28 23 ?28 9 0 7 0 0 1 31 18 9 0 9 0 7 0
 +0 1710831578408855e-34 .00127 0 0 1 1 0 0 .002794 81 1 23 44 22 17 0 0 0 20 29
 17 28 0 30 28 28 0 31 17 0 0 +15 255 30 36 0 28 14 0 17 31 0 32 31 31 0 28 17 0
 0 -15 32 27 0 31 33 0 14 255 33 23 34 ?0 35 32 5 16 -0 0 0 35 19 81 1 34 55 36
 33 37 0 38 0 39 14 35 1 38 ?33 14 26 5 40 +0 0 33 14 19 50 255 16 32 0 33 40 6
 0 +0 0 0 0 0 1 1 0 0 13 19 14 0 0 0 0 0 0 8 14 14 14 35 41 ?35 0 42 5 6 -0 0 35
 0 19 81 1 41 53 36 14 24 0 0 38 43 15 42 34 0 27 14 30 17 27 0 42 27 27 0 21 9
 0 0 -80 7 CCCCCDI12 legal_owners0 16 1 lCZ1 36 0 44 8001 0 0 0 0 3 5 0 0 0 FFFF
TFTFFFFFFFFF2 81 1 24 46 22 14 0 41 20 37 45 81 1 38 54 36 35 46 0 41 34 47 83 2
55 3 43 .498039215686275 .498039215686275 .498039215686275 81 1 46 48 22 35 0 38
 37 48 49 83 3 47 .498039215686275 .498039215686275 .498039215686275 80 1 22 50
 51 9000 0 0 0 0 3 6 0 0 0 FFTFTFTTFFFFFFFF1 81 1 37 47 22 33 0 34 24 46 52 81 1
 48 49 22 1 0 53 46 0 54 82 255 3 49 6 2 2 81 1 53 50 55 1 48 11 0 0 56 82 3 54
 6 0 3 80 1 55 57 58 8038 0 0 0 0 0 0 0 0 0 TTTTTTTTTTTTTFTF10 81 1 11 51 57 1 5
3 2 0 0 59 98 255 6 56 80 97 114 116 32 49 80 1 57 60 61 8017 0 0 0 0 0 0 0 0 0
 TTTTTTTTTTTTTFTF3 84 255 6 59 Part 179 255 13 61 SDL/TYSA_NAME79 14 58 SDL/TYSA
_UNAME82 3 52 6 1 2 79 9 51 BTI/DetId82 3 45 6 0 2 79 15 44 SDL/TYSA_COLOUR50 40
 3 0 35 0 16 0 +0 0 .00127 0 0 1 1 0 0 15 26 6 0 21 35 0 83 3 39 .49803921568627
5 .498039215686275 .498039215686275 82 3 29 6 0 1 82 3 25 6 1 1 19 15 40 0 1 0 8
 5 0 S0 74 4 CI16 index_map_offset0 0 1 dCCZ20 13 5 0 0 48 53 11 2 34 0 0 0 0 0
 0 0 0 0 0 0 0 0 0 0 80 1 10 36 62 8040 0 0 0 0 3 5 0 0 0 TTTFFFFFFFFFFFFF2 83 3
 12 .498039215686275 .498039215686275 .498039215686275 79 17 62 SDL/TYSA_COLOUR_
21 0 
