**ABCDEFGHIJKLMNOPQRSTUVWXYZabcdefghijklmnopqrstuvwxyz**************************
**PARASOLID !"#$%&'()*+,-./:;<=>?@[\]^_`{|}~0123456789**************************
**PART1;
MC=unknown;
MC_MODEL=unknown;
MC_ID=unknown;
OS=unknown;
OS_RELEASE=unknown;
FRU=Parasolid 35.1.246;
APPL=Onshape;
SITE=unknown;
USER=unknown;
FORMAT=text;
GUISE=transmit;
KEY=BTGapi::writeModels_.xmt;
FILE=BTGapi::writeModels_.xmt;
DATE=2023-12-06T18:33:49 (UTC);
**PART2;
SCH=SCH_3501246_35102;
USFLD_SIZE=0;
**PART3;
**END_OF_HEADER*****************************************************************
T51 : TRANSMIT FILE created by modeller version 350124623 SCH_3501246_35102_1300
6231 0 12 36 CCCI7 lattice222 0 CCCI4 mesh1006 0 I8 polyline1008 0 CCCCCCCDI5 ow
ner1040 0 CCCI16 boundary_lattice222 0 CCCI13 boundary_mesh1006 0 I17 boundary_p
olyline1008 0 CCCA16 index_map_offset0 0 1 dA9 index_map82 0 A17 node_id_index_m
ap82 0 A20 schema_embedding_map82 0 A5 child12 0 A14 lowest_node_id0 0 1 dA16 me
sh_offset_data206 0 Z1 2301 2 3 0 0 0 0 0 0 0 1e3 1e-8 0 4 5 1 0 1 2 6 0 7 8 9 0
 0 10 11 12 0 0 0 0 0 0 0 81 255 1 2 2256 13 1 14 0 0 0 15 70 11 CI9 list_type0
 0 1 uI10 notransmit0 0 1 lCCCDCCDI12 finger_index0 0 1 dI12 finger_block1012 0
 CZ3 0 4 T1 0 0 5 20 1 16 16 13 255 6 229 0 1 0 17 0 0 18 0 53 255 7 2138 0 19 2
0 0 0 +-.02794 .00889 .00889 .00381 0 0 1 1 0 0 31 255 8 2142 0 21 22 0 0 +-.027
94 .00889 .00889 455307998944044e-30 -1 0 1 455307998944044e-30 0 .00381 29 255
 9 2033 0 12 23 0 -.03175 .00889 .00889 19 9 CCCCCCI5 frame230 0 CA5 owner12 0 Z
10 72 0 1 18 0 24 0 V0 16 255 11 2039 25 ?26 0 27 28 0 0 1 18 255 12 2030 29 26
 0 30 9 ?1 81 1 29 2197 31 12 0 0 32 33 34 17 255 26 0 35 36 37 12 38 11 0 39 +1
8 30 2016 40 41 12 42 23 ?1 81 1 40 2187 31 30 0 0 43 44 45 17 41 0 46 47 48 30
 49 50 0 38 +18 42 2007 51 52 30 53 54 ?1 29 23 2019 0 30 54 9 -.03175 -.00889 .
00889 29 54 2010 0 42 55 23 -.02794 -.0127 .00889 29 55 2001 0 53 56 54 -.02286
 -.0127 .00889 18 53 1998 57 58 42 59 55 ?1 29 56 1991 0 59 60 55 -.02794 -.0088
9 .0127 18 59 1989 44 61 53 62 56 ?1 29 60 1988 0 62 63 56 -.02794 .00889 .0127
 18 62 1985 33 64 59 65 60 ?1 29 63 1974 0 65 66 60 .03175 .00889 .00889 18 65 1
971 67 68 62 69 63 ?1 29 66 1965 0 69 70 63 .02794 .0127 .00889 18 69 1962 71 72
 65 73 66 ?1 29 70 1956 0 73 74 66 .02286 .0127 .00889 18 73 1953 32 75 69 76 70
 ?1 29 74 1946 0 76 77 70 .02794 .00889 .0127 18 76 1944 78 79 73 80 74 ?1 29 77
 1938 0 80 81 74 .03175 -.00889 .00889 18 80 1935 82 83 76 84 77 ?1 29 81 1929 0
 84 85 77 .02794 -.00889 .0127 18 84 1926 86 87 80 88 81 ?1 29 85 1357 0 88 89 8
1 -.01905 -.00889 .01651 18 88 1355 90 91 84 92 85 ?1 29 89 1354 0 92 93 85 -.01
905 .00889 .01651 18 92 1352 94 95 88 96 89 ?1 29 93 1321 0 96 97 89 .03175 .008
89 0 18 96 1318 98 99 92 100 93 ?1 29 97 1317 0 100 101 93 .03175 -.00889 0 18 1
00 1314 102 103 96 104 97 ?1 29 101 1303 0 104 105 97 -.03175 .00889 0 18 104 13
00 106 36 100 107 101 ?1 29 105 1299 0 107 108 101 -.03175 -.00889 0 18 107 1296
 109 110 104 111 105 ?1 29 108 1279 0 111 112 105 -.01839733774834435 .011022444
21799954 .079375 18 111 1277 113 114 107 115 108 ?1 29 112 1270 0 115 116 108 -.
01839733774834445 -.0110224442179994 .079375 18 115 1268 117 118 111 119 112 ?1
 29 116 1267 0 119 120 112 -.01905 .00889 .079375 18 119 1264 121 122 115 123 11
6 ?1 29 120 1263 0 123 124 116 -.01905 -.00889 .079375 18 123 1260 125 126 119 1
27 120 ?1 29 124 1249 0 127 128 120 -.0177065122421383 .00889 .079375 18 127 124
6 129 130 123 131 124 ?1 29 128 1245 0 131 132 124 -.0177065122421383 -.00889 .0
79375 18 131 1242 133 134 127 135 128 ?1 29 132 1241 0 135 136 128 6938893903907
23e-32 -.00889 .0666766934085993 18 135 1238 137 138 131 139 132 ?1 29 136 1237
 0 139 140 132 693889390390723e-32 .00889 .0666766934085993 18 139 1234 141 142
 135 143 136 ?1 29 140 1228 0 143 144 136 .01524 .0127 .01651 18 143 1226 145 14
6 139 147 140 ?1 29 144 1224 0 147 148 140 .01524 .0127 .0689168006913292 18 147
 1222 149 150 143 151 144 ?1 29 148 1218 0 151 152 144 -.02794 .0127 .00889 18 1
51 1216 153 154 147 155 148 ?1 29 152 1214 0 155 156 148 -.02286 .0127 .00889 18
 155 1212 157 158 151 159 152 ?1 29 156 1210 0 159 160 152 718283939271647e-32 .
0127 .0628664111546666 18 159 1208 161 162 155 163 156 ?1 29 160 1206 0 163 164
 156 -.01524 .0127 .0689168006913292 18 163 1204 165 166 159 167 160 ?1 29 164 1
203 0 167 168 160 -.01524 .0127 .01651 18 167 1201 169 170 163 171 164 ?1 29 168
 1200 0 171 172 164 -.02794 .0127 0 18 171 1197 173 174 167 175 168 ?1 29 172 11
96 0 175 176 168 .02794 .0127 0 18 175 1193 177 178 171 179 172 ?1 29 176 1180 0
 179 180 172 -.02286 .00889 .0127 18 179 1178 181 182 175 183 176 ?1 29 180 1177
 0 183 184 176 -.02286 -.00889 .0127 18 183 1175 185 186 179 187 180 ?1 29 184 1
160 0 187 188 180 .0183973377483444 -.01102244421799954 .079375 18 187 1158 189
 190 183 191 184 ?1 29 188 1151 0 191 192 184 .0183973377483444 .011022444217999
54 .079375 18 191 1149 193 194 187 195 188 ?1 29 192 1148 0 195 196 188 .0177065
1224213835 -.00889 .079375 18 195 1145 197 198 191 199 192 ?1 29 196 1144 0 199
 200 192 .0177065122421383 .00889 .079375 18 199 1141 201 202 195 203 196 ?1 29
 200 1132 0 203 204 196 .01905 .00889 .01651 18 203 1130 205 206 199 207 200 ?1
 29 204 1129 0 207 208 200 .01905 -.00889 .01651 18 207 1127 209 210 203 211 204
 ?1 29 208 1126 0 211 212 204 .01905 .00889 .079375 18 211 1123 213 214 207 215
 208 ?1 29 212 1122 0 215 216 208 .01905 -.00889 .079375 18 215 1119 217 218 211
 219 212 ?1 29 216 1106 0 219 220 212 .02286 -.00889 .0127 18 219 1104 221 222 2
15 223 216 ?1 29 220 1103 0 223 224 216 .02286 .00889 .0127 18 223 1101 225 226
 219 227 220 ?1 29 224 1085 0 227 228 220 .02794 -.0127 .00889 18 227 1083 43 22
9 223 230 224 ?1 29 228 1081 0 230 231 224 .02286 -.0127 .00889 18 230 1079 232
 233 227 234 228 ?1 29 231 1077 0 234 235 228 .01524 -.0127 .01651 18 234 1075 2
36 237 230 238 231 ?1 29 235 1073 0 238 239 231 .01524 -.0127 .0689168006913292
 18 238 1071 240 241 234 242 235 ?1 29 239 1069 0 242 243 235 710830049335809e-3
2 -.0127 .0628664111546666 18 242 1067 244 245 238 246 239 ?1 29 243 1065 0 246
 247 239 -.01524 -.0127 .01651 18 246 1063 248 249 242 250 243 ?1 29 247 1062 0
 250 251 243 -.01524 -.0127 .0689168006913292 18 250 1060 252 253 246 254 247 ?1
 29 251 1059 0 254 255 247 -.02794 -.0127 0 18 254 1056 256 257 250 258 251 ?1 2
9 255 1055 0 258 0 251 .02794 -.0127 0 18 258 1052 259 260 254 0 255 ?1 81 1 259
 1753 31 258 0 0 102 109 261 17 260 0 262 263 264 258 265 266 0 267 +15 255 262
 127 0 268 269 0 17 263 0 262 110 260 254 267 270 0 271 +17 264 0 262 260 99 100
 272 273 0 265 -17 265 0 274 275 276 100 260 266 0 0 -16 266 1327 277 ?260 278 2
79 280 0 0 1 17 267 0 281 282 257 258 263 270 0 276 -15 281 199 0 283 284 0 17 2
82 0 281 285 267 227 276 286 0 287 +17 257 0 281 267 52 254 288 289 0 263 +16 27
0 1053 290 ?263 273 291 292 0 0 1 17 276 0 274 265 229 258 282 286 0 0 -15 274 1
432 0 275 293 0 17 229 0 274 276 275 227 294 295 0 282 +16 286 1087 296 ?282 289
 297 298 0 0 1 81 1 296 1807 31 286 0 0 277 299 300 16 289 2008 301 ?257 302 286
 303 0 0 1 16 297 1084 304 ?285 286 305 306 0 0 1 30 255 298 1088 0 286 306 303
 0 -.02794 -.0127 .0127 0 0 -1 30 306 1086 0 297 307 298 0 +0 -.0127 .00889 -1 -
1092739197465704e-31 0 30 303 1092 0 289 298 308 0 +-.02794 -.0127 .0127 0 0 -1
 30 308 1107 0 302 303 309 0 -.02286 520417042793042e-32 .0127 0 1 0 16 302 1105
 310 ?222 311 289 308 0 0 1 30 309 1116 0 311 308 312 0 -971445146547012e-33 -.0
0889 .0127 -1 -1092739197465704e-31 0 16 311 1114 313 ?314 315 302 309 0 0 1 30
 312 1133 0 315 309 316 0 +.01905 1734723475976805e-33 .01651 0 1 0 16 315 1131
 317 ?206 318 311 312 0 0 1 30 316 1135 0 318 312 319 0 -.01905 .00889 .066675 0
 0 -1 16 318 1134 320 ?214 321 315 316 0 0 1 30 319 1138 0 321 316 322 0 +.01905
 -.00889 .0127 0 0 -1 16 321 1136 323 ?324 325 318 319 0 0 1 31 322 1152 0 325 3
19 326 0 +.01524 .00889 .079375 0 0 1 1 0 0 .00381 16 325 1150 327 ?194 328 321
 322 0 0 1 38 12 CCCCCCCCCCCA17 intersection_data204 0 Z326 1155 0 328 322 329 0
 +330 331 332 333 334 335 16 328 1153 336 ?202 337 325 326 0 0 1 38 329 1161 0 3
37 326 338 0 +330 339 340 341 342 343 50 255 330 837 0 344 0 345 346 +3469446951
953615e-33 0 .079375 0 0 1 1 0 0 54 255 331 1574 0 347 348 349 350 +-.0002539999
99999993 .00889 .085725 0 -1 0 .02286 .00381 0 0 -1 40 255 4 332 0 1 4 .00022586
69711756245 .350654557745681 ??.01905 .01173122538089566 .079375 .01822081878837
49 .0107513877788182 .079375 .0177672968337276 .0095483960448128 .079375 .017706
5122421383 .00889 .079375 41 3 CI8 term_use0 0 1 cCZ1 333 L?.01905 .011731225380
89566 .079375 41 1 334 L?.0177065122421383 .00889 .079375 204 2 17 INTERSECTION_
DATA17 Intersection data7 uv_type0 0 1 u6 values0 1 1 fT16 335 4 .01905 .0117312
2538089566 1.252998320985004 -2.299965127506815 .0182208187883749 .0107513877788
182 1.23973505362141 -2.63116180444349 .0177672968337276 .0095483960448128 1.232
01982431474 -2.96791345201512 .0177065122421383 .00889 1.230959417340774 -3.1415
92653589795 14 255 347 1415 351 ?352 353 354 6 331 +0 0 352 353 24 51 255 348 15
75 0 355 356 331 357 +.01524 .00889 .0127 0 0 -1 .00381 -1 0 0 54 349 1573 0 1 3
31 358 359 +.000254000000000004 -.00889 .085725 1092739197465704e-31 -1 0 .02286
 .00381 1 1092739197465704e-31 0 141 255 350 360 361 362 331 38 360 1596 0 363 3
64 365 0 +348 331 366 367 368 369 141 361 326 362 350 331 141 362 370 350 361 33
1 38 370 1594 0 371 365 372 0 -331 373 374 375 376 377 16 371 1472 378 ?379 380
 381 370 0 0 1 38 365 1595 0 381 360 370 0 +349 358 382 383 384 385 31 372 1593
 0 380 370 386 0 +-.01524 -.00889 .01651 0 0 1 1 0 0 .00381 54 373 1571 0 387 35
8 388 389 +.000254000000000004 .00889 .085725 0 -1 0 .02286 .00381 0 0 -1 40 6 3
74 0 1 6 .0002147764099775535 .3373740090076015 ??693889390390723e-32 .00889 .06
66766934085993 693889390390723e-32 .0101510515543828 .0664619282038821 693889390
390723e-32 .0112699285011879 .0658418601743443 693889390390723e-32 .012120545958
0521 .0648863679279694 693889390390723e-32 .0126070079806433 .0637030959100175 6
93889390390723e-32 .01269909994965016 .062949226753273 41 1 375 L?69388939039072
3e-32 .00889 .0666766934085993 41 2 376 TF718283939271647e-32 .0127 .06286641115
46666 693889390390723e-32 .01269909994965016 .062949226753273 204 28 377 4 .0133
3372842667 -3.141592653589795 6.26985157875292 -3.141592653589795 .0131850871715
547 -2.804245794953165 6.27000022000803 -2.804245794953165 .01277394751033014 -2
.46690536536892 6.27041135966926 -2.46690536536892 .0121882963035921 -2.12955784
6051445 6.27099701087599 -2.129557846051445 .01153345943403386 -1.79218870238329
5 6.27165184774555 -1.792188702383295 .01115173864380674 -1.59253306938753 6.272
03356853578 -1.59253306938753 .01111133974749876 -1.5707963267949 6.272073967432
09 -1.5707963267949 14 387 1411 390 ?353 391 392 6 373 +0 0 353 391 24 51 358 15
72 0 353 349 373 393 +-.01524 -.00889 .0127 0 0 -1 .00381 -1 0 0 51 388 1570 0 3
94 373 395 396 +-.01524 .00889 .066675 0 0 1 .00381 1 0 0 141 389 370 397 398 37
3 141 397 399 398 389 373 141 398 386 389 397 373 38 386 1592 0 400 372 401 0 -3
88 373 402 403 404 405 16 400 1464 406 ?407 408 380 386 0 0 1 31 401 1591 0 408
 386 409 0 --.02286 -.00889 .01651 1092739197465704e-31 -1 0 1 1092739197465704e
-31 0 .00381 40 6 402 0 1 6 .001365455609267072 .305343015670232 ??-.01858277796
02455 .01071809614312588 .0908335959152692 -.0189217221156166 .00987031742990711
 .0854119122243165 -.01820352024893455 .01128450365089614 .0782960126703077 -.01
793407683632075 .01158407683632074 .0770153319213928 -.01569311223917165 .012672
960388203 .0699846623175479 -.0152457768328045 .012699995620497 .068929987802628
2 41 1 403 L?-.0185827779602455 .01071809614312588 .0908335959152692 41 2 404 TF
-.01524 .0127 .0689168006913292 -.0152457768328045 .012699995620497 .06892998780
26282 204 28 405 4 2.64114851377431 .0241585959152692 4.447555967367375 -2.64114
8513774255 2.88136436323176 .01873691222431645 4.72871483018519 -2.8813643632317
6 2.461996891181165 .0116210126703077 5.09504099716399 -2.461996891181165 2.3561
94490192345 .01034033192139284 5.15898763329875 -2.356194490192345 1.69000556710
6805 .00330966231754787 5.49126179628995 -1.690005567106805 1.5723125564584 .002
254987802628185 5.53787229660856 -1.57231255645475 1.570796326794895 .0022418006
91329245 5.53844923353014 -1.5707963267949 16 408 1461 410 ?411 412 400 401 0 0
 1 31 409 1589 0 412 401 413 0 --.01524 .00889 .01651 0 0 -1 -1 0 0 .00381 16 41
2 1456 414 ?415 416 408 409 0 0 1 31 413 1588 0 416 409 417 0 --.02286 .00889 .0
1651 0 -1 0 0 0 -1 .00381 16 416 1452 418 ?419 420 412 413 0 0 1 31 417 1587 0 4
20 413 421 0 +-.02286 .00889 .00889 1 0 0 0 0 -1 .00381 16 420 1445 422 ?423 424
 416 417 0 0 1 31 421 1932 0 425 417 426 0 +.02794 -.00889 .00889 -1 -1092739197
465704e-31 0 1092739197465704e-31 -1 0 .00381 16 425 1930 427 ?428 295 429 421 0
 0 1 31 426 1941 0 295 421 430 0 -.02794 -.00889 .00889 0 0 1 1 0 0 .00381 16 29
5 1939 431 ?229 432 425 426 0 0 1 30 430 1947 0 432 426 433 0 +.02794 .00889 .01
27 0 1 0 16 432 1945 434 ?79 435 295 430 0 0 1 30 433 1950 0 435 430 436 0 +.028
6385 .00889 .0127 -1 0 0 16 435 1948 437 ?226 438 432 433 0 0 1 31 436 1959 0 43
8 433 439 0 -.02286 .00889 .00889 1 0 0 0 0 -1 .00381 16 438 1957 440 ?75 441 43
5 436 0 0 1 30 439 1968 0 441 436 442 0 -.03175 .0127 .00889 -1 0 0 16 441 1966
 443 ?72 444 438 439 0 0 1 31 442 1977 0 444 439 445 0 +.02794 .00889 .00889 0 0
 -1 -1 0 0 .00381 16 444 1975 446 ?68 447 441 442 0 0 1 30 445 1982 0 447 442 44
8 0 -.03175 -.00889 .00889 0 1 0 16 447 1980 449 ?83 450 444 445 0 0 1 30 448 19
92 0 450 445 451 0 --.02794 520417042793042e-32 .0127 0 1 0 16 450 1990 452 ?61
 453 447 448 0 0 1 30 451 1995 0 453 448 454 0 +971445146547012e-33 -.00889 .012
7 1 1092739197465704e-31 0 16 453 1993 455 ?186 456 450 451 0 0 1 31 454 2004 0
 456 451 457 0 +-.02286 -.00889 .00889 1 1092739197465704e-31 0 -109273919746570
4e-31 1 0 .00381 16 456 2002 458 ?58 459 453 454 0 0 1 30 457 2013 0 459 454 460
 0 -0 -.0127 .00889 1 1092739197465704e-31 0 16 459 2011 461 ?52 462 456 457 0 0
 1 31 460 2022 0 462 457 463 0 +-.02794 -.00889 .00889 0 0 -1 -1 0 0 .00381 16 4
62 2020 464 ?465 466 459 460 0 0 1 31 463 2027 0 466 460 467 0 +-.02794 .00889 .
00889 1 0 0 0 0 -1 .00381 16 466 2025 468 ?64 27 462 463 0 0 1 31 467 2036 0 27
 463 28 0 --.02794 .00889 .00889 0 0 1 1 0 0 .00381 16 27 2034 469 ?154 11 466 4
67 0 0 1 30 28 2041 0 11 467 470 0 +-.03175 1734723475976805e-33 .00889 0 1 0 31
 470 2096 0 471 28 472 0 +.02794 -.00889 .00889 0 -1 -455307998944044e-30 0 4553
07998944044e-30 -1 .00381 16 471 2081 473 ?87 474 21 470 0 0 1 31 472 2095 0 474
 470 475 0 +.02794 .00889 .00889 0 -1 0 0 0 -1 .00381 16 474 2077 476 ?477 478 4
71 472 0 0 1 31 475 2094 0 478 472 479 0 +.02794 .00889 .00889 1 0 0 0 0 -1 .003
81 16 478 2074 480 ?481 482 474 475 0 0 1 31 479 2144 0 483 475 22 0 +-.02794 -.
00889 .00889 -1 0 0 0 0 1 .00381 16 483 2129 484 ?48 50 0 479 0 0 1 31 22 2143 0
 50 479 8 0 +-.02794 -.00889 .00889 0 -1 0 0 0 -1 .00381 16 50 2128 485 ?41 21 4
83 22 0 0 1 81 1 485 2204 31 50 0 0 484 464 486 16 21 2122 487 ?488 471 50 8 0 0
 1 81 1 487 2215 31 21 0 0 440 469 489 17 488 0 490 38 491 12 492 21 0 0 +15 490
 2112 0 488 493 0 17 38 0 490 49 488 30 26 11 0 465 -17 491 0 490 488 49 62 61 4
50 0 0 -17 492 0 494 495 496 62 488 21 0 491 -15 494 2110 0 495 19 0 17 495 0 49
4 496 492 151 64 466 0 0 -17 496 0 494 492 495 12 154 27 0 488 -17 154 0 497 498
 39 151 496 27 0 499 +15 497 1396 0 39 500 0 17 498 0 497 501 154 171 499 502 0
 0 -17 39 0 497 154 501 12 36 503 0 496 -17 499 0 504 158 505 151 498 502 0 506
 +15 504 195 0 507 508 0 17 158 0 504 170 499 155 506 509 0 510 +17 505 0 504 49
9 178 171 511 512 0 498 +16 502 1220 513 ?499 514 509 515 0 0 1 17 506 0 516 64
 510 151 158 509 0 495 -15 516 1400 0 506 517 0 17 64 0 516 518 506 62 495 466 0
 519 +17 510 0 516 506 518 155 423 420 0 520 -16 509 1217 521 ?158 502 522 523 0
 0 1 81 1 521 1839 31 509 0 0 304 323 524 16 522 1213 525 ?520 509 526 527 0 0 1
 30 523 1219 0 509 527 515 0 --.01905 .0127 .00889 -1 0 0 31 527 1215 0 522 528
 523 0 --.02286 .0127 .01651 0 -1 0 0 0 -1 .00762 30 515 1221 0 502 523 529 0 --
.02794 .0127 .0127 0 0 -1 31 529 1225 0 514 515 530 0 +-.000253999999999993 .012
7 .085725 0 -1 0 0 0 -1 .02286 16 514 1223 531 ?150 532 502 529 0 0 1 30 530 122
9 0 532 529 533 0 +.01524 .0127 .0127 0 0 -1 16 532 1227 534 ?146 535 514 530 0
 0 1 30 533 1233 0 535 530 536 0 +.02794 .0127 .0127 0 0 -1 16 535 1963 537 ?178
 538 532 533 0 0 1 31 536 1252 0 538 533 539 0 +.000254000000000004 -.00889 .085
725 1092739197465704e-31 -1 0 1 1092739197465704e-31 0 .01905 16 538 1250 540 ?1
38 541 535 536 0 0 1 31 539 1257 0 541 536 542 0 -.000254000000000004 .00889 .08
5725 0 -1 0 0 0 -1 .01905 16 541 1255 543 ?130 544 538 539 0 0 1 31 542 1271 0 5
44 539 545 0 +-.01524 -.00889 .079375 0 0 1 1 0 0 .00381 16 544 1269 546 ?118 54
7 541 542 0 0 1 38 545 1274 0 547 542 548 0 +345 356 549 550 551 552 16 547 1272
 553 ?134 554 544 545 0 0 1 31 548 1280 0 554 545 399 0 +-.01524 .00889 .079375
 0 0 1 1 0 0 .00381 50 345 680 0 555 330 556 557 +3469446951953615e-33 0 .079375
 0 0 1 1 0 0 54 356 1576 0 352 558 348 559 +.000254000000000004 -.00889 .085725
 1092739197465704e-31 -1 0 .02286 .00381 1 1092739197465704e-31 0 40 4 549 0 1 4
 .0002258669711756275 .3506545577456805 ??-.01905 -.01173122538089566 .079375 -.
0182208187883749 -.01075138777881818 .079375 -.01776729683372755 -.0095483960448
128 .079375 -.0177065122421383 -.00889 .079375 41 1 550 L?-.01905 -.011731225380
89566 .079375 41 1 551 L?-.0177065122421383 -.00889 .079375 204 16 552 4 -.01905
 -.01173122538089566 3.459390659399685 2.29996512750681 -.0182208187883749 -.010
75138777881818 3.47265392676328 2.63116180444349 -.0177672968337276 -.0095483960
448128 3.48036915606995 2.96791345201512 -.0177065122421383 -.00889 3.4814295630
43915 -3.141592653589795 14 352 1417 560 ?355 347 561 6 356 +0 0 355 347 24 54 5
58 1577 0 562 563 356 0 +.02286 .00889 .01651 0 -1 0 .00762 .00381 0 0 -1 141 55
9 364 564 564 356 38 364 1597 0 565 566 360 0 +356 339 567 568 569 570 141 564 5
45 559 559 356 16 565 1487 571 ?572 363 573 364 0 0 1 31 566 1598 0 573 574 364
 0 +.01524 .00889 .01651 0 0 -1 -1 0 0 .00381 54 339 1581 0 575 576 577 578 +-.0
00253999999999988 -.00889 .085725 1092739197465704e-31 -1 0 .02286 .00381 1 1092
739197465704e-31 0 40 6 567 0 1 6 .0002147764099775535 .3373740090076015 ??69388
9390390723e-32 -.00889 .0666766934085993 776569418200671e-32 -.0101510515543828
 .0664619282038821 776569418200671e-32 -.01126992850118788 .0658418601743443 776
569418200671e-32 -.0121205459580521 .0648863679279694 776569418200671e-32 -.0126
0700798064328 .0637030959100175 776569418200671e-32 -.01269909994965014 .0629492
26753273 41 1 568 L?693889390390723e-32 -.00889 .0666766934085993 41 2 569 TF710
830049335809e-32 -.0127 .0628664111546666 776569418200671e-32 -.0126990999496501
4 .062949226753273 204 28 570 4 4.69905525195802 -3.141592653589795 4.7257227088
1136 -3.141592653589795 4.69920389321314 2.804245794953165 4.72557406755624 2.80
4245794953165 4.69961503287436 2.46690536536892 4.72516292789502 2.4669053653689
2 4.7002006840811 2.129557846051445 4.72457727668828 2.129557846051445 4.7008555
2095066 1.7921887023833 4.72392243981872 1.7921887023833 4.70123724174088 1.5925
3306938753 4.7235407190285 1.59253306938753 4.70127764063719 1.5707963267949 4.7
2350032013219 1.5707963267949 14 575 1423 579 ?562 580 581 6 339 +0 0 562 580 24
 51 576 1582 0 582 583 339 0 +.02286 1734723475976805e-33 .01651 0 1 0 .00381 0
 0 1 51 577 1580 0 584 339 563 585 +.01524 -.00889 .066675 0 0 1 .00381 1 0 0 14
1 578 574 586 587 339 38 574 1600 0 588 589 566 0 -339 577 590 591 592 593 141 5
86 329 587 578 339 141 587 364 578 586 339 16 588 1495 594 ?595 573 596 574 0 0
 1 31 589 1601 0 596 597 574 0 -.02286 .00889 .01651 0 -1 0 0 0 -1 .00381 40 5 5
90 0 1 5 .001604866238306005 .3935120218430605 ??.0152457768328045 -.01269999562
0497 .0689299878026282 .01773029787385705 -.01177349033281952 .0761599702200056
 .01793407683632075 -.01158407683632074 .0770153319213928 .01890103069615955 -.0
099449664647645 .0844268392399261 .0185827779602455 -.01071809614312584 .0908335
959152691 41 2 591 TF.01524 -.0127 .0689168006913292 .0152457768328045 -.0126999
95620497 .0689299878026282 41 1 592 L?.0185827779602455 -.01071809614312584 .090
8335959152691 204 24 593 4 5.45712505403414 1.570796326794895 4.71238898038469 .
00224180069132923 5.45770199095572 1.57231255645475 4.71390521004819 .0022549878
02628185 5.79438002751393 2.283156063905455 5.42474871749526 .00948497022000558
 5.83658665426553 2.356194490192345 5.49778714378214 .01034033192139284 6.215517
50860706 2.86103235283945 6.00262500642924 .0177518392399261 .264833013017309 2.
641148513774265 5.78274116736411 .0241585959152691 16 596 1499 598 ?599 588 600
 589 0 0 1 31 597 1602 0 600 601 589 0 +.01524 -.00889 .01651 0 0 -1 -1 0 0 .003
81 16 600 1505 602 ?603 596 604 597 0 0 1 31 601 1603 0 604 605 597 0 -.02286 -.
00889 .01651 1092739197465704e-31 -1 0 1 1092739197465704e-31 0 .00381 16 604 15
06 606 ?210 600 482 601 0 0 1 31 605 1605 0 482 607 601 0 -.02286 -.00889 .00889
 -1 0 0 0 0 1 .00381 16 482 1510 608 ?233 604 478 605 0 0 1 31 607 1375 0 429 60
9 605 0 --.02286 -.0127 .01651 1092739197465704e-31 -1 0 1 1092739197465704e-31
 0 .00762 16 429 1370 610 ?283 425 611 607 0 0 1 31 609 1374 0 611 612 607 0 +.0
2286 .0127 .01651 0 -1 0 0 0 -1 .00762 16 611 1366 613 ?507 429 614 609 0 0 1 30
 612 1363 0 614 615 609 0 +-.01905 .00889 .0127 0 0 -1 16 614 1361 616 ?95 611 6
17 612 0 0 1 30 615 1360 0 617 618 612 0 --.01905 -.00889 .066675 0 0 -1 16 617
 1359 619 ?126 614 620 615 0 0 1 30 618 1358 0 620 621 615 0 --.01905 -.0127 .01
651 0 1 0 16 620 1356 622 ?91 617 623 618 0 0 1 30 621 1349 0 623 624 618 0 -.03
175 .00889 .0127 0 0 -1 16 623 1347 625 ?626 620 627 621 0 0 1 30 624 1344 0 627
 628 621 0 +.03175 -.00889 0 0 0 -1 16 627 1936 629 ?103 623 630 624 0 0 1 31 62
8 1339 0 630 631 624 0 --.02794 .00889 0 0 0 1 1 0 0 .00381 16 630 1337 632 ?174
 627 278 628 0 0 1 31 631 1334 0 278 280 628 0 -.02794 .00889 0 0 0 1 1 0 0 .003
81 16 278 1332 633 ?99 630 266 631 0 0 1 31 280 1329 0 266 634 631 0 -.02794 -.0
0889 0 0 0 1 1 0 0 .00381 31 634 1324 0 279 635 280 0 --.02794 -.00889 0 0 0 1 1
 0 0 .00381 16 279 1322 299 ?110 266 503 634 0 0 1 30 635 1311 0 503 636 634 0 +
-.03175 .00889 0 0 0 -1 16 503 2031 637 ?36 279 638 635 0 0 1 30 636 1306 0 638
 639 635 0 --.03175 -.00889 .0127 0 0 -1 16 638 1304 640 ?37 503 641 636 0 0 1 3
1 639 1293 0 641 642 636 0 --.000253999999999993 .00889 .085725 0 -1 0 0 0 -1 .0
1905 16 641 1291 643 ?142 638 644 639 0 0 1 31 642 1288 0 644 399 639 0 +-.00025
3999999999988 -.00889 .085725 1092739197465704e-31 -1 0 1 1092739197465704e-31 0
 .01905 16 644 1286 645 ?198 641 646 642 0 0 1 38 399 1283 0 646 548 642 0 +345
 373 647 648 649 650 16 646 1281 651 ?114 644 554 399 0 0 1 40 4 647 0 1 4 .0002
09169952560963 .341011532472954 ??-.0177065122421383 .00889 .079375 -.0179156821
9469925 .0101002650731895 .079375 -.01851068692974005 .01117332670518144 .079375
 -.01905 .01173122538089566 .079375 41 1 648 L?-.0177065122421383 .00889 .079375
 41 1 649 L?-.01905 .01173122538089566 .079375 204 16 650 4 -.0177065122421383 .
00889 5.05222588983881 -3.141592653589795 -.01791568219469925 .0101002650731895
 5.04860338963033 -2.81833741648348 -.01851068692974005 .01117332670518144 5.038
69401439019 -2.49896832186129 -.01905 .01173122538089566 5.03018698619458 -2.299
96512750681 81 1 651 1864 31 646 0 0 543 652 653 17 114 0 654 122 655 111 656 64
6 0 657 +16 554 1278 658 ?122 646 547 548 0 0 1 81 1 658 1856 31 554 0 0 406 659
 660 17 122 0 654 661 114 119 657 554 0 662 +15 654 668 0 655 555 0 17 661 0 654
 118 122 123 662 663 0 664 -17 657 0 665 666 667 111 122 554 0 407 -17 662 0 668
 95 126 119 661 663 0 667 +15 668 1353 0 662 669 0 17 95 0 668 91 662 92 667 614
 0 415 +17 126 0 668 662 91 123 670 617 0 661 +16 663 1261 671 ?662 672 673 674
 0 0 1 17 667 0 665 657 415 119 95 614 0 0 -15 665 1408 0 667 394 0 17 415 0 665
 667 675 92 676 412 0 677 +17 675 0 665 415 666 167 166 678 0 0 -17 676 0 679 52
0 677 167 415 412 0 675 -17 677 0 679 676 423 92 419 416 0 680 -15 679 1402 0 52
0 681 0 17 423 0 679 677 520 179 510 420 0 419 +17 419 0 682 683 680 179 677 416
 0 0 +17 680 0 682 419 684 92 91 620 0 0 -15 682 1406 0 419 685 0 17 684 0 682 6
80 683 88 411 408 0 686 -17 91 0 668 126 95 88 680 620 0 684 +17 683 0 682 684 4
19 183 182 687 0 411 -17 411 0 688 58 686 183 684 408 0 689 +17 686 0 688 411 69
0 88 691 380 0 670 -15 688 1410 0 411 391 0 17 690 0 688 686 58 246 283 429 0 69
1 -17 691 0 692 693 670 246 686 380 0 0 +16 380 1467 694 ?691 400 371 372 0 0 1
 17 670 0 692 691 664 88 126 617 0 0 -15 692 1414 0 691 353 0 17 664 0 692 670 6
95 123 118 544 0 0 -17 695 0 692 664 693 115 696 381 0 697 -17 118 0 654 134 661
 115 664 544 0 695 +17 134 0 654 655 118 131 697 547 0 698 +17 655 0 654 114 134
 127 698 699 0 656 +17 697 0 561 696 700 115 134 547 0 0 -17 698 0 701 138 130 1
31 655 699 0 700 -15 701 974 0 702 703 0 17 138 0 701 702 698 135 700 538 0 704
 +17 130 0 701 698 702 127 705 541 0 655 +16 699 1243 706 ?655 707 708 709 0 0 1
 17 700 0 561 697 710 131 138 538 0 0 -15 561 1418 0 696 352 0 17 710 0 561 700
 711 135 572 565 0 712 -17 711 0 561 710 696 242 253 713 0 572 -17 572 0 581 714
 712 242 710 565 0 0 +17 712 0 581 572 715 135 198 644 0 0 -15 581 1424 0 572 57
5 0 17 715 0 581 712 716 195 190 337 0 0 -17 198 0 717 718 704 195 712 644 0 719
 +15 717 976 0 718 720 0 17 718 0 717 142 198 199 719 708 0 721 -17 704 0 717 19
8 142 135 702 424 0 710 +17 719 0 722 190 202 195 718 708 0 715 +15 722 825 0 19
0 344 0 17 190 0 722 218 719 187 715 337 0 716 +17 202 0 722 719 194 199 723 328
 0 718 +16 708 1142 724 ?719 699 725 726 0 0 1 81 1 724 1881 31 708 0 0 706 727
 728 16 725 26 729 ?730 708 731 732 0 0 1 30 726 952 0 708 733 709 0 +.017706512
2421383 230445371942159e-32 .079375 2731847993664265e-31 -1 0 30 733 177 0 734 7
35 726 0 +-.03175 1734723475976805e-33 0 0 1 0 30 709 956 0 699 726 736 0 +-.017
7065122421383 867361737988404e-33 .079375 0 1 0 30 736 994 0 424 709 737 0 -6938
89390390723e-32 1734723475976805e-33 .0666766934085993 0 1 0 16 424 1235 727 ?70
4 673 420 736 0 0 1 30 737 1066 0 707 736 738 0 +-.01524 -.0127 .0127 0 0 -1 16
 707 1064 739 ?249 713 699 737 0 0 1 31 738 1070 0 713 737 740 0 -.0002540000000
000045 -.0127 .085725 1092739197465704e-31 -1 0 1 1092739197465704e-31 0 .02286
 16 713 1068 741 ?253 742 707 738 0 0 1 31 740 1074 0 742 738 743 0 --.000253999
9999999875 -.0127 .085725 1092739197465704e-31 -1 0 1 1092739197465704e-31 0 .02
286 16 742 1072 744 ?245 745 713 740 0 0 1 30 743 1078 0 745 740 307 0 -.01524 -
.0127 .079375 0 0 -1 16 745 1076 746 ?241 305 742 743 0 0 1 31 307 1082 0 305 74
3 306 0 +.02286 -.0127 .01651 1092739197465704e-31 -1 0 1 1092739197465704e-31 0
 .00762 16 305 1080 747 ?748 297 745 307 0 0 1 81 1 747 1825 31 305 0 0 602 418
 749 17 748 0 750 751 603 230 237 305 0 285 +15 750 1434 0 603 752 0 17 751 0 75
0 210 748 219 233 482 0 0 -17 603 0 750 748 210 234 753 600 0 0 +17 237 0 281 24
1 285 234 748 305 0 754 -17 285 0 281 237 282 230 287 297 0 0 +17 287 0 755 428
 233 227 285 297 0 756 -15 755 1436 0 287 757 0 17 428 0 755 758 287 84 756 425
 0 314 +17 233 0 755 287 758 230 751 482 0 748 +17 756 0 759 294 87 227 428 425
 0 0 -15 759 2068 0 756 760 0 17 294 0 759 87 756 80 229 295 0 761 -17 87 0 759
 756 294 84 761 471 0 762 +17 761 0 763 764 762 80 87 471 0 0 -17 762 0 763 761
 477 84 79 432 0 428 -15 763 2066 0 477 765 0 17 477 0 763 762 764 76 766 474 0
 0 +17 79 0 767 226 314 76 762 432 0 768 +15 767 347 0 79 769 770 17 226 0 767 2
22 79 223 768 435 0 771 +17 314 0 767 79 222 84 758 311 0 0 +17 768 0 772 773 77
4 76 226 435 0 481 -15 772 2062 0 773 775 0 17 773 0 772 776 768 69 481 478 0 77
7 -17 774 0 772 768 776 223 75 438 0 0 -17 481 0 778 766 777 76 773 478 0 477 +1
5 778 2064 0 777 779 0 17 766 0 778 777 481 65 477 474 0 764 -17 777 0 778 481 7
66 69 68 444 0 0 -17 68 0 780 781 782 65 777 444 0 626 +15 780 1422 0 782 580 0
 17 781 0 780 783 68 96 626 623 0 0 -17 782 0 780 68 783 69 178 535 0 773 -17 62
6 0 784 83 272 65 781 623 0 766 +15 784 197 0 626 785 0 17 83 0 784 103 626 80 7
64 447 0 275 +17 272 0 784 626 103 96 264 273 0 781 +17 103 0 784 272 83 100 275
 627 0 264 +16 273 1315 786 ?272 512 270 787 0 0 1 81 1 786 1874 31 273 0 0 788
 789 790 16 512 1194 788 ?505 734 273 735 0 0 1 30 787 179 0 273 292 735 0 +.031
75 867361737988404e-32 0 0 1 0 30 292 180 0 270 791 787 0 +0 -.0127 0 -1 -109273
9197465704e-31 0 30 735 178 0 512 787 733 0 +0 .0127 0 -1 0 0 31 791 181 0 291 7
92 292 0 +-.0254 .0041275 0 0 0 1 1 0 0 .0022225 16 291 144 793 ?794 270 795 791
 0 0 1 31 792 182 0 795 796 791 0 +-.0254 -.0041275 0 0 0 1 1 0 0 .0022225 16 79
5 148 797 ?798 291 799 792 0 0 1 31 796 183 0 799 800 792 0 +.0254 .0041275 0 0
 0 1 1 0 0 .0022225 16 799 152 801 ?802 795 672 796 0 0 1 31 800 184 0 672 732 7
96 0 +.0254 -.0041275 0 0 0 1 1 0 0 .0022225 16 672 156 803 ?804 799 663 800 0 0
 1 31 732 28 0 725 805 800 0 +-.0254 .0041275 .0127 0 0 1 1 0 0 .0022225 31 805
 23 0 731 806 732 0 +-.0254 -.0041275 .0127 0 0 1 1 0 0 .0022225 16 731 21 807 ?
808 725 809 805 0 0 1 31 806 18 0 809 810 805 0 +.0254 .0041275 .0127 0 0 1 1 0
 0 .0022225 16 809 16 811 ?812 731 813 806 0 0 1 31 810 13 0 813 674 806 0 +.025
4 -.0041275 .0127 0 0 1 1 0 0 .0022225 16 813 11 814 ?815 809 734 810 0 0 1 30 6
74 692 0 663 816 810 0 +-.01905 -1734723475976805e-33 .079375 0 1 0 30 816 846 0
 673 0 674 0 +.01905 1734723475976805e-33 .079375 0 1 0 16 673 1120 817 ?818 663
 424 816 0 0 1 81 1 817 1879 31 673 0 0 671 706 819 17 818 0 722 194 218 211 820
 673 0 821 +17 194 0 722 202 818 191 821 325 0 723 +17 218 0 722 818 190 215 822
 823 0 820 +17 820 0 824 324 214 215 818 673 0 825 -17 821 0 826 827 828 211 194
 325 0 0 -15 826 1420 0 821 355 0 17 827 0 826 829 821 203 214 318 0 830 -17 828
 0 826 821 831 191 832 363 0 0 +17 831 0 826 828 829 147 146 532 0 0 -17 832 0 3
54 833 723 147 828 363 0 831 -16 363 1480 834 ?828 381 565 360 0 0 1 81 1 834 18
52 31 363 0 0 320 327 835 16 381 1475 836 ?696 371 363 365 0 0 1 81 1 836 1848 3
1 381 0 0 619 546 837 17 696 0 561 711 697 250 695 381 0 0 +80 7 CCCCCDI12 legal
_owners0 16 1 lCZ1 31 838 839 9000 0 0 0 0 3 6 0 0 0 FFTFTFTTFFFFFFFF1 81 1 619
 1847 31 617 0 0 694 836 840 81 1 546 1849 31 544 0 0 836 841 842 82 255 3 837 1
6 44 1 81 1 841 1850 31 573 0 0 546 320 843 82 3 842 16 45 1 16 573 1490 841 ?83
0 565 588 566 0 0 1 81 1 320 1851 31 318 0 0 841 834 844 82 3 843 16 46 1 82 3 8
44 16 47 1 17 830 0 845 771 846 203 829 573 0 599 +15 845 1426 0 771 562 0 17 77
1 0 845 75 830 223 599 596 0 847 -17 846 0 845 830 75 143 507 611 0 0 -17 829 0
 826 831 827 143 830 573 0 846 -17 599 0 848 849 847 203 771 596 0 0 +15 848 143
0 0 599 582 0 17 849 0 848 850 599 207 206 315 0 324 -17 847 0 848 599 850 223 2
22 302 0 774 -17 850 0 848 847 849 219 210 604 0 758 -17 222 0 767 314 226 219 8
47 302 0 850 +17 210 0 750 603 751 207 850 604 0 753 +17 758 0 755 233 428 219 3
14 311 0 751 -17 753 0 851 825 754 207 603 600 0 849 -15 851 1428 0 595 584 0 17
 825 0 851 822 753 215 324 321 0 0 -17 754 0 851 753 595 234 241 745 0 603 -17 5
95 0 851 754 822 238 716 588 0 0 +17 241 0 281 245 237 238 754 745 0 714 +17 245
 0 281 253 241 242 714 742 0 711 +17 714 0 581 716 572 238 245 742 0 595 -17 716
 0 581 715 714 187 595 588 0 822 -17 822 0 851 595 825 187 218 823 0 0 -16 823 1
162 852 ?218 687 337 338 0 0 1 81 1 852 1844 31 823 0 0 594 746 853 16 687 1179
 854 ?182 855 823 856 0 0 1 16 337 1159 857 ?190 823 328 329 0 0 1 31 338 1164 0
 823 329 856 0 +.01524 -.00889 .079375 0 0 1 1 0 0 .00381 30 856 1181 0 687 338
 858 0 +-.02286 .0127 .0127 0 1 0 30 858 1190 0 855 856 859 0 +-.03175 .00889 .0
127 -1 0 0 16 855 1188 860 ?519 678 687 858 0 0 1 30 859 1207 0 678 858 528 0 --
.01524 .0127 .079375 0 0 -1 16 678 1205 659 ?166 526 855 859 0 0 1 31 528 1211 0
 526 859 527 0 +.000254000000000004 .0127 .085725 0 -1 0 0 0 -1 .02286 16 526 12
09 652 ?162 522 678 528 0 0 1 81 1 652 1865 31 526 0 0 651 645 861 17 162 0 504
 150 166 159 862 526 0 863 +17 150 0 504 146 162 147 833 514 0 832 +17 166 0 504
 162 170 163 675 678 0 666 +17 862 0 392 407 863 163 162 526 0 0 -17 863 0 392 8
62 705 159 379 371 0 833 -15 392 1412 0 656 387 0 17 705 0 392 863 656 139 130 5
41 0 379 -17 379 0 354 721 833 139 863 371 0 0 +17 833 0 354 379 832 159 150 514
 0 0 -15 354 1416 0 721 347 0 17 721 0 354 723 379 199 142 641 0 0 -17 723 0 354
 832 721 191 202 328 0 828 -17 142 0 717 704 718 139 721 641 0 702 +17 702 0 701
 130 138 139 704 424 0 705 -17 656 0 392 705 407 127 114 646 0 0 -17 407 0 392 6
56 862 111 666 400 0 0 +17 666 0 665 675 657 163 407 400 0 862 -17 170 0 504 166
 158 167 520 522 0 676 -17 520 0 679 423 676 155 170 522 0 0 +17 146 0 504 507 1
50 143 831 532 0 829 +17 507 0 504 72 146 73 846 611 0 776 +17 72 0 504 178 507
 69 776 441 0 782 +17 776 0 772 774 773 73 72 441 0 0 -17 178 0 504 505 72 175 7
82 535 0 511 +17 511 0 262 99 174 175 505 512 0 783 -17 99 0 262 264 511 96 783
 278 0 272 +17 174 0 262 511 268 171 501 630 0 505 +17 783 0 780 782 781 175 99
 278 0 0 -17 268 0 262 174 110 104 864 734 0 501 +17 501 0 497 39 498 104 174 63
0 0 0 -17 110 0 262 268 263 107 271 279 0 864 +17 864 0 35 37 36 107 268 734 0 8
65 -16 734 1297 789 ?268 813 512 733 0 0 1 81 1 789 1876 31 734 0 0 786 671 866
 81 1 671 1878 31 663 0 0 789 817 867 82 3 866 16 72 1 82 3 867 16 74 1 15 35 19
3 0 37 868 0 17 37 0 35 26 864 30 865 638 0 0 +17 36 0 35 864 26 104 39 503 0 26
8 +17 865 0 869 271 465 107 37 638 0 0 -15 869 1404 0 288 870 0 17 271 0 869 288
 865 254 110 279 0 0 -17 465 0 869 865 288 30 47 462 0 37 +17 288 0 869 465 271
 42 257 289 0 47 -17 47 0 46 48 41 42 465 462 0 871 -15 46 2116 0 41 872 0 17 48
 0 46 41 47 59 871 483 0 0 +17 871 0 873 874 875 42 48 483 0 0 -15 873 2114 0 68
9 876 0 17 874 0 873 689 871 53 52 459 0 0 -17 875 0 873 871 689 59 186 453 0 49
 -17 689 0 873 875 874 183 58 456 0 0 -17 186 0 877 182 61 183 875 453 0 683 +17
 49 0 490 491 38 59 41 50 0 48 -15 877 10 0 61 17 0 17 182 0 877 519 186 179 683
 687 0 518 +17 61 0 877 186 519 59 491 450 0 875 +17 519 0 877 61 182 62 518 855
 0 492 +17 518 0 516 510 64 179 519 855 0 423 -14 17 353 878 ?284 0 879 6 880 +7
69 769 284 0 24 81 1 878 2257 881 17 882 0 0 883 884 14 284 200 883 ?785 17 281
 6 885 +0 0 785 17 24 15 879 9 0 886 17 887 50 880 3 0 769 888 889 0 +0 52041704
2793042e-32 .0127 0 0 1 1 0 0 14 769 1 890 ?269 868 767 6 880 +17 17 269 868 24
 13 24 73 0 0 0 0 0 0 10 17 81 1 890 2266 881 769 891 0 892 893 894 14 269 112 8
93 ?895 769 896 6 889 -0 0 895 769 24 14 868 194 892 ?769 897 35 6 898 +0 0 769
 897 24 81 1 892 2265 881 868 899 0 900 890 901 14 897 214 900 ?868 902 903 6 90
4 +0 0 868 902 24 50 898 217 0 868 889 905 0 +-.03175 1734723475976805e-33 .0127
 -1 0 0 0 0 1 50 889 176 0 269 880 898 0 +0 520417042793042e-32 0 0 0 1 1 0 0 50
 905 218 0 508 898 906 0 +0 .0127 .0127 0 -1 0 0 0 -1 14 508 196 907 ?908 785 50
4 6 905 -0 0 908 785 24 50 906 219 0 785 905 885 0 +.03175 867361737988404e-32 .
0127 -1 0 0 0 0 1 14 785 198 909 ?508 284 784 6 906 -0 0 508 284 24 50 885 220 0
 284 906 910 0 +0 -.0127 .0127 1092739197465704e-31 -1 0 1 1092739197465704e-31
 0 51 910 221 0 908 885 911 0 --.0254 .0041275 .0127 0 0 -1 .0022225 -1 0 0 14 9
08 202 912 ?913 508 914 6 910 +0 0 913 508 24 51 911 222 0 913 910 915 0 --.0254
 -.0041275 .0127 0 0 -1 .0022225 -1 0 0 14 913 206 916 ?902 908 917 6 911 +0 0 9
02 908 24 51 915 223 0 902 911 904 0 -.0254 .0041275 .0127 0 0 -1 .0022225 -1 0
 0 14 902 210 918 ?897 913 919 6 915 +0 0 897 913 24 51 904 224 0 897 915 920 0
 -.0254 -.0041275 .0127 0 0 -1 .0022225 -1 0 0 51 920 993 0 720 904 921 0 +-.000
2539999999999905 -3469446951953615e-33 .085725 2731847993664265e-31 -1 0 .01905
 1 2731847993664265e-31 0 14 720 975 922 ?500 703 717 6 920 -0 0 500 703 24 51 9
21 992 0 703 920 923 0 +.000254000000000004 1734723475976805e-33 .085725 0 1 0 .
01905 0 0 1 14 703 973 924 ?720 344 701 6 921 -0 0 720 344 24 51 923 1585 0 757
 921 925 0 +-4163336342344335e-34 -.00889 .00889 -1 -1092739197465704e-31 0 .003
81 1092739197465704e-31 -1 0 14 757 1435 926 ?775 752 755 6 923 +0 0 775 752 24
 54 925 1584 0 752 923 583 0 +.02286 -.00889 .01651 1092739197465704e-31 -1 0 .0
0762 .00381 1 1092739197465704e-31 0 14 752 1433 927 ?757 293 750 6 925 +0 0 757
 293 24 51 583 1583 0 293 925 576 0 +.02794 -.00889 .0127 0 0 1 .00381 1 0 0 14
 293 1431 928 ?752 582 274 6 583 +0 0 752 582 24 81 1 928 2291 881 293 929 0 930
 927 931 14 582 1429 930 ?293 584 848 6 576 -0 0 293 584 24 81 1 930 2290 881 58
2 932 0 933 928 934 14 584 1427 933 ?582 562 851 6 577 +0 0 582 562 24 81 1 933
 2289 881 584 935 0 936 930 937 14 562 1425 936 ?584 575 845 6 558 +0 0 584 575
 24 81 1 936 2288 881 562 938 0 579 933 939 80 1 881 0 940 8001 0 0 0 0 3 5 0 0
 0 FFFFTFTFFFFFFFFF2 81 1 938 2249 31 562 0 936 941 942 943 81 1 579 2287 881 57
5 944 0 945 936 946 83 255 3 939 .498039215686275 .498039215686275 .498039215686
275 81 1 944 1897 31 575 0 579 947 948 949 81 1 945 2286 881 580 950 0 951 579 9
52 83 3 946 .498039215686275 .498039215686275 .498039215686275 14 580 1421 945 ?
575 355 780 6 563 +0 0 575 355 24 81 1 950 2238 31 580 0 945 953 954 955 81 1 95
1 2285 881 355 956 0 560 945 957 83 3 952 .498039215686275 .498039215686275 .498
039215686275 14 355 1419 951 ?580 352 826 6 348 +0 0 580 352 24 81 1 956 1919 31
 355 0 951 958 82 959 81 1 560 2284 881 352 960 0 351 951 961 83 3 957 .49803921
5686275 .498039215686275 .498039215686275 81 1 960 1895 31 352 0 560 962 947 963
 81 1 351 2283 881 347 948 0 964 560 965 83 3 961 .498039215686275 .498039215686
275 .498039215686275 81 1 948 1898 31 347 0 351 944 966 967 81 1 964 2282 881 35
3 958 0 390 351 968 83 3 965 .498039215686275 .498039215686275 .498039215686275
 14 353 1413 964 ?347 387 692 6 358 +0 0 347 387 24 81 1 958 1917 31 353 0 964 5
34 956 969 81 1 390 2281 881 387 947 0 970 964 971 83 3 968 .498039215686275 .49
8039215686275 .498039215686275 81 1 947 1896 31 387 0 390 960 944 972 81 1 970 2
280 881 391 941 0 973 390 974 83 3 971 .498039215686275 .498039215686275 .498039
215686275 14 391 1409 970 ?387 394 688 6 975 +0 0 387 394 24 81 1 941 2248 31 39
1 0 970 976 938 977 81 1 973 2279 881 394 962 0 978 970 979 83 3 974 .4980392156
86275 .498039215686275 .498039215686275 14 394 1407 973 ?391 685 665 6 388 +0 0
 391 685 24 81 1 962 1894 31 394 0 973 935 960 980 81 1 978 2278 881 685 981 0 9
82 973 983 83 3 979 .498039215686275 .498039215686275 .498039215686275 14 685 14
05 978 ?394 870 682 6 984 -0 0 394 870 24 81 1 981 1890 31 685 0 978 932 935 985
 81 1 982 2277 881 870 953 0 986 978 987 83 3 983 .498039215686275 .498039215686
275 .498039215686275 14 870 1403 982 ?685 681 869 6 395 +0 0 685 681 24 81 1 953
 2237 31 870 0 982 929 950 988 81 1 986 2276 881 681 989 0 990 982 991 83 3 987
 .498039215686275 .498039215686275 .498039215686275 14 681 1401 986 ?870 517 679
 6 992 +0 0 870 517 24 81 1 989 1888 31 681 0 986 993 932 994 81 1 990 2275 881
 517 995 0 996 986 997 83 3 991 .498039215686275 .498039215686275 .4980392156862
75 14 517 1399 990 ?681 500 516 6 998 +0 0 681 500 24 81 1 995 2241 31 517 0 990
 999 1000 1001 81 1 996 2274 881 500 954 0 922 990 1002 83 3 997 .49803921568627
5 .498039215686275 .498039215686275 14 500 1395 996 ?517 720 497 6 1003 +0 0 517
 720 24 81 1 954 2239 31 500 0 996 950 999 1004 81 1 922 2273 881 720 1005 0 924
 996 1006 83 3 1002 .498039215686275 .498039215686275 .498039215686275 81 1 1005
 1907 31 720 0 922 1007 1008 1009 81 1 924 2272 881 703 1007 0 1010 922 1011 83
 3 1006 .498039215686275 .498039215686275 .498039215686275 81 1 1007 1906 31 703
 0 924 1012 1005 1013 81 1 1010 2271 881 344 1014 0 1015 924 1016 83 3 1011 .498
039215686275 .498039215686275 .498039215686275 14 344 822 1010 ?703 555 722 6 33
0 +0 0 703 555 24 81 1 1014 1909 31 344 0 1010 1008 739 1017 81 1 1015 2270 881
 555 1008 0 1018 1010 1019 83 3 1016 .498039215686275 .498039215686275 .49803921
5686275 14 555 665 1015 ?344 669 654 6 345 +0 0 344 669 24 81 1 1008 1908 31 555
 0 1015 1005 1014 1020 81 1 1018 2269 881 669 1012 0 1021 1015 1022 83 3 1019 .4
98039215686275 .498039215686275 .498039215686275 14 669 438 1018 ?555 895 668 6
 556 +0 0 555 895 24 81 1 1012 1905 31 669 0 1018 1023 1007 1024 81 1 1021 2268
 881 895 1023 0 893 1018 1025 83 3 1022 .498039215686275 .498039215686275 .49803
9215686275 14 895 430 1021 ?669 269 824 6 888 -0 0 669 269 24 81 1 1023 1904 31
 895 0 1021 966 1012 1026 81 1 893 2267 881 269 966 0 890 1021 1027 83 3 1025 .4
98039215686275 .498039215686275 .498039215686275 81 1 966 1899 31 269 0 893 948
 1023 1028 83 3 1027 .498039215686275 .498039215686275 .498039215686275 82 3 102
8 16 16 2 82 3 1026 16 21 2 15 824 1128 0 820 895 0 50 888 453 0 895 556 880 0 +
.01905 1734723475976805e-33 .066675 -1 0 0 0 0 1 50 556 455 0 669 345 888 0 +-.0
1905 -1734723475976805e-33 .066675 -1 0 0 0 0 1 82 3 1024 16 22 2 82 3 1020 16 2
5 2 81 1 739 1913 31 707 0 0 1014 534 1029 82 3 1017 16 26 2 81 1 534 1915 31 53
2 0 0 739 958 1030 82 3 1029 16 80 1 82 3 1030 16 82 1 82 3 1013 16 23 2 82 3 10
09 16 24 2 81 1 999 2240 31 757 0 926 954 995 1031 82 3 1004 17 7 2 81 1 926 229
3 881 757 999 0 927 1032 1033 82 3 1031 17 8 2 81 1 927 2292 881 752 993 0 928 9
26 1034 81 1 1032 2294 881 775 1035 0 926 1036 1037 83 3 1033 .498039215686275 .
498039215686275 .498039215686275 14 775 2061 1032 ?779 757 772 6 1038 +0 0 779 7
57 24 81 1 1035 2253 31 775 0 1032 1039 0 1040 81 1 1036 2295 881 779 1039 0 103
2 1041 1042 83 3 1037 .498039215686275 .498039215686275 .498039215686275 14 779
 2063 1036 ?765 775 778 6 1043 +0 0 765 775 24 81 1 1039 2252 31 779 0 1036 1044
 1035 1045 81 1 1041 2296 881 765 1046 0 1036 1047 1048 83 3 1042 .4980392156862
75 .498039215686275 .498039215686275 14 765 2065 1041 ?760 779 763 6 1049 +0 0 7
60 779 24 81 1 1046 2234 31 765 0 1041 1050 1051 1052 81 1 1047 2297 881 760 105
3 0 1041 1054 1055 83 3 1048 .498039215686275 .498039215686275 .498039215686275
 14 760 2067 1047 ?19 765 759 6 1056 +0 0 19 765 24 81 1 1053 2232 31 760 0 1047
 613 1050 1057 81 1 1054 2298 881 19 1050 0 1047 1058 1059 83 3 1055 .4980392156
86275 .498039215686275 .498039215686275 14 19 2109 1054 ?493 760 494 6 7 +0 0 49
3 760 24 81 1 1050 2233 31 19 0 1054 1053 1046 1060 81 1 1058 2299 881 493 1051
 0 1054 1061 1062 83 3 1059 .498039215686275 .498039215686275 .498039215686275 1
4 493 2111 1058 ?876 19 490 6 20 +0 0 876 19 24 81 1 1051 2235 31 493 0 1058 104
6 929 1063 81 1 1061 2300 881 876 1044 0 1058 1064 1065 83 3 1062 .4980392156862
75 .498039215686275 .498039215686275 14 876 2113 1061 ?872 493 873 6 1066 +0 0 8
72 493 24 81 1 1044 2251 31 876 0 1061 942 1039 1067 81 1 1064 2301 881 872 942
 0 1061 0 1068 83 3 1065 .498039215686275 .498039215686275 .498039215686275 14 8
72 2115 1064 ?0 876 46 6 1069 +0 0 0 876 24 81 1 942 2250 31 872 0 1064 938 1044
 1070 83 3 1068 .498039215686275 .498039215686275 .498039215686275 82 3 1070 17
 18 2 53 1069 2141 0 872 1038 1066 0 +-.02794 -.00889 .00889 .00381 0 0 1 1 0 0
 51 1038 2090 0 775 1043 1069 0 +0 .00889 .00889 1 0 0 .00381 0 0 -1 51 1066 214
0 0 876 1069 20 0 +971445146547012e-33 -.00889 .00889 1 1092739197465704e-31 0 .
00381 -1092739197465704e-31 1 0 51 20 2139 0 493 1066 7 0 +-.02794 1734723475976
805e-33 .00889 0 1 0 .00381 0 0 1 53 1043 2091 0 779 1049 1038 0 +.02794 .00889
 .00889 .00381 0 0 1 1 0 0 51 1049 2092 0 765 1056 1043 0 +.02794 52041704279304
2e-32 .00889 0 -1 0 .00381 0 0 -1 53 1056 2093 0 760 1003 1049 0 +.02794 -.00889
 .00889 .00381 0 0 1 1 0 0 51 1003 1563 0 500 998 1056 0 +-.02794 .00889 .0127 0
 0 1 .00381 1 0 0 51 998 1564 0 517 992 1003 0 +0 .00889 .00889 1 0 0 .00381 0 0
 -1 54 992 1565 0 681 984 998 0 +-.02286 .00889 .01651 0 -1 0 .00762 .00381 0 0
 -1 51 984 1566 0 685 975 992 0 +-.02286 520417042793042e-32 .01651 0 -1 0 .0038
1 0 0 -1 54 975 1567 0 391 395 984 0 +-.02286 -.00889 .01651 1092739197465704e-3
1 -1 0 .00762 .00381 1 1092739197465704e-31 0 51 395 1569 0 870 388 975 0 +-.027
94 -.00889 .0127 0 0 -1 .00381 -1 0 0 82 3 1067 17 19 2 81 1 929 2236 31 293 0 9
28 1051 953 1071 82 3 1063 17 3 2 82 3 1071 17 4 2 82 3 1060 17 1 2 81 1 613 223
1 31 611 0 0 610 1053 1072 82 3 1057 17 0 2 81 1 610 2230 31 429 0 0 860 613 107
3 82 3 1072 17 31 1 81 1 860 2229 31 855 0 0 313 610 1074 82 3 1073 17 30 1 81 1
 313 2228 31 311 0 0 637 860 1075 82 3 1074 17 29 1 81 1 637 2227 31 503 0 0 537
 313 1076 82 3 1075 17 28 1 81 1 537 2226 31 535 0 0 625 637 1077 82 3 1076 17 2
7 1 81 1 625 2225 31 623 0 0 301 537 1078 82 3 1077 17 26 1 81 1 301 2224 31 289
 0 0 640 625 1079 82 3 1078 17 25 1 81 1 640 2223 31 638 0 0 629 301 1080 82 3 1
079 17 24 1 81 1 629 2222 31 627 0 0 452 640 1081 82 3 1080 17 23 1 81 1 452 222
1 31 450 0 0 25 629 1082 82 3 1081 17 22 1 81 1 25 2220 31 11 0 0 434 452 1083 8
2 3 1082 17 21 1 81 1 434 2219 31 432 0 0 449 25 1084 82 3 1083 17 20 1 81 1 449
 2218 31 447 0 0 468 434 1085 82 3 1084 17 19 1 81 1 468 2217 31 466 0 0 469 449
 1086 82 3 1085 17 18 1 81 1 469 2216 31 27 0 0 487 468 1087 82 3 1086 17 17 1 8
2 3 1087 17 16 1 82 3 1052 17 2 2 82 3 1045 17 20 2 82 3 1040 17 21 2 81 1 993 1
887 31 752 0 927 727 989 1088 83 3 1034 .498039215686275 .498039215686275 .49803
9215686275 81 1 727 1882 31 424 0 0 724 993 1089 82 3 1088 16 4 2 82 3 1089 16 7
8 1 81 1 1000 2242 31 785 0 909 995 899 1090 82 3 1001 17 9 2 81 1 909 2259 881
 785 1000 0 883 907 1091 81 1 899 2243 31 868 0 892 1000 891 1092 82 3 1090 17 1
0 2 81 1 891 2244 31 769 0 890 899 882 1093 82 3 1092 17 11 2 81 1 882 2245 31 1
7 0 878 891 1094 1095 82 3 1093 17 12 2 81 1 1094 2246 31 284 0 883 882 976 1096
 82 3 1095 17 13 2 81 1 883 2258 881 284 1094 0 878 909 1097 81 1 976 2247 31 50
8 0 907 1094 941 1098 82 3 1096 17 14 2 81 1 907 2260 881 508 976 0 909 912 1099
 82 3 1098 17 15 2 81 1 912 2261 881 908 1100 0 907 916 1101 83 3 1099 .49803921
5686275 .498039215686275 .498039215686275 81 1 1100 286 31 908 0 912 814 1102 11
03 81 1 916 2262 881 913 1102 0 912 918 1104 83 3 1101 .498039215686275 .4980392
15686275 .498039215686275 81 1 1102 287 31 913 0 916 1100 1105 1106 81 1 918 226
3 881 902 1105 0 916 900 1107 83 3 1104 .498039215686275 .498039215686275 .49803
9215686275 81 1 1105 288 31 902 0 918 1102 1108 1109 81 1 900 2264 881 897 1108
 0 918 892 1110 83 3 1107 .498039215686275 .498039215686275 .498039215686275 81
 1 1108 289 31 897 0 900 1105 1111 1112 83 3 1110 .498039215686275 .498039215686
275 .498039215686275 81 1 1111 878 31 1 0 1113 1108 102 1114 82 3 1112 6 9 2 81
 1 1113 2254 1115 1 1111 14 0 0 1116 81 1 102 1752 31 100 0 0 1111 259 1117 82 3
 1114 6 0 3 82 3 1117 16 0 0 80 1 1115 1118 1119 8038 0 0 0 0 0 0 0 0 0 TTTTTTTT
TTTTTFTF10 81 1 14 2255 1118 1 1113 2 0 0 1120 98 255 6 1116 80 97 114 116 32 49
 80 1 1118 1121 1122 8017 0 0 0 0 0 0 0 0 0 TTTTTTTTTTTTTFTF3 84 255 6 1120 Part
 179 255 13 1122 SDL/TYSA_NAME79 14 1119 SDL/TYSA_UNAME82 3 1109 6 8 2 82 3 1106
 6 7 2 81 1 814 279 31 813 0 0 803 1100 1123 82 3 1103 6 6 2 81 1 803 278 31 672
 0 0 811 814 1124 82 3 1123 6 19 1 81 1 811 277 31 809 0 0 801 803 1125 82 3 112
4 6 18 1 81 1 801 276 31 799 0 0 807 811 1126 82 3 1125 6 17 1 81 1 807 275 31 7
31 0 0 797 801 1127 82 3 1126 6 16 1 81 1 797 274 31 795 0 0 729 807 1128 82 3 1
127 6 15 1 81 1 729 273 31 725 0 0 793 797 1129 82 3 1128 6 14 1 81 1 793 272 31
 291 0 0 0 729 1130 82 3 1129 6 13 1 82 3 1130 6 12 1 83 3 1097 .498039215686275
 .498039215686275 .498039215686275 83 3 1091 .498039215686275 .498039215686275 .
498039215686275 81 1 932 1889 31 582 0 930 989 981 1131 82 3 994 16 5 2 82 3 113
1 16 6 2 82 3 988 17 5 2 81 1 935 1893 31 584 0 933 981 962 1132 82 3 985 16 7 2
 82 3 1132 16 10 2 82 3 980 16 11 2 82 3 977 17 16 2 82 3 972 16 13 2 82 3 969 1
6 30 2 82 3 967 16 15 2 82 3 963 16 12 2 81 1 82 2184 31 80 0 0 956 86 1133 82 3
 959 16 32 2 81 1 86 2185 31 84 0 0 82 43 1134 82 3 1133 17 0 0 81 1 43 2186 31
 227 0 0 86 40 1135 82 3 1134 17 1 0 82 3 1135 17 2 0 82 3 955 17 6 2 51 563 157
9 0 580 577 558 0 +.02794 .00889 .0127 0 0 -1 .00381 -1 0 0 82 3 949 16 14 2 82
 3 943 17 17 2 79 15 940 SDL/TYSA_COLOUR83 3 937 .498039215686275 .4980392156862
75 .498039215686275 83 3 934 .498039215686275 .498039215686275 .498039215686275
 83 3 931 .498039215686275 .498039215686275 .498039215686275 15 919 209 0 812 90
2 1136 17 812 0 919 812 812 0 1137 809 0 0 +15 1136 211 0 1138 902 0 17 1138 0 1
136 1138 1138 0 802 799 0 0 -17 802 0 1139 802 802 0 1138 799 0 0 +15 1139 124 0
 802 269 1140 15 1140 125 0 798 269 1141 17 798 0 1140 798 798 0 1142 795 0 0 +1
5 1141 126 0 794 269 262 17 794 0 1141 794 794 0 1143 291 0 0 +17 1143 0 1144 11
43 1143 0 794 291 0 0 -15 1144 203 0 1143 908 0 17 1142 0 1145 1142 1142 0 798 7
95 0 0 -15 1145 207 0 1142 913 0 17 1137 0 1146 1137 1137 0 812 809 0 0 -15 1146
 7 0 1137 769 0 15 917 205 0 808 913 1145 17 808 0 917 808 808 0 1147 731 0 0 +1
7 1147 0 887 1147 1147 0 808 731 0 0 -15 887 8 0 1147 17 877 15 914 201 0 730 90
8 1144 17 730 0 914 730 730 0 886 725 0 0 +17 886 0 879 886 886 0 730 725 0 0 -1
5 903 213 0 815 897 1148 17 815 0 903 815 815 0 1149 813 0 0 +15 1148 215 0 1150
 897 0 17 1150 0 1148 1150 1150 0 804 672 0 0 -17 804 0 896 804 804 0 1150 672 0
 0 +15 896 123 0 804 269 1139 17 1149 0 770 1149 1149 0 815 813 0 0 -15 770 6 0
 1149 769 1146 83 3 901 .498039215686275 .498039215686275 .498039215686275 83 3
 894 .498039215686275 .498039215686275 .498039215686275 83 3 884 .49803921568627
5 .498039215686275 .498039215686275 17 58 0 688 690 411 53 689 456 0 283 +17 283
 0 281 52 249 53 690 429 0 874 +17 52 0 281 257 283 42 874 459 0 288 +17 249 0 2
81 283 253 246 693 707 0 690 +17 253 0 281 249 245 250 711 713 0 693 +17 693 0 6
92 695 691 250 249 707 0 696 -81 1 645 1866 31 644 0 0 652 857 1151 82 3 861 16
 61 1 81 1 857 1867 31 337 0 0 645 744 1152 82 3 1151 16 62 1 81 1 744 1868 31 7
42 0 0 857 643 1153 82 3 1152 16 63 1 81 1 643 1869 31 641 0 0 744 336 1154 82 3
 1153 16 64 1 81 1 336 1870 31 328 0 0 643 531 1155 82 3 1154 16 65 1 81 1 531 1
871 31 514 0 0 336 290 1156 82 3 1155 16 66 1 81 1 290 1872 31 270 0 0 531 788 1
157 82 3 1156 16 67 1 81 1 788 1873 31 512 0 0 290 786 1158 82 3 1157 16 68 1 82
 3 1158 16 69 1 81 1 659 1857 31 678 0 0 658 571 1159 81 1 571 1858 31 565 0 0 6
59 540 1160 82 3 1159 16 53 1 81 1 540 1859 31 538 0 0 571 553 1161 82 3 1160 16
 54 1 81 1 553 1860 31 547 0 0 540 741 1162 82 3 1161 16 55 1 81 1 741 1861 31 7
13 0 0 553 378 1163 82 3 1162 16 56 1 81 1 378 1862 31 371 0 0 741 543 1164 82 3
 1163 16 57 1 81 1 543 1863 31 541 0 0 378 651 1165 82 3 1164 16 58 1 82 3 1165
 16 59 1 81 1 854 1833 31 687 0 0 317 410 1166 81 1 317 1832 31 315 0 0 598 854
 1167 81 1 410 1834 31 408 0 0 854 622 1168 82 3 1166 16 29 1 81 1 622 1835 31 6
20 0 0 410 304 1169 82 3 1168 16 30 1 81 1 304 1837 31 297 0 0 622 521 1170 82 3
 1169 16 31 1 82 3 1170 16 33 1 81 1 598 1831 31 596 0 0 310 317 1171 82 3 1167
 16 28 1 81 1 310 1830 31 302 0 0 525 598 1172 82 3 1171 16 27 1 81 1 525 1829 3
1 522 0 0 414 310 1173 82 3 1172 16 26 1 81 1 414 1828 31 412 0 0 422 525 1174 8
2 3 1173 16 25 1 81 1 422 1827 31 420 0 0 418 414 1175 82 3 1174 16 24 1 81 1 41
8 1826 31 416 0 0 747 422 1176 82 3 1175 16 23 1 82 3 1176 16 22 1 81 1 594 1843
 31 588 0 0 323 852 1177 81 1 746 1845 31 745 0 0 852 694 1178 82 3 853 16 40 1
 81 1 694 1846 31 380 0 0 746 619 1179 82 3 1178 16 41 1 82 3 1179 16 42 1 81 1
 323 1842 31 321 0 0 521 594 1180 82 3 1177 16 39 1 82 3 1180 16 38 1 17 324 0 8
24 206 820 207 825 321 0 0 +17 206 0 824 214 324 203 849 315 0 827 +17 214 0 824
 820 206 211 827 318 0 818 +17 75 0 845 846 771 73 774 438 0 507 +82 3 840 16 43
 1 79 9 839 BTI/DetId81 1 327 1853 31 325 0 0 834 616 1181 82 3 835 16 48 1 81 1
 616 1854 31 614 0 0 327 406 1182 82 3 1181 16 49 1 81 1 406 1855 31 400 0 0 616
 658 1183 82 3 1182 16 50 1 82 3 1183 16 51 1 81 1 706 1880 31 699 0 0 817 724 1
184 82 3 819 16 75 1 82 3 1184 16 76 1 82 3 790 16 70 1 17 275 0 274 229 265 80
 103 627 0 294 -17 764 0 763 477 761 65 83 447 0 0 -81 1 602 1824 31 600 0 0 608
 747 1185 82 3 749 16 21 1 81 1 608 1823 31 482 0 0 606 602 1186 82 3 1185 16 20
 1 81 1 606 1822 31 604 0 0 513 608 1187 82 3 1186 16 19 1 81 1 513 1821 31 502
 0 0 632 606 1188 82 3 1187 16 18 1 81 1 632 1818 31 630 0 0 633 513 1189 82 3 1
188 16 17 1 81 1 633 1813 31 278 0 0 299 632 1190 82 3 1189 16 14 1 81 1 299 180
8 31 279 0 0 296 633 1191 82 3 1190 16 9 1 82 3 1191 16 4 1 82 3 728 16 77 1 82
 3 660 16 52 1 82 3 653 16 60 1 141 585 574 585 585 577 141 557 545 1192 1192 34
5 141 1192 399 557 557 345 82 3 524 16 35 1 81 1 440 2214 31 438 0 0 443 487 119
3 82 3 489 17 15 1 81 1 443 2213 31 441 0 0 437 440 1194 82 3 1193 17 14 1 81 1
 437 2212 31 435 0 0 446 443 1195 82 3 1194 17 13 1 81 1 446 2211 31 444 0 0 476
 437 1196 82 3 1195 17 12 1 81 1 476 2210 31 474 0 0 480 446 1197 82 3 1196 17 1
1 1 81 1 480 2209 31 478 0 0 458 476 1198 82 3 1197 17 10 1 81 1 458 2208 31 456
 0 0 461 480 1199 82 3 1198 17 9 1 81 1 461 2207 31 459 0 0 455 458 1200 82 3 11
99 17 8 1 81 1 455 2206 31 453 0 0 464 461 1201 82 3 1200 17 7 1 81 1 464 2205 3
1 462 0 0 485 455 1202 82 3 1201 17 6 1 82 3 1202 17 5 1 81 1 484 2203 31 483 0
 0 427 485 1203 82 3 486 17 4 1 81 1 427 2202 31 425 0 0 431 484 1204 82 3 1203
 17 3 1 81 1 431 2201 31 295 0 0 473 427 1205 82 3 1204 17 2 1 81 1 473 2200 31
 471 0 0 153 431 1206 82 3 1205 17 1 1 81 1 153 2199 31 151 0 0 33 473 1207 82 3
 1206 17 0 1 81 1 33 2198 31 62 0 0 29 153 1208 82 3 1207 17 15 0 82 3 1208 17 1
4 0 141 396 386 396 396 388 141 393 365 393 393 358 40 3 382 0 1 3 .000869324329
058238 .213195388683093 ??-.01839737086040565 -.01102239519082676 .0793752 -.016
5031969227045 -.01248450045687434 .0721008209622311 -.01524577683282565 -.012699
99562049718 .0689299878026212 41 1 383 L?-.01839737086040565 -.01102239519082676
 .0793752 41 2 384 TF-.01524 -.0127 .0689168006913292 -.01524577683282565 -.0126
9999562049718 .0689299878026212 204 16 385 4 3.469731630612065 2.54758848898816
 5.68918114257795 -.0666752 3.824231075302195 1.90873997030598 5.05033262389577
 -.0594008209622311 3.967075969813185 1.57231255644964 4.71390521005374 -.056229
9878026212 3.96765290673524 1.570796326794895 4.71238898038469 -.056216800691329
2 40 5 366 0 1 5 .001604866238306015 .3935120218430575 ??.0152457768328045 .0126
99995620497 .0689299878026282 .0177302978738571 .01177349033281948 .076159970220
0058 .01793407683632075 .01158407683632074 .0770153319213929 .01890103069615955
 .00994496646476451 .0844268392399261 .0185827779602455 .01071809614312588 .0908
335959152692 41 2 367 TF.01524 .0127 .0689168006913292 .0152457768328045 .012699
995620497 .0689299878026282 41 1 368 L?.0185827779602455 .01071809614312588 .090
8335959152692 204 24 369 4 1.570796326794895 -.0562168006913292 .744736073649451
 -1.570796326794895 1.5723125564584 -.0562299878026282 .745313010571029 -1.57231
255645475 2.283156063905495 -.0634599702200058 1.08199104712925 -2.2831560639054
75 2.356194490192345 -.0643153319213929 1.124197673880842 -2.35619449019235 2.86
1032352839445 -.0717268392399261 1.503128528222375 -2.861032352839445 2.64114851
377431 -.0781335959152692 1.83562933981221 -2.641148513774255 141 359 365 359 35
9 349 141 357 360 357 357 348 141 346 326 1209 1209 330 141 1209 329 346 346 330
 40 4 340 0 1 4 .000209169952560963 .341011532472954 ??.01770651224213835 -.0088
9 .079375 .0179156821946993 -.01010026507318948 .079375 .01851068692974005 -.011
17332670518144 .079375 .01905 -.01173122538089564 .079375 41 1 341 L?.0177065122
4213835 -.00889 .079375 41 1 342 L?.01905 -.01173122538089564 .079375 204 16 343
 4 .0177065122421383 -.00889 5.94334839772546 -3.141592653589795 .01791568219469
93 -.01010026507318948 5.94697089793395 2.818337416483475 .01851068692974005 -.0
1117332670518144 5.95688027317409 2.49896832186129 .01905 -.01173122538089564 5.
96538730136969 2.299965127506815 81 1 277 1804 31 266 0 0 201 296 1210 82 3 300
 16 3 1 81 1 201 1803 31 199 0 0 197 277 1211 82 3 1210 16 0 1 81 1 197 1802 31
 195 0 0 129 201 1212 82 3 1211 16 51 0 81 1 129 1801 31 127 0 0 161 197 1213 82
 3 1212 16 50 0 81 1 161 1800 31 159 0 0 141 129 1214 82 3 1213 16 49 0 81 1 141
 1799 31 139 0 0 133 161 1215 82 3 1214 16 48 0 81 1 133 1798 31 131 0 0 244 141
 1216 82 3 1215 16 47 0 81 1 244 1797 31 242 0 0 137 133 1217 82 3 1216 16 46 0
 81 1 137 1796 31 135 0 0 165 244 1218 82 3 1217 16 45 0 81 1 165 1795 31 163 0
 0 113 137 1219 82 3 1218 16 44 0 81 1 113 1794 31 111 0 0 121 165 1220 82 3 121
9 16 43 0 81 1 121 1793 31 119 0 0 145 113 1221 82 3 1220 16 42 0 81 1 145 1792
 31 143 0 0 149 121 1222 82 3 1221 16 41 0 81 1 149 1791 31 147 0 0 193 145 1223
 82 3 1222 16 40 0 81 1 193 1790 31 191 0 0 213 149 1224 82 3 1223 16 39 0 81 1
 213 1789 31 211 0 0 248 193 1225 82 3 1224 16 38 0 81 1 248 1788 31 246 0 0 252
 213 1226 82 3 1225 16 37 0 81 1 252 1787 31 250 0 0 117 248 1227 82 3 1226 16 3
6 0 81 1 117 1786 31 115 0 0 125 252 1228 82 3 1227 16 35 0 81 1 125 1785 31 123
 0 0 240 117 1229 82 3 1228 16 34 0 81 1 240 1784 31 238 0 0 189 125 1230 82 3 1
229 16 33 0 81 1 189 1783 31 187 0 0 217 240 1231 82 3 1230 16 32 0 81 1 217 178
2 31 215 0 0 90 189 1232 82 3 1231 16 31 0 81 1 90 1781 31 88 0 0 205 217 1233 8
2 3 1232 16 30 0 81 1 205 1779 31 203 0 0 169 90 1234 82 3 1233 16 29 0 81 1 169
 1777 31 167 0 0 157 205 1235 82 3 1234 16 27 0 81 1 157 1776 31 155 0 0 94 169
 1236 82 3 1235 16 25 0 81 1 94 1775 31 92 0 0 181 157 1237 82 3 1236 16 24 0 81
 1 181 1774 31 179 0 0 236 94 1238 82 3 1237 16 23 0 81 1 236 1773 31 234 0 0 23
2 181 1239 82 3 1238 16 22 0 81 1 232 1772 31 230 0 0 209 236 1240 82 3 1239 16
 21 0 81 1 209 1771 31 207 0 0 221 232 1241 82 3 1240 16 20 0 81 1 221 1770 31 2
19 0 0 173 209 1242 82 3 1241 16 19 0 81 1 173 1767 31 171 0 0 106 221 1243 82 3
 1242 16 18 0 81 1 106 1766 31 104 0 0 177 173 1244 82 3 1243 16 15 0 81 1 177 1
762 31 175 0 0 98 106 1245 82 3 1244 16 14 0 81 1 98 1761 31 96 0 0 256 177 1246
 82 3 1245 16 10 0 81 1 256 1757 31 254 0 0 109 98 1247 82 3 1246 16 9 0 81 1 10
9 1756 31 107 0 0 259 256 1248 82 3 1247 16 5 0 82 3 1248 16 4 0 82 3 261 16 1 0
 81 1 225 2195 31 223 0 0 71 32 1249 81 1 71 2194 31 69 0 0 78 225 1250 81 1 32
 2196 31 73 0 0 225 29 1251 82 3 1249 17 11 0 82 3 1251 17 12 0 81 1 78 2193 31
 76 0 0 67 71 1252 82 3 1250 17 10 0 81 1 67 2192 31 65 0 0 57 78 1253 82 3 1252
 17 9 0 81 1 57 2191 31 53 0 0 185 67 1254 82 3 1253 17 8 0 81 1 185 2190 31 183
 0 0 51 57 1255 82 3 1254 17 7 0 81 1 51 2189 31 42 0 0 44 185 1256 82 3 1255 17
 6 0 81 1 44 2188 31 59 0 0 40 51 1257 82 3 1256 17 5 0 82 3 1257 17 4 0 82 3 45
 17 3 0 82 3 34 17 13 0 19 18 230 0 1 0 10 6 0 S0 74 4 CI16 index_map_offset0 0
 1 dCCZ20 16 5 0 0 1035 1113 14 2 1064 0 0 0 0 0 0 0 0 0 0 0 0 0 0 0 80 1 13 881
 1258 8040 0 0 0 0 3 5 0 0 0 TTTFFFFFFFFFFFFF2 83 3 15 .498039215686275 .4980392
15686275 .498039215686275 79 17 1258 SDL/TYSA_COLOUR_21 0 
