**ABCDEFGHIJKLMNOPQRSTUVWXYZabcdefghijklmnopqrstuvwxyz**************************
**PARASOLID !"#$%&'()*+,-./:;<=>?@[\]^_`{|}~0123456789**************************
**PART1;
MC=unknown;
MC_MODEL=unknown;
MC_ID=unknown;
OS=unknown;
OS_RELEASE=unknown;
FRU=Parasolid 35.1.246;
APPL=Onshape;
SITE=unknown;
USER=unknown;
FORMAT=text;
GUISE=transmit;
KEY=BTGapi::writeModels_.xmt;
FILE=BTGapi::writeModels_.xmt;
DATE=2023-12-06T18:33:34 (UTC);
**PART2;
SCH=SCH_3501246_35102;
USFLD_SIZE=0;
**PART3;
**END_OF_HEADER*****************************************************************
T51 : TRANSMIT FILE created by modeller version 350124623 SCH_3501246_35102_1300
6231 0 12 36 CCCI7 lattice222 0 CCCI4 mesh1006 0 I8 polyline1008 0 CCCCCCCDI5 ow
ner1040 0 CCCI16 boundary_lattice222 0 CCCI13 boundary_mesh1006 0 I17 boundary_p
olyline1008 0 CCCA16 index_map_offset0 0 1 dA9 index_map82 0 A17 node_id_index_m
ap82 0 A20 schema_embedding_map82 0 A5 child12 0 A14 lowest_node_id0 0 1 dA16 me
sh_offset_data206 0 Z1 1608 2 3 0 0 0 0 0 0 0 1e3 1e-8 0 4 5 1 0 1 2 6 0 7 8 9 0
 0 10 11 12 0 0 0 0 0 0 0 81 255 1 2 1578 13 1 14 0 0 0 15 70 11 CI9 list_type0
 0 1 uI10 notransmit0 0 1 lCCCDCCDI12 finger_index0 0 1 dI12 finger_block1012 0
 CZ3 0 4 T1 0 0 5 20 1 16 16 13 255 6 137 0 1 0 17 0 0 18 0 56 255 7 1457 0 19 2
0 0 0 +R21 22 8 -254e-6 -254e-6 1 1 0 0 23 24 32 255 8 1464 0 1 25 0 26 -.00762
 -.004445 .03302 0 -.707106781186548 -.707106781186548 0 -.707106781186548 .7071
06781186548 .00682499465201256 .004826 29 255 9 1376 0 12 27 0 .00762 -.009271 .
0381 19 9 CCCCCCI5 frame230 0 CA5 owner12 0 Z10 48 0 1 18 0 28 0 V0 16 255 11 13
87 29 ?30 0 31 32 0 0 1 18 255 12 1373 33 34 0 35 9 ?1 81 1 33 1527 36 12 0 0 37
 38 39 17 255 34 0 40 41 42 12 43 44 0 45 +18 35 1364 46 47 12 48 27 ?1 81 1 46
 1521 36 35 0 0 49 50 51 17 47 0 52 53 54 35 55 56 0 42 +18 48 1355 57 58 35 59
 60 ?1 29 27 1367 0 35 60 9 .00508 -.009271 .0381 29 60 1358 0 48 61 27 0 -.0092
71 .03302 29 61 1349 0 59 62 60 0 -.009271 .01778 18 59 1346 63 64 48 65 61 ?1 2
9 62 1339 0 65 66 61 -.00508 -.009525 .012446 18 65 1337 37 67 59 68 62 ?1 29 66
 1335 0 68 69 62 254e-6 -.009525 .01778 18 68 1333 70 71 65 72 66 ?1 29 69 1331
 0 72 73 66 254e-6 -.009525 .03302 18 72 1329 49 74 68 75 69 ?1 29 73 1327 0 75
 76 69 .00508 -.009525 .037846 18 75 1325 50 77 72 78 73 ?1 29 76 1324 0 78 79 7
3 .00762 -.009525 .037846 18 78 1321 38 30 75 80 76 ?1 29 79 1310 0 80 81 76 -.0
1904916443751735 64211873665454e-30 .012446 18 80 1307 82 83 78 84 79 ?1 29 81 1
306 0 84 85 79 -.009398 -.009525 .012446 18 84 1303 86 87 80 88 81 ?1 29 85 1296
 0 88 89 81 -.009398 -.009271 .0127 18 88 1294 90 91 84 92 85 ?1 29 89 1293 0 92
 93 85 -.00508 -.009271 .0127 18 92 1290 94 95 88 96 89 ?1 29 93 959 0 96 97 89
 .01386489655172414 .004445 .0177552425495504 18 96 957 98 99 92 100 93 ?1 29 97
 952 0 100 101 93 .0168591889532326 -312091295372303e-31 .01441536779203484 18 1
00 950 102 103 96 104 97 ?1 29 101 949 0 104 105 97 .01386489655172414 -.004445
 .0177552425495504 18 104 947 106 107 100 108 101 ?1 29 105 940 0 108 109 101 .0
1904916443751735 -659194920871187e-31 .01023724598790366 18 108 937 110 111 104
 112 105 ?1 29 109 930 0 112 113 105 .0127 .004445 .03302 18 112 928 114 115 108
 116 109 ?1 29 113 926 0 116 117 109 .0127 -.004445 .03302 18 116 924 118 119 11
2 120 113 ?1 29 117 923 0 120 121 113 .0127 .004445 .022352 18 120 920 122 123 1
16 124 117 ?1 29 121 919 0 124 125 117 .0127 -.004445 .022352 18 124 916 126 127
 120 128 121 ?1 29 125 904 0 128 129 121 .00762 .009525 .022352 18 128 902 130 1
31 124 132 125 ?1 29 129 901 0 132 133 125 .009398 .009525 .015335896522998 18 1
32 898 134 135 128 136 129 ?1 29 133 886 0 136 137 129 .00762 -.009525 .022352 1
8 136 884 138 139 132 140 133 ?1 29 137 883 0 140 141 133 .009398 -.009525 .0153
3589652299795 18 140 880 142 143 136 144 137 ?1 29 141 861 0 144 145 137 .00508
 .009525 .0381 18 144 858 146 147 140 148 141 ?1 29 145 857 0 148 149 141 .00762
 .009525 .0381 18 148 854 150 41 144 151 145 ?1 29 149 844 0 151 152 145 -.00508
 .009525 .0127 18 151 841 153 154 148 155 149 ?1 29 152 830 0 155 156 149 0 .009
525 .01778 18 155 827 157 158 151 159 152 ?1 29 156 826 0 159 160 152 0 .009525
 .03302 18 159 823 161 162 155 163 156 ?1 29 160 487 0 163 164 156 .019049164437
51735 -659194920871187e-31 0 18 163 485 165 166 159 167 160 ?1 29 164 478 0 167
 168 160 -.01904916443751735 64211873665454e-30 0 18 167 476 169 170 163 171 164
 ?1 29 168 475 0 171 172 164 -.009398 -.009525 0 18 171 472 173 174 167 175 168
 ?1 29 172 471 0 175 176 168 .009398 -.009525 0 18 175 468 177 178 171 179 172 ?
1 29 176 453 0 179 180 172 -.009398 .009525 .0127 18 179 450 181 182 175 183 176
 ?1 29 180 449 0 183 184 176 -.009398 .009525 0 18 183 446 185 186 179 187 180 ?
1 29 184 445 0 187 0 180 .009398 .009525 0 18 187 442 188 189 183 0 184 ?1 81 1
 188 692 36 187 0 0 173 185 190 17 189 0 191 192 135 187 193 194 0 195 +15 255 1
91 123 0 196 197 0 17 192 0 191 198 189 183 199 200 0 201 +17 135 0 191 189 131
 132 202 203 0 193 +17 193 0 204 111 195 132 189 194 0 205 -16 194 899 206 ?189
 207 208 209 0 0 1 17 195 0 204 193 166 187 210 211 0 199 -15 204 587 0 193 212
 0 17 166 0 204 195 111 163 213 214 0 210 +17 210 0 215 178 199 163 195 211 0 21
6 +16 211 489 217 ?210 218 219 220 0 0 1 17 199 0 215 210 186 187 192 200 0 0 -1
5 215 75 0 199 221 0 17 186 0 215 199 170 183 222 223 0 192 +16 200 443 224 ?192
 225 226 227 0 0 1 81 1 224 714 36 200 0 0 228 229 230 16 225 842 231 ?232 208 2
00 233 0 0 1 16 226 469 228 ?234 200 235 236 0 0 1 30 255 227 110 0 200 236 237
 0 +0 .009525 0 -1 -910615997888088e-31 0 30 236 112 0 226 233 227 0 +0 -.009525
 0 -1 -910615997888088e-31 0 30 237 460 0 208 227 209 0 --.009398 .009525 .0127
 0 0 -1 16 208 458 238 ?198 194 225 237 0 0 1 30 209 465 0 194 237 239 0 +.00939
8 .009525 .0127 0 0 -1 31 255 239 479 0 207 209 240 0 --.009398 .000126999999999
9942 0 0 0 1 1 0 0 .009652 16 207 477 241 ?170 223 194 239 0 0 1 31 240 482 0 22
3 239 242 0 --.009398 -.0001269999999999978 0 0 0 1 1 0 0 .009652 16 223 480 243
 ?186 219 207 240 0 0 1 31 242 488 0 219 240 220 0 -.009398 .000126999999999996
 0 0 0 1 1 0 0 .009652 16 219 486 244 ?178 211 223 242 0 0 1 31 220 491 0 211 24
2 245 0 -.009398 -.000126999999999996 0 0 0 1 1 0 0 .009652 30 245 549 0 218 220
 246 0 +-.009398 -.009525 .0127 0 0 -1 16 218 1304 247 ?174 248 211 245 0 0 1 30
 246 554 0 248 245 249 0 -.009398 -.009525 .0127 0 0 -1 16 248 552 250 ?251 252
 218 246 0 0 1 30 249 613 0 214 246 253 0 -.01904916443751735 -659194920871187e-
31 .01905 0 0 1 16 214 938 254 ?166 255 256 249 0 0 1 30 253 649 0 256 249 257 0
 --.01904916443751735 64211873665454e-30 .00635 0 0 -1 16 256 639 258 ?259 214 2
60 253 0 0 1 30 257 743 0 252 253 261 0 -.0127 .00894261410424942 .022352 0 -1 0
 16 252 917 262 ?263 264 248 257 0 0 1 30 261 833 0 264 257 265 0 -0 .009525 .03
302 0 -1 0 16 264 1356 266 ?162 267 252 261 0 0 1 30 265 838 0 267 261 268 0 +0
 0 .01778 0 -1 0 16 267 836 269 ?270 271 264 265 0 0 1 30 268 851 0 271 265 272
 0 --.00508 0 .0127 0 -1 0 16 271 1291 273 ?154 274 267 268 0 0 1 30 272 872 0 2
74 268 275 0 -.00762 0 .0381 0 -1 0 16 274 1374 276 ?41 277 271 272 0 0 1 30 275
 877 0 277 272 278 0 +.00508 -.009525 .0381 0 -1 0 16 277 875 279 ?42 280 274 27
5 0 0 1 31 278 887 0 280 275 281 0 -.022352 -.009525 .022352 910615997888088e-31
 -1 0 1 910615997888088e-31 0 .014732 16 280 885 282 ?139 283 277 278 0 0 1 30 2
81 890 0 283 278 284 0 -.00762 -.009525 .0127 0 0 -1 16 283 888 285 ?286 203 280
 281 0 0 1 31 284 905 0 203 281 287 0 +.022352 .009525 .022352 910615997888088e-
31 -1 0 1 910615997888088e-31 0 .014732 16 203 903 288 ?135 289 283 284 0 0 1 30
 287 908 0 289 284 290 0 -.00762 .009525 .022352 0 0 1 16 289 906 291 ?131 292 2
03 287 0 0 1 31 290 913 0 292 287 293 0 -.00508 .009525 .03302 910615997888088e-
31 -1 0 1 910615997888088e-31 0 .00508 16 292 911 294 ?147 295 289 290 0 0 1 30
 293 927 0 295 290 296 0 +.0127 -.004445 .0381 0 0 -1 16 295 925 297 ?127 298 29
2 293 0 0 1 30 296 931 0 298 293 299 0 +.0127 0 .03302 0 -1 0 16 298 929 300 ?30
1 302 295 296 0 0 1 30 299 934 0 302 296 303 0 +.0127 .004445 .0381 0 0 1 16 302
 932 304 ?115 305 298 299 0 0 1 38 12 CCCCCCCCCCCA17 intersection_data204 0 Z303
 943 0 305 299 306 0 +307 308 309 310 311 312 16 305 941 313 ?111 314 302 303 0
 0 1 38 306 953 0 314 303 315 0 +316 317 318 319 320 321 59 255 307 944 0 1 317
 316 322 +1 323 51 255 308 612 0 212 324 325 326 +.009398 -.000126999999999996 .
0127 0 0 -1 .009652 -1 0 0 40 255 10 309 0 1 10 .000638634625202382 .38967852255
43675 ??.00564444444444445 .00876523957680843 .022352 .0061531591082371 .0089632
2065668064 .01969834656550865 .00718008032107226 .00926671791666245 .01778 .0098
1998711034188 .00951577091290182 .0149787736239406 .01088779388681572 .009409331
4841089 .01416598929604946 .01376877862052498 .00847866082589605 .01242333461420
192 .0161956236698528 .00672525630307687 .0112939872101696 .01786538182902795 .0
0450598488681402 .01064507206192112 .01888261694897155 .00166273331289363 .01029
221346629384 .01904916443751735 -660679993772869e-31 .01023724598790366 41 3 CI8
 term_use0 0 1 cCZ1 310 L?.00564444444444445 .00876523957680843 .022352 41 1 311
 L?.01904916443751735 -660679993772869e-31 .01023724598790366 204 2 17 INTERSECT
ION_DATA17 Intersection data7 uv_type0 0 1 u6 values0 1 1 fT20 312 3 1.171371086
914302 -.009652 1.227934984733414 -.00699834656550867 1.33893585009331 -.00508 1
.61453044002535 -.00227877362394059 1.72576666840916 -.001465989296049452 2.0407
4057131517 .0002766653857980695 2.352192085657825 .001406012789830416 2.64093500
204835 .002054927938078885 2.955087126435985 .00240778653370615 3.1284343791519
 .002462754012096345 14 255 212 586 327 ?328 329 204 6 308 +0 0 328 329 28 50 25
5 324 132 0 17 330 308 0 +0 -.009525 .0127 910615997888088e-31 -1 0 1 9106159978
88088e-31 0 51 325 611 0 329 308 331 332 +.009398 .000126999999999996 .0127 0 0
 1 .009652 1 0 0 141 255 326 303 333 333 308 141 333 323 326 326 308 56 323 1097
 0 334 335 336 337 +R308 317 338 -.00508 .00508 1 1 0 0 0 0 14 334 1044 339 ?340
 341 342 6 323 +0 0 340 341 28 51 335 1098 0 1 343 323 344 +.022352 0 .022352 0
 1 0 .014732 0 0 1 51 336 1096 0 1 323 345 346 +.022352 0 .022352 0 1 0 .014732
 0 0 1 141 337 347 348 349 323 51 317 786 0 350 351 307 352 +.022352 0 .022352 0
 1 0 .009652 0 0 1 38 338 1106 0 1 353 354 355 +336 345 356 357 358 359 38 353 1
107 0 1 347 338 360 -343 335 361 362 363 364 31 354 1252 0 365 338 366 0 +-.0095
25 -731272862433154e-33 .01143 0 0 1 1 0 0 .0022225 141 355 323 355 355 338 51 3
45 1095 0 1 336 367 368 +.009398 -.000126999999999996 .0127 0 0 -1 .004572 -1 0
 0 40 8 356 .03966438186569435 .996373204271156 8 .000857177378899169 .390717120
9734205 ??.00834740646787634 .004322655855261165 .01778 .01010369184112324 .0043
90209650367375 .01416598929604946 .01146836882024868 .00394936565437182 .0124233
3461420192 .01261792700150924 .00311880561724695 .0112939872101696 .013408865076
908 .002067571788490855 .01064507206192112 .01389071329161812 .00072076841137067
 .01029221346629384 .01394540767707948 -.000600568810669139 .01025402374294718 .
01364800756459478 -.001812413807018075 .01046619587556616 41 1 357 L?.0083474064
6787634 .004322655855261165 .01778 41 1 358 L?.01364800756459478 -.0018124138070
18075 .01046619587556616 204 32 359 4 4.39683323128633 .004322655855261165 1.338
93585009331 -.00508 4.12323014005229 .004390209650367375 1.72576666840916 -.0014
65989296049452 3.972843346512655 .00394936565437182 2.04074057131517 .0002766653
857980695 3.863401486510895 .00311880561724695 2.352192085657825 .00140601278983
0416 3.79394204344149 .002067571788490855 2.64093500204835 .002054927938078885 3
.75339944238367 .00072076841137067 2.955087126435985 .00240778653370615 3.748871
349904055 -.000600568810669139 3.24535899973678 .00244597625705282 3.77367018197
1965 -.001812413807018075 3.519136263985215 .002233804124433845 54 255 367 1274
 0 369 345 370 0 +-.009525 -731272862433154e-33 .01143 0 0 1 .0034925 .00127 1 0
 0 141 368 338 368 368 345 14 369 1267 371 ?19 372 373 6 367 +0 0 19 372 28 54 3
70 1463 0 374 367 375 376 +-.009398 .0001269999999999942 .012446 0 0 1 .009398 2
54e-6 1 0 0 14 374 1417 377 ?0 378 379 6 370 +0 0 0 378 28 51 375 1462 0 378 370
 380 0 +-2312964634635745e-35 -.009271 .012446 -1 -910615997888088e-31 0 254e-6
 910615997888088e-31 -1 0 141 376 381 376 376 370 38 381 1318 0 382 383 384 0 +3
31 370 385 386 387 388 16 382 1316 389 ?182 390 391 381 0 0 1 31 383 1313 0 391
 392 381 0 --.009398 .0001269999999999942 .012446 0 0 1 1 0 0 .009652 30 384 132
8 0 390 381 393 0 +0 -.009525 .037846 -1 -910615997888088e-31 0 51 331 648 0 394
 325 351 395 +-.009398 -.0001269999999999978 .0127 0 0 1 .009652 1 0 0 40 12 385
 0 1 12 .000543859225516472 .396030018840806 ??-.01904916443751735 6421187366545
4e-30 .012446 -.0190491567332306 584131526276551e-21 .01244879440264022 -.019049
13108420405 250982788941779e-20 .01245179207994476 -.01904905885961155 778459968
881518e-20 .01245619935993742 -.0190486964680052 316243437578895e-19 .0124665449
050254 -.0190465142607108 .0001323772558649374 .01248792677463932 -.019026907066
7914 .000540272582304183 .0125298181213906 -.01877395705168955 .0021648406063408
25 .01260650419189764 -.0174910491835755 .00513262535854292 .01267094114295402 -
.0152975179659409 .00751216171903311 .01269414015314552 -.0124371191190902 .0090
3405119404867 .01269965367095774 -.009398 .009525 .0127 41 1 386 L?-.01904916443
751735 64211873665454e-30 .012446 41 1 387 L?-.009398 .009525 .0127 204 48 388 4
 3.128434379151885 -254e-6 3.15475092802769 0 3.12837385466668 -.000251205597359
779 3.154690424451555 .01100180713906404 3.12817432429236 -.000248207920055237 3
.154490962325695 .0228054411043067 3.1276277778452 -.00024380064006258 3.1539445
9746094 .0401657593368367 3.125157563966515 -.000233455094974598 3.1514751062864
75 .080973911795135 3.11471651555067 -.000212073225360685 3.14103533925487 .1658
24971349853 3.072404376128245 -.0001701818786093905 3.098698990486755 .336295740
1547985 2.90185558388788 -934958081023479e-19 2.92757382032263 .684010310394887
 2.565291844503145 -29058857045983e-18 2.58767450324715 1.087773622738802 2.2284
0040425634 -585984685448279e-20 2.2448258632256 1.35557774401172 1.8911153427422
7 -3463290422518055e-22 1.89961343816463 1.518569702655345 1.57079632679489 0 1.
57079632679489 1.570796326794855 14 394 630 396 ?350 328 397 6 331 +0 0 350 328
 28 51 351 647 0 328 331 317 0 +-.009398 .0001269999999999942 .0127 0 0 -1 .0096
52 -1 0 0 141 395 381 395 395 331 14 328 628 398 ?394 212 399 6 351 +0 0 394 212
 28 81 1 398 1589 400 328 401 0 327 396 402 15 399 629 0 403 328 0 13 28 49 0 0
 0 0 0 0 10 17 14 17 128 404 ?197 0 405 6 324 +0 0 197 0 28 81 1 404 1579 400 17
 406 0 0 407 408 14 197 124 407 ?409 17 191 6 330 -0 0 409 17 28 15 405 127 0 67
 17 0 17 67 0 405 87 71 65 410 411 0 412 +17 87 0 405 174 67 84 413 414 0 403 +1
7 71 0 405 67 74 68 415 416 0 417 +17 410 0 418 419 412 68 67 411 0 0 -16 411 13
38 420 ?67 414 416 421 0 0 1 17 412 0 418 410 422 65 423 424 0 413 -15 418 1414
 0 419 425 0 17 422 0 418 412 419 92 64 426 0 423 -17 423 0 427 428 413 92 412 4
24 0 0 +16 424 1436 429 ?423 430 431 432 0 0 1 17 413 0 427 423 433 65 87 414 0
 0 -15 427 1416 0 423 378 0 17 433 0 427 413 428 84 91 431 0 0 -16 414 1341 434
 ?87 426 411 435 0 0 1 81 1 434 1549 36 414 0 0 436 437 438 16 426 1350 439 ?64
 440 414 441 0 0 1 30 435 1343 0 414 421 441 0 +0 -.009525 .012446 -1 -910615997
888088e-31 0 31 421 1340 0 411 442 435 0 --.00508 -.009525 .01778 91061599788808
8e-31 -1 0 1 910615997888088e-31 0 .005334 31 441 1352 0 426 435 443 0 +-.00508
 -.009271 .01778 910615997888088e-31 -1 0 1 910615997888088e-31 0 .00508 30 443
 1361 0 440 441 444 0 -0 -.009271 .03302 0 0 -1 16 440 1359 445 ?58 56 426 443 0
 0 1 31 444 1370 0 56 443 446 0 -.00508 -.009271 .03302 910615997888088e-31 -1 0
 1 910615997888088e-31 0 .00508 16 56 1368 447 ?47 44 440 444 0 0 1 30 446 1379
 0 44 444 448 0 -844232091642047e-33 -.009271 .0381 -1 -910615997888088e-31 0 16
 44 1377 449 ?34 31 56 446 0 0 1 32 448 1384 0 31 446 32 0 +.00762 -.004445 .033
02 0 .724999433594414 .688749461914693 0 -.688749461914693 .724999433594414 .007
00690202585993 .00508 16 31 1382 450 ?119 11 44 448 0 0 1 32 32 1389 0 11 448 45
1 0 -.00762 -.004445 .03302 0 .688749461914693 .724999433594414 0 -.724999433594
414 .688749461914693 .00700690202585993 .00508 31 451 1470 0 431 32 432 0 +-.009
398 -.009271 .012446 -1 0 0 0 0 1 254e-6 16 431 1441 452 ?91 424 0 451 0 0 1 31
 432 1469 0 424 451 453 0 +-.00508 -.009271 .012446 -1 0 0 0 0 1 254e-6 31 453 1
468 0 430 432 454 0 +254e-6 -.009271 .01778 0 0 -1 -1 0 0 254e-6 16 430 1433 455
 ?419 456 424 453 0 0 1 31 454 1467 0 456 453 457 0 +254e-6 -.009271 .03302 0 0
 -1 -1 0 0 254e-6 16 456 1430 458 ?459 460 430 454 0 0 1 31 457 1466 0 460 454 2
5 0 +.00508 -.009271 .037846 -1 0 0 0 0 1 254e-6 16 460 1427 461 ?462 463 456 45
7 0 0 1 31 25 1465 0 463 457 8 0 +.00762 -.009271 .037846 -1 0 -3414809992080365
e-30 -3414809992080365e-30 0 1 254e-6 16 463 1424 464 ?465 466 460 25 0 0 1 81 1
 464 1542 36 463 0 0 420 450 467 17 465 0 468 43 469 12 470 463 0 0 +16 466 1078
 471 ?472 473 463 474 0 0 1 81 1 471 1201 36 466 0 0 475 300 476 17 472 0 477 45
 478 148 479 466 0 480 +16 473 1075 481 ?482 483 466 484 0 0 1 32 474 1113 0 466
 485 484 0 -.00762 .004445 .03302 0 .707106781186548 -.707106781186548 0 -.70710
6781186548 -.707106781186548 .00718420489685532 .00508 31 485 982 0 486 487 474
 0 +-.00508 .009525 .01778 910615997888088e-31 -1 0 1 910615997888088e-31 0 .005
08 31 484 1112 0 473 474 488 0 +.00762 -.004445 .022352 0 0 1 1 0 0 .00508 31 48
8 1111 0 483 484 489 0 +.00762 .004445 .022352 0 0 1 1 0 0 .00508 16 483 1072 49
0 ?491 492 473 488 0 0 1 31 489 1110 0 492 488 493 0 +.009398 -.004445 .01533589
652299795 -.476249217825281 -162630058775021e-30 .879310344827586 .8793103448275
86 0 .476249217825281 .00508 16 492 1069 494 ?495 496 483 489 0 0 1 31 493 1109
 0 496 489 347 0 +.009398 .004445 .015335896522998 -.47624921782528 -30026777516
5684e-30 .879310344827586 .879310344827587 0 .47624921782528 .00508 16 496 1066
 497 ?498 260 492 493 0 0 1 38 347 1108 0 260 493 353 0 +499 323 500 501 502 503
 16 260 1063 504 ?505 256 496 347 0 0 1 56 499 1100 0 340 506 343 507 +R325 317
 353 -.00508 .00508 1 1 0 0 0 0 40 4 500 0 1 4 .000286390248416448 .337380072433
971 ??.01904916443751735 -659194920871187e-31 .01023724598790366 .01876277418910
09 -608615391142239e-31 .01191880970107052 .01793595073453205 -482064652988391e-
31 .0134107919068206 .0169041235848882 -3284852370229775e-30 .01438390954565018
 41 1 501 L?.01904916443751735 -659194920871187e-31 .01023724598790366 41 2 502
 TF.0168591889532326 -4071364441157785e-32 .01441536779203484 .0169041235848882
 -3284852370229775e-30 .01438390954565018 204 20 503 4 .0513965350464294 0 .0513
965350464294 1 .0513860192425622 .34940284480459 .0513860192425622 .650597155195
41 .0513654984914922 .698780522132607 .0513654984914922 .301219477867393 .051332
2087880563 .988820394734213 .0513322087880627 .0111796052657578 .051330401697517
7 1 .0513304016975178 0 14 340 1046 508 ?509 334 510 6 499 +0 0 509 334 28 54 50
6 1101 0 509 511 499 0 +.022352 .004445 .022352 910615997888088e-31 -1 0 .014732
 .00508 1 910615997888088e-31 0 51 343 1099 0 1 499 335 512 +.009398 .0001269999
99999996 .0127 0 0 1 .004572 1 0 0 141 507 347 513 514 499 141 513 515 514 507 4
99 141 514 316 507 513 499 59 316 954 0 1 307 516 517 +0 499 59 516 961 0 1 316
 515 518 +0 323 141 517 306 517 517 316 59 515 970 0 1 516 519 520 +1 499 141 51
8 521 518 518 516 38 521 960 0 522 315 523 0 +516 317 524 525 526 527 16 522 958
 528 ?99 529 530 521 0 0 1 31 315 956 0 530 306 521 0 +.022352 -.004445 .022352
 910615997888088e-31 -1 0 1 910615997888088e-31 0 .009652 31 523 964 0 529 521 4
87 0 -.022352 .004445 .022352 910615997888088e-31 -1 0 1 910615997888088e-31 0 .
009652 40 8 524 0 1 8 .000544612454294543 .3779673920120475 ??.0168591889532326
 -312091295372303e-31 .01441536779203484 .01680839836347395 .00072076841137067 .
01445076054688218 .0164927047055604 .002067571788490855 .01468194376470694 .0159
7450389754055 .00311880561724695 .0151070950687318 .01522134508912845 .003949365
65437182 .01584701233344265 .01432724637866694 .004390209650367375 .016988751607
75655 .01317657665136726 .004322655855261165 .01935655172413795 .0127 .004085113
483751365 .022352 41 1 525 L?.0168591889532326 -312091295372303e-31 .01441536779
203484 41 1 526 L?.0127 .004085113483751365 .022352 204 16 527 3 3.7469856493271
15 -312091295372303e-31 3.75339944238367 .00072076841137067 3.79394204344149 .00
2067571788490855 3.863401486510895 .00311880561724695 3.972843346512655 .0039493
6565437182 4.12323014005229 .004390209650367375 4.39683323128633 .00432265585526
1165 4.71238898038469 .004085113483751365 16 529 962 531 ?123 532 522 523 0 0 1
 38 487 969 0 532 523 485 0 +515 325 533 534 535 536 16 532 967 537 ?143 486 529
 487 0 0 1 40 10 533 0 1 10 .000575525273474558 .330832630891777 ??.019049164437
51735 -659194920871187e-31 .01023724598790366 .01888261694897155 -.0016627333128
9363 .01029221346629384 .01786538182902795 -.00450598488681402 .0106450720619211
2 .0161956236698528 -.00672525630307687 .01129398721016958 .01376877862052496 -.
00847866082589605 .01242333461420192 .01088779388681572 -.0094093314841089 .0141
6598929604946 .00823027901986662 -.00945410284427407 .0164707385364143 .00718008
032107226 -.00926671791666245 .01778 .00599029179637048 -.00890342794107336 .020
1611037713156 .00564444444444445 -.00876523957680843 .022352 41 1 534 L?.0190491
6443751735 -659194920871187e-31 .01023724598790366 41 1 535 L?.00564444444444445
 -.00876523957680843 .022352 204 20 536 3 6.27002703274168 -.002462754012096345
 6.09667978002578 -.00240778653370615 5.78252765563814 -.002054927938078885 5.49
378473924762 -.001406012789830418 5.18233322490496 -.0002766653857980675 4.86735
932199895 .001465989296049454 4.59110960751247 .003770738536414315 4.48052850368
3105 .00508 4.35155224129922 .00746110377131558 4.312963740504095 .009652 81 1 5
37 1210 36 532 0 0 481 497 538 17 143 0 539 540 213 140 541 532 0 251 +16 486 97
7 475 ?158 365 532 485 0 0 1 81 1 475 1197 36 486 0 0 294 471 542 17 158 0 191 1
96 543 155 544 486 0 545 +16 365 1249 546 ?547 548 486 354 0 0 1 81 1 546 1278 3
6 365 0 0 549 550 551 17 547 0 552 547 547 0 553 365 0 0 +16 548 1255 550 ?554 5
55 365 366 0 0 1 81 1 550 1279 36 548 0 0 546 556 557 17 554 0 558 554 554 0 559
 548 0 0 +16 555 1295 437 ?95 560 548 561 0 0 1 31 366 1258 0 548 354 561 0 --.0
09525 -731272862433154e-33 .0127 0 0 1 1 0 0 .0034925 30 561 1297 0 555 366 392
 0 -844232091642047e-33 -.009271 .0127 -1 -910615997888088e-31 0 31 392 1300 0 5
60 561 383 0 +-.009398 .0001269999999999942 .0127 0 0 1 1 0 0 .009398 16 560 129
8 562 ?563 391 555 392 0 0 1 81 1 562 1533 36 560 0 0 452 458 564 17 563 0 565 9
5 232 88 566 560 0 0 +16 391 1311 567 ?83 382 560 383 0 0 1 81 1 567 1530 36 391
 0 0 118 389 568 17 83 0 399 569 403 80 570 391 0 259 +17 569 0 399 571 83 167 2
59 256 0 222 -17 403 0 399 83 571 84 174 218 0 570 -17 570 0 379 91 572 84 83 39
1 0 433 -17 259 0 397 182 222 80 569 256 0 572 +15 397 631 0 259 394 0 17 182 0
 397 201 259 179 572 382 0 232 +17 222 0 397 259 201 167 186 223 0 0 -17 572 0 3
79 570 566 80 182 382 0 0 -15 379 1418 0 572 374 0 17 566 0 379 572 91 179 563 5
60 0 0 -17 91 0 379 566 570 88 433 431 0 428 +17 428 0 427 433 423 88 95 555 0 5
63 -17 95 0 565 154 563 92 428 555 0 573 +15 565 223 0 232 409 0 17 154 0 565 23
2 95 151 573 271 0 543 +17 573 0 574 64 544 92 154 271 0 422 -15 574 1001 0 573
 575 0 17 64 0 574 576 573 59 422 426 0 270 +17 544 0 574 573 576 151 158 486 0
 0 -17 576 0 574 544 64 155 270 267 0 0 -17 270 0 577 58 545 59 576 267 0 578 +1
5 577 309 0 270 579 0 17 58 0 577 162 270 48 578 440 0 54 +17 545 0 577 270 162
 155 196 235 0 576 +17 578 0 580 417 459 59 58 440 0 419 -15 580 1412 0 459 581
 0 17 417 0 580 415 578 68 419 430 0 410 -17 459 0 580 578 415 48 582 456 0 0 +1
7 419 0 418 422 410 59 417 430 0 0 +17 415 0 580 459 417 72 71 416 0 0 -17 582 0
 583 584 55 72 459 456 0 415 -15 583 1410 0 462 585 0 17 584 0 583 462 582 75 74
 586 0 0 -17 55 0 583 582 462 48 47 56 0 459 -17 462 0 583 55 584 35 587 460 0 0
 +17 587 0 468 469 43 75 462 460 0 584 -15 468 1408 0 465 588 0 17 469 0 468 465
 587 78 77 390 0 0 -17 43 0 468 587 465 35 34 44 0 462 -17 77 0 405 74 286 75 46
9 390 0 587 +16 390 1326 436 ?77 586 382 384 0 0 1 81 1 436 1548 36 390 0 0 449
 434 589 16 586 1330 590 ?74 416 390 393 0 0 1 81 1 590 1537 36 586 0 0 447 455
 591 17 74 0 405 71 77 72 584 586 0 582 +16 416 1334 592 ?71 411 586 442 0 0 1 3
1 393 1332 0 586 384 442 0 +.00508 -.009525 .03302 910615997888088e-31 -1 0 1 91
0615997888088e-31 0 .004826 30 442 1336 0 416 393 421 0 +254e-6 -.009525 .01778
 0 0 -1 81 1 592 1546 36 416 0 0 445 449 593 80 7 CCCCCDI12 legal_owners0 16 1 l
CZ1 36 594 595 9000 0 0 0 0 3 6 0 0 0 FFTFTFTTFFFFFFFF1 81 1 445 1545 36 440 0 0
 29 592 596 81 1 449 1547 36 44 0 0 592 436 597 82 255 3 593 19 16 1 82 3 597 19
 17 1 81 1 29 1544 36 11 0 0 450 445 598 82 3 596 19 15 1 81 1 450 1543 36 31 0
 0 464 29 599 82 3 598 19 14 1 82 3 599 19 13 1 79 255 9 595 BTI/DetId81 1 447 1
536 36 56 0 0 461 590 600 81 1 455 1538 36 430 0 0 590 429 601 82 3 591 19 7 1 8
1 1 429 1539 36 424 0 0 455 439 602 82 3 601 19 8 1 81 1 439 1540 36 426 0 0 429
 420 603 82 3 602 19 9 1 81 1 420 1541 36 411 0 0 439 464 604 82 3 603 19 10 1 8
2 3 604 19 11 1 81 1 461 1535 36 460 0 0 458 447 605 82 3 600 19 6 1 81 1 458 15
34 36 456 0 0 562 461 606 82 3 605 19 5 1 82 3 606 19 4 1 82 3 589 19 18 1 17 28
6 0 405 77 139 78 607 283 0 470 +17 139 0 405 286 251 136 608 280 0 609 +17 607
 0 610 482 30 136 286 283 0 0 -17 470 0 611 612 613 78 465 463 0 469 -15 611 140
6 0 612 19 0 17 612 0 611 613 470 116 30 11 0 0 -17 613 0 611 470 612 12 119 31
 0 465 -17 119 0 477 478 45 116 613 31 0 614 +15 477 1057 0 45 372 0 17 478 0 47
7 472 119 112 301 298 0 0 -17 45 0 477 119 472 12 41 274 0 613 -17 614 0 610 30
 482 116 127 295 0 301 -15 610 1055 0 614 615 0 17 30 0 610 607 614 78 612 11 0
 286 +17 482 0 610 614 607 124 609 473 0 0 +17 127 0 616 263 301 124 614 295 0 6
17 +17 301 0 616 127 115 116 478 298 0 612 +15 616 317 0 263 618 0 17 115 0 616
 301 263 112 619 302 0 479 +17 263 0 616 115 127 120 617 252 0 620 +17 619 0 621
 491 479 120 115 302 0 0 -17 479 0 621 619 480 112 472 466 0 478 -15 621 1053 0
 491 622 0 17 480 0 621 479 491 148 131 289 0 623 -17 491 0 621 480 619 128 620
 483 0 0 +17 131 0 191 135 623 128 480 289 0 202 +17 623 0 191 131 147 148 624 6
25 0 0 -17 147 0 191 623 196 144 626 292 0 624 +17 624 0 40 42 41 144 623 625 0
 53 +16 625 855 627 ?624 235 255 628 0 0 1 81 1 627 1220 36 625 0 0 206 231 629
 16 235 824 630 ?545 226 625 631 0 0 1 16 255 402 632 ?633 625 214 634 0 0 1 30
 628 345 0 625 634 631 0 +0 .009525 .0381 -1 -910615997888088e-31 0 31 634 431 0
 255 0 628 0 +-.009525 -731272862433154e-33 0 0 0 1 1 0 0 .0022225 30 631 334 0
 235 628 233 0 +0 .009525 .0381 0 0 -1 30 233 19 0 225 631 236 0 +0 .009525 .012
7 -1 -910615997888088e-31 0 81 1 632 433 36 255 0 0 635 165 636 17 633 0 637 633
 633 0 638 255 0 0 +15 637 384 0 633 221 215 17 638 0 639 638 638 0 633 255 0 0
 -15 639 415 0 638 640 0 14 640 412 641 ?329 642 552 6 643 -0 0 329 642 28 81 1
 641 1586 400 640 644 0 645 646 647 14 329 584 646 ?212 640 539 6 325 +0 0 212 6
40 28 14 642 318 645 ?640 618 40 6 648 +0 0 640 618 28 15 552 1250 0 547 640 639
 51 643 427 0 640 0 648 0 +-.009525 -731272862433154e-33 0 0 0 1 .0022225 1 0 0
 50 648 333 0 642 643 649 0 +0 0 .0381 0 0 1 1 0 0 50 649 331 0 618 648 650 0 +.
0127 0 .0381 1 0 0 0 0 -1 14 618 314 651 ?642 579 616 6 649 +0 0 642 579 28 50 6
50 329 0 579 649 652 0 +0 0 .0381 1 0 0 0 0 -1 14 579 306 653 ?618 221 577 6 650
 -0 0 618 221 28 50 652 3 0 409 650 654 0 +0 0 .0127 0 0 1 1 0 0 14 409 1 655 ?2
21 197 558 6 652 +0 0 221 197 28 50 654 108 0 221 652 330 0 +0 0 0 0 0 1 1 0 0 1
4 221 68 656 ?579 409 637 6 654 -0 0 579 409 28 50 330 130 0 197 654 324 0 +0 .0
09525 .0127 910615997888088e-31 -1 0 1 910615997888088e-31 0 81 1 656 1582 400 2
21 229 0 655 653 657 80 1 400 0 658 8001 0 0 0 0 3 5 0 0 0 FFFFTFTFFFFFFFFF2 81
 1 229 730 36 221 0 656 224 161 659 81 1 655 1581 400 409 660 0 407 656 661 81 1
 653 1583 400 579 662 0 656 651 663 83 255 3 657 .498039215686275 .4980392156862
75 .498039215686275 81 1 662 1572 36 579 0 653 664 665 666 81 1 651 1584 400 618
 667 0 653 645 668 83 3 663 .498039215686275 .498039215686275 .498039215686275 8
1 1 667 1239 36 618 0 651 669 670 671 81 1 645 1585 400 642 665 0 651 641 672 83
 3 668 .498039215686275 .498039215686275 .498039215686275 81 1 665 1573 36 642 0
 645 662 406 673 83 3 672 .498039215686275 .498039215686275 .498039215686275 81
 1 406 1574 36 17 0 404 665 660 674 82 3 673 19 14 2 81 1 660 1575 36 409 0 655
 406 0 675 82 3 674 19 15 2 82 3 675 19 16 2 81 1 669 1238 36 212 0 327 676 667
 677 81 1 670 1240 36 314 0 0 667 678 679 82 3 671 17 13 2 16 314 951 670 ?103 5
30 305 306 0 0 1 81 1 678 1241 36 530 0 0 670 528 680 82 3 679 17 35 1 16 530 95
5 678 ?107 522 314 315 0 0 1 81 1 528 1242 36 522 0 0 678 531 681 82 3 680 17 36
 1 81 1 531 1243 36 529 0 0 528 682 683 82 3 681 17 37 1 81 1 682 1244 36 684 0
 685 531 686 687 82 3 683 17 38 1 14 684 1050 685 ?622 509 688 6 511 +0 0 622 50
9 28 81 1 685 1597 400 684 682 0 689 690 691 81 1 686 1245 36 340 0 508 682 692
 693 82 3 687 17 14 2 81 1 508 1595 400 340 686 0 339 689 694 81 1 692 1246 36 5
09 0 689 686 549 695 82 3 693 17 15 2 14 509 1048 689 ?684 340 696 6 506 +0 0 68
4 340 28 81 1 689 1596 400 509 692 0 508 685 697 81 1 549 1247 36 334 0 339 692
 546 698 82 3 695 17 16 2 81 1 339 1594 400 334 549 0 699 508 700 82 3 698 17 17
 2 81 1 699 1593 400 341 701 0 702 339 703 83 3 700 .498039215686275 .4980392156
86275 .498039215686275 14 341 1021 699 ?334 575 52 6 704 +0 0 334 575 28 81 1 70
1 1568 36 341 0 699 705 706 707 81 1 702 1592 400 575 706 0 708 699 709 83 3 703
 .498039215686275 .498039215686275 .498039215686275 14 575 1000 702 ?341 350 574
 6 519 -0 0 341 350 28 81 1 706 1569 36 575 0 702 701 710 711 81 1 708 1591 400
 350 712 0 396 702 713 83 3 709 .498039215686275 .498039215686275 .4980392156862
75 14 350 776 708 ?575 394 714 6 317 -0 0 575 394 28 81 1 712 1236 36 350 0 708
 715 676 716 81 1 396 1590 400 394 705 0 398 708 717 83 3 713 .498039215686275 .
498039215686275 .498039215686275 81 1 705 1567 36 394 0 396 401 701 718 83 3 717
 .498039215686275 .498039215686275 .498039215686275 81 1 401 1566 36 328 0 398 7
19 705 720 82 3 718 19 8 2 81 1 719 1565 36 378 0 721 722 401 723 82 3 720 19 7
 2 14 378 1415 721 ?374 425 427 6 375 +0 0 374 425 28 81 1 721 1607 400 378 719
 0 724 377 725 81 1 722 1564 36 588 0 726 727 719 728 82 3 723 19 6 2 14 588 140
7 726 ?585 19 468 6 20 +0 0 585 19 28 81 1 726 1603 400 588 722 0 729 730 731 81
 1 727 1563 36 581 0 732 733 722 734 82 3 728 19 5 2 14 581 1411 732 ?425 585 58
0 6 735 +0 0 425 585 28 81 1 732 1605 400 581 727 0 730 724 736 81 1 733 1562 36
 19 0 729 737 727 738 82 3 734 19 4 2 14 19 1405 729 ?588 369 611 6 7 +0 0 588 3
69 28 81 1 729 1602 400 19 733 0 371 726 739 81 1 737 1561 36 425 0 724 740 733
 741 82 3 738 19 3 2 14 425 1413 724 ?378 581 418 6 380 +0 0 378 581 28 81 1 724
 1606 400 425 737 0 732 721 742 81 1 740 1560 36 585 0 730 743 737 744 82 3 741
 19 2 2 14 585 1409 730 ?581 588 583 6 745 +0 0 581 588 28 81 1 730 1604 400 585
 740 0 726 732 746 81 1 743 1559 36 374 0 377 285 740 747 82 3 744 19 1 2 81 1 3
77 1608 400 374 743 0 721 0 748 81 1 285 1558 36 283 0 0 276 743 749 82 3 747 19
 0 2 81 1 276 1557 36 274 0 0 273 285 750 82 3 749 19 28 1 81 1 273 1556 36 271
 0 0 269 276 751 82 3 750 19 27 1 81 1 269 1555 36 267 0 0 279 273 752 82 3 751
 19 26 1 81 1 279 1554 36 277 0 0 266 269 753 82 3 752 19 25 1 81 1 266 1553 36
 264 0 0 247 279 754 82 3 753 19 24 1 81 1 247 1552 36 218 0 0 258 266 755 82 3
 754 19 23 1 81 1 258 1551 36 256 0 0 437 247 756 82 3 755 19 22 1 81 1 437 1550
 36 555 0 0 434 258 757 82 3 756 19 21 1 82 3 757 19 20 1 83 3 748 .498039215686
275 .498039215686275 .498039215686275 83 3 746 .498039215686275 .498039215686275
 .498039215686275 54 745 1459 0 585 735 20 0 +.00508 -.009271 .03302 91061599788
8088e-31 -1 0 .004826 254e-6 1 910615997888088e-31 0 51 735 1460 0 581 380 745 0
 +254e-6 -.009271 .0127 0 0 1 254e-6 1 0 0 51 20 1458 0 588 745 7 0 +-2312964634
635745e-35 -.009271 .037846 -1 -910615997888088e-31 0 254e-6 910615997888088e-31
 -1 0 54 380 1461 0 425 375 735 0 +-.00508 -.009271 .01778 910615997888088e-31 -
1 0 .005334 254e-6 1 910615997888088e-31 0 83 3 742 .498039215686275 .4980392156
86275 .498039215686275 81 1 371 1601 400 369 556 0 758 729 759 83 3 739 .4980392
15686275 .498039215686275 .498039215686275 81 1 556 1280 36 369 0 371 550 644 76
0 81 1 758 1600 400 372 710 0 761 371 762 83 3 759 .498039215686275 .49803921568
6275 .498039215686275 14 372 1056 758 ?369 615 477 6 21 +0 0 369 615 28 81 1 710
 1570 36 372 0 758 706 664 763 81 1 761 1599 400 615 664 0 690 758 764 83 3 762
 .498039215686275 .498039215686275 .498039215686275 14 615 1054 761 ?372 622 610
 6 22 +0 0 372 622 28 81 1 664 1571 36 615 0 761 710 662 765 81 1 690 1598 400 6
22 766 0 685 761 767 83 3 764 .498039215686275 .498039215686275 .498039215686275
 14 622 1052 690 ?615 684 621 6 768 +0 0 615 684 28 81 1 766 1230 36 622 0 690 2
54 715 769 83 3 767 .498039215686275 .498039215686275 .498039215686275 81 1 254
 1225 36 214 0 0 262 766 770 81 1 715 1234 36 197 0 407 766 712 771 82 3 769 17
 4 2 81 1 407 1580 400 197 715 0 404 655 772 82 3 771 17 8 2 83 3 772 .498039215
686275 .498039215686275 .498039215686275 81 1 262 1224 36 252 0 0 231 254 773 82
 3 770 17 34 1 81 1 231 1223 36 225 0 0 627 262 774 82 3 773 17 33 1 82 3 774 17
 32 1 51 768 1103 0 622 22 511 0 +.00762 .004445 .0381 0 0 -1 .00508 -1 0 0 51 2
2 1104 0 615 21 768 775 +.00762 -.004445 .0381 0 0 -1 .00508 -1 0 0 54 511 1102
 0 684 768 506 0 +.022352 -.004445 .022352 910615997888088e-31 -1 0 .014732 .005
08 1 910615997888088e-31 0 51 21 1105 0 372 704 22 776 +.00762 0 .03302 0 -1 0 .
00508 0 0 -1 141 775 7 775 775 22 51 704 1033 0 341 519 21 0 +.00508 0 .03302 0
 1 0 .00508 0 0 1 141 776 7 776 776 21 51 519 1012 0 575 515 704 0 +-.00508 0 .0
1778 0 -1 0 .00508 0 0 -1 82 3 765 19 12 2 82 3 763 19 11 2 81 1 644 1281 36 640
 0 641 556 82 777 82 3 760 18 0 2 81 1 82 1515 36 80 0 0 644 86 778 82 3 777 18
 1 2 81 1 86 1516 36 84 0 0 82 181 779 82 3 778 19 0 0 81 1 181 1517 36 179 0 0
 86 90 780 82 3 779 19 1 0 81 1 90 1518 36 88 0 0 181 57 781 82 3 780 19 2 0 81
 1 57 1519 36 48 0 0 90 49 782 82 3 781 19 3 0 81 1 49 1520 36 72 0 0 57 46 783
 82 3 782 19 4 0 82 3 783 19 5 0 83 3 736 .498039215686275 .498039215686275 .498
039215686275 83 3 731 .498039215686275 .498039215686275 .498039215686275 83 3 72
5 .498039215686275 .498039215686275 .498039215686275 81 1 676 1237 36 329 0 646
 712 669 784 82 3 716 17 10 2 81 1 646 1587 400 329 676 0 641 327 785 82 3 784 1
7 11 2 81 1 327 1588 400 212 669 0 646 398 786 83 3 785 .498039215686275 .498039
215686275 .498039215686275 83 3 786 .498039215686275 .498039215686275 .498039215
686275 15 714 777 0 99 350 0 17 99 0 714 123 103 96 787 522 0 788 +17 123 0 714
 617 99 120 789 529 0 263 +17 103 0 714 99 107 100 790 314 0 787 +17 787 0 342 7
91 788 100 99 522 0 505 -17 788 0 342 787 205 96 498 496 0 789 -15 342 1045 0 78
8 334 0 17 205 0 342 788 791 132 111 305 0 498 -17 498 0 696 202 789 132 788 496
 0 0 +17 789 0 696 498 620 96 123 529 0 0 -15 696 1049 0 498 509 0 17 620 0 696
 789 202 120 491 483 0 619 -17 202 0 696 620 498 128 135 203 0 491 -17 791 0 342
 205 787 108 505 260 0 541 -17 111 0 204 166 193 108 205 305 0 213 +17 213 0 539
 143 216 108 166 214 0 791 -15 539 585 0 213 329 0 17 216 0 539 213 540 163 178
 219 0 0 -17 540 0 539 216 143 175 251 248 0 0 -17 178 0 215 234 210 175 216 219
 0 792 +17 234 0 215 170 178 171 792 226 0 571 +17 792 0 405 251 174 175 234 226
 0 540 -17 251 0 405 139 792 140 540 248 0 793 +17 174 0 405 792 87 171 403 218
 0 234 +17 793 0 510 541 790 140 495 492 0 608 -15 510 1047 0 505 340 0 17 541 0
 510 505 793 108 143 532 0 0 -17 790 0 510 793 505 104 103 314 0 495 -17 495 0 6
88 794 608 104 793 492 0 0 +17 608 0 688 495 609 140 139 280 0 0 -15 688 1051 0
 495 684 0 17 609 0 688 608 794 136 482 473 0 607 -17 794 0 688 609 495 124 107
 530 0 482 -17 107 0 714 103 617 104 794 530 0 790 +17 617 0 714 107 123 124 263
 252 0 794 -17 505 0 510 790 541 100 791 260 0 0 +17 170 0 215 186 234 167 571 2
07 0 569 +17 571 0 399 403 569 171 170 207 0 0 -82 3 711 19 10 2 82 3 707 19 9 2
 15 52 1022 0 54 341 0 17 54 0 52 47 626 48 162 264 0 55 -17 626 0 52 54 53 159
 147 292 0 0 -17 162 0 577 545 58 159 54 264 0 196 +17 196 0 191 147 158 159 545
 235 0 626 -17 53 0 52 626 47 144 42 277 0 0 -17 42 0 40 34 624 35 53 277 0 43 +
15 40 321 0 42 642 0 83 3 697 .498039215686275 .498039215686275 .498039215686275
 83 3 694 .498039215686275 .498039215686275 .498039215686275 83 3 691 .498039215
686275 .498039215686275 .498039215686275 82 3 677 17 12 2 82 3 666 19 13 2 83 3
 661 .498039215686275 .498039215686275 .498039215686275 81 1 161 1170 36 159 0 0
 229 146 795 82 3 659 15 9 2 81 1 146 1172 36 144 0 0 161 157 796 82 3 795 17 1
 0 81 1 157 1174 36 155 0 0 146 153 797 82 3 796 17 3 0 81 1 153 1176 36 151 0 0
 157 150 798 82 3 797 17 5 0 81 1 150 1178 36 148 0 0 153 114 799 82 3 798 17 7
 0 81 1 114 1180 36 112 0 0 150 138 800 82 3 799 17 9 0 81 1 138 1181 36 136 0 0
 114 142 801 82 3 800 17 11 0 81 1 142 1182 36 140 0 0 138 130 802 82 3 801 17 1
2 0 81 1 130 1183 36 128 0 0 142 134 803 82 3 802 17 13 0 81 1 134 1184 36 132 0
 0 130 102 804 82 3 803 17 14 0 81 1 102 1185 36 100 0 0 134 110 805 82 3 804 17
 15 0 81 1 110 1186 36 108 0 0 102 126 806 82 3 805 17 16 0 81 1 126 1187 36 124
 0 0 110 106 807 82 3 806 17 17 0 81 1 106 1188 36 104 0 0 126 122 808 82 3 807
 17 18 0 81 1 122 1189 36 120 0 0 106 98 809 82 3 808 17 19 0 81 1 98 1190 36 96
 0 0 122 294 810 82 3 809 17 20 0 81 1 294 1194 36 292 0 0 98 475 811 82 3 810 1
7 21 0 82 3 811 17 3 1 79 15 658 SDL/TYSA_COLOUR15 558 1256 0 554 409 565 83 3 6
47 .498039215686275 .498039215686275 .498039215686275 81 1 635 366 36 1 0 812 0
 632 813 81 1 165 680 36 163 0 0 632 177 814 82 3 636 14 0 1 81 1 177 684 36 175
 0 0 165 169 815 82 3 814 15 1 0 81 1 169 685 36 167 0 0 177 173 816 82 3 815 15
 5 0 81 1 173 687 36 171 0 0 169 188 817 82 3 816 15 6 0 82 3 817 15 8 0 81 1 81
2 1576 818 1 635 14 0 0 819 82 3 813 6 0 3 80 1 818 820 821 8038 0 0 0 0 0 0 0 0
 0 TTTTTTTTTTTTTFTF10 81 1 14 1577 820 1 812 2 0 0 822 98 255 6 819 80 97 114 11
6 32 49 80 1 820 823 824 8017 0 0 0 0 0 0 0 0 0 TTTTTTTTTTTTTFTF3 84 255 6 822 P
art 179 13 824 SDL/TYSA_NAME79 14 821 SDL/TYSA_UNAME81 1 630 1216 36 235 0 0 304
 250 825 81 1 304 1215 36 302 0 0 297 630 826 81 1 250 1218 36 248 0 0 630 206 8
27 82 3 825 17 25 1 81 1 206 1219 36 194 0 0 250 627 828 82 3 827 17 27 1 82 3 8
28 17 28 1 81 1 297 1214 36 295 0 0 313 304 829 82 3 826 17 24 1 81 1 313 1213 3
6 305 0 0 490 297 830 82 3 829 17 23 1 81 1 490 1212 36 483 0 0 497 313 831 82 3
 830 17 22 1 81 1 497 1211 36 496 0 0 537 490 832 82 3 831 17 21 1 82 3 832 17 2
0 1 82 3 629 17 29 1 17 41 0 40 624 34 148 45 274 0 472 +17 232 0 565 563 154 17
9 543 225 0 198 +17 543 0 191 158 198 151 232 225 0 544 -17 198 0 191 543 192 17
9 201 208 0 566 +17 201 0 397 222 182 183 198 208 0 0 -81 1 118 1529 36 116 0 0
 38 567 833 81 1 389 1531 36 382 0 0 567 452 834 82 3 568 19 0 1 81 1 452 1532 3
6 431 0 0 389 562 835 82 3 834 19 1 1 82 3 835 19 2 1 81 1 38 1528 36 78 0 0 33
 118 836 82 3 833 19 14 0 82 3 836 19 13 0 82 3 564 19 3 1 17 559 0 373 559 559
 0 554 548 0 0 -15 373 1268 0 559 369 837 15 837 1269 0 553 369 0 17 553 0 837 5
53 553 0 547 365 0 0 -82 3 557 18 1 1 82 3 551 18 0 1 82 3 542 17 6 1 81 1 481 1
209 36 473 0 0 504 537 838 82 3 538 17 19 1 81 1 504 1208 36 260 0 0 494 481 839
 82 3 838 17 18 1 81 1 494 1207 36 492 0 0 291 504 840 82 3 839 17 17 1 81 1 291
 1206 36 289 0 0 288 494 841 82 3 840 17 16 1 81 1 288 1205 36 203 0 0 282 291 8
42 82 3 841 17 15 1 81 1 282 1203 36 280 0 0 300 288 843 82 3 842 17 14 1 81 1 3
00 1202 36 298 0 0 471 282 844 82 3 843 17 12 1 82 3 844 17 11 1 141 520 487 520
 520 515 141 512 353 512 512 343 82 3 476 17 10 1 82 3 467 19 12 1 82 3 438 19 1
9 1 83 3 408 .498039215686275 .498039215686275 .498039215686275 83 3 402 .498039
215686275 .498039215686275 .498039215686275 141 360 499 360 360 353 40 8 361 .03
966438186569435 .996373204271157 8 .000857177378899171 .3907171209734195 ??.0083
4740646787634 -.00432265585526116 .01778 .01010369184112324 -.004390209650367375
 .01416598929604946 .01146836882024868 -.00394936565437182 .01242333461420192 .0
1261792700150924 -.00311880561724695 .01129398721016958 .013408865076908 -.00206
7571788490855 .01064507206192112 .01389071329161812 -.000720768411370671 .010292
21346629384 .0139454076770795 .00060056881066914 .01025402374294718 .01364800756
459478 .001812413807018075 .01046619587556616 41 1 362 L?.00834740646787634 -.00
432265585526116 .01778 41 1 363 L?.01364800756459478 .001812413807018075 .010466
19587556616 204 32 364 4 4.480528503683105 .00508 4.39683323128633 -.00432265585
526116 4.86735932199895 .001465989296049454 4.12323014005229 -.00439020965036737
5 5.18233322490496 -.0002766653857980675 3.972843346512655 -.00394936565437182 5
.49378473924762 -.001406012789830418 3.863401486510895 -.00311880561724695 5.782
52765563814 -.002054927938078885 3.79394204344149 -.002067571788490855 6.0966797
8002578 -.00240778653370615 3.75339944238367 -.000720768411370671 .1037663461469
89 -.00244597625705282 3.748871349904055 .00060056881066914 .377543610395423 -.0
02233804124433845 3.773670181971965 .001812413807018075 141 352 521 845 846 317
 141 845 306 847 352 317 141 846 499 352 847 317 141 847 323 846 845 317 141 348
 516 349 337 323 141 349 307 337 348 323 141 346 338 346 346 336 141 344 353 344
 344 335 141 332 487 848 848 325 141 848 499 332 332 325 141 322 303 322 322 307
 40 8 318 0 1 8 .000544612454294543 .377967392012048 ??.0127 -.00408511348375136
 .022352 .01317657665136726 -.00432265585526116 .01935655172413795 .014327246378
66694 -.004390209650367375 .01698875160775655 .01522134508912845 -.0039493656543
7182 .01584701233344265 .01597450389754055 -.00311880561724695 .0151070950687318
 .0164927047055604 -.002067571788490855 .01468194376470694 .01680839836347395 -.
000720768411370671 .01445076054688218 .0168591889532326 -314646284830022e-31 .01
441536779203484 41 1 319 L?.0127 -.00408511348375136 .022352 41 1 320 L?.0168591
889532326 -314646284830022e-31 .01441536779203484 204 16 321 3 4.71238898038469
 -.00408511348375136 4.39683323128633 -.00432265585526116 4.12323014005229 -.004
390209650367375 3.972843346512655 -.00394936565437182 3.863401486510895 -.003118
80561724695 3.79394204344149 -.002067571788490855 3.75339944238367 -.00072076841
1370671 3.746985649327115 -314646284830022e-31 81 1 244 700 36 219 0 0 185 241 8
49 81 1 185 693 36 183 0 0 188 244 850 81 1 241 703 36 207 0 0 244 217 851 82 3
 849 15 5 1 81 1 217 709 36 211 0 0 241 238 852 82 3 851 15 8 1 81 1 238 710 36
 208 0 0 217 243 853 82 3 852 15 14 1 81 1 243 711 36 223 0 0 238 228 854 82 3 8
53 15 15 1 81 1 228 713 36 226 0 0 243 224 855 82 3 854 15 16 1 82 3 855 15 18 1
 82 3 850 15 14 0 82 3 230 15 19 1 82 3 190 15 13 0 81 1 94 1525 36 92 0 0 70 37
 856 81 1 70 1524 36 68 0 0 63 94 857 81 1 37 1526 36 65 0 0 94 33 858 82 3 856
 19 10 0 82 3 858 19 11 0 81 1 63 1523 36 59 0 0 50 70 859 82 3 857 19 9 0 81 1
 50 1522 36 75 0 0 46 63 860 82 3 859 19 8 0 82 3 860 19 7 0 82 3 51 19 6 0 82 3
 39 19 12 0 19 18 138 0 1 0 10 6 0 S0 141 26 7 26 26 8 41 1 23 T?.002794 -.00444
5 .03302 41 1 24 T?.012446 -.004445 .03302 74 4 CI16 index_map_offset0 0 1 dCCZ2
0 16 5 0 0 660 812 14 2 377 0 0 0 0 0 0 0 0 0 0 0 0 0 0 0 80 1 13 400 861 8040 0
 0 0 0 3 5 0 0 0 TTTFFFFFFFFFFFFF2 83 3 15 .498039215686275 .498039215686275 .49
8039215686275 79 17 861 SDL/TYSA_COLOUR_21 0 
