**ABCDEFGHIJKLMNOPQRSTUVWXYZabcdefghijklmnopqrstuvwxyz**************************
**PARASOLID !"#$%&'()*+,-./:;<=>?@[\]^_`{|}~0123456789**************************
**PART1;
MC=unknown;
MC_MODEL=unknown;
MC_ID=unknown;
OS=unknown;
OS_RELEASE=unknown;
FRU=Parasolid 35.1.246;
APPL=Onshape;
SITE=unknown;
USER=unknown;
FORMAT=text;
GUISE=transmit;
KEY=BTGapi::writeModels_.xmt;
FILE=BTGapi::writeModels_.xmt;
DATE=2023-12-06T18:36:25 (UTC);
**PART2;
SCH=SCH_3501246_35102;
USFLD_SIZE=0;
**PART3;
**END_OF_HEADER*****************************************************************
T51 : TRANSMIT FILE created by modeller version 350124623 SCH_3501246_35102_1300
6231 0 12 36 CCCI7 lattice222 0 CCCI4 mesh1006 0 I8 polyline1008 0 CCCCCCCDI5 ow
ner1040 0 CCCI16 boundary_lattice222 0 CCCI13 boundary_mesh1006 0 I17 boundary_p
olyline1008 0 CCCA16 index_map_offset0 0 1 dA9 index_map82 0 A17 node_id_index_m
ap82 0 A20 schema_embedding_map82 0 A5 child12 0 A14 lowest_node_id0 0 1 dA16 me
sh_offset_data206 0 Z1 2825 2 3 0 0 0 0 0 0 0 1e3 1e-8 0 4 5 1 0 1 2 6 0 7 8 9 0
 0 10 11 12 0 0 0 0 0 0 0 81 255 1 2 2789 13 1 14 0 0 0 15 70 11 CI9 list_type0
 0 1 uI10 notransmit0 0 1 lCCCDCCDI12 finger_index0 0 1 dI12 finger_block1012 0
 CZ3 0 4 T1 0 0 5 20 1 16 16 13 255 6 137 0 1 0 17 0 0 18 0 51 255 7 2653 0 19 2
0 0 21 +-.00254 .00254 .1778 0 0 1 .00381 1 0 0 31 255 8 2511 0 11 22 0 0 --.002
54 .00254 .00635 0 0 1 1 0 0 .00381 29 255 9 2454 0 12 23 0 -.00381 .00613210244
842773 .00635 19 9 CCCCCCI5 frame230 0 CA5 owner12 0 Z10 48 0 1 18 0 24 0 V0 16
 255 11 2288 25 ?26 0 27 8 0 0 1 18 255 12 2451 28 29 0 30 9 ?1 81 1 28 2714 31
 12 0 0 32 33 34 17 255 29 0 35 26 36 12 37 38 0 39 +18 30 2398 40 41 12 42 23 ?
1 81 1 40 2720 31 30 0 0 43 44 45 17 41 0 46 47 48 30 49 50 0 51 -18 42 2345 52
 53 30 54 55 ?1 29 23 2401 0 30 55 9 -.00381 -.00613210244842774 .00635 29 55 23
48 0 42 56 23 .00381 -.00613210244842773 .00635 29 56 2295 0 54 57 55 .00381 .00
613210244842774 .00635 18 54 2292 58 59 42 60 56 ?1 29 57 2253 0 60 61 56 -.0063
5 -.00254 .00381 18 60 2251 43 62 54 63 57 ?1 29 61 2244 0 63 64 57 -.00635 .002
54 .00381 18 63 2242 32 65 60 66 61 ?1 29 64 2221 0 66 67 61 .00444076195248116
 -.005842 .18415 18 66 2218 68 69 63 70 64 ?1 29 67 2217 0 70 71 64 -.0044407619
5248116 -.005842 .18415 18 70 2214 72 73 66 74 67 ?1 29 71 2203 0 74 75 67 -.002
54 -.00635 .18415 18 74 2200 76 77 70 78 71 ?1 29 75 2199 0 78 79 71 .00254 -.00
635 .18415 18 78 2196 80 81 74 82 75 ?1 29 79 2195 0 82 83 75 .00254 -.00635 .00
635 18 82 2192 84 85 78 86 79 ?1 29 83 2191 0 86 87 79 -.00254 -.00635 .00635 18
 86 2188 44 88 82 89 83 ?1 29 87 2167 0 89 90 83 .004440761952481165 .005842 .18
415 18 89 2164 91 92 86 93 87 ?1 29 90 2163 0 93 94 87 -.00444076195248116 .0058
42 .18415 18 93 2160 95 96 89 97 90 ?1 29 94 2139 0 97 98 90 -.00444076195248116
 -.005842 .183642 18 97 2136 99 100 93 101 94 ?1 29 98 2135 0 101 102 94 .004440
76195248116 -.005842 .183642 18 101 2132 103 104 97 105 98 ?1 29 102 2131 0 105
 106 98 -.00635 .00254 .178381071944989 18 105 2128 107 108 101 109 102 ?1 29 10
6 2127 0 109 110 102 -.00635 -.00254 .178381071944989 18 109 2124 111 112 105 11
3 106 ?1 29 110 2123 0 113 114 106 .004440761952481165 .005842 .183642 18 113 21
20 115 116 109 117 110 ?1 29 114 2119 0 117 118 110 -.00444076195248116 .005842
 .183642 18 117 2116 119 120 113 121 114 ?1 29 118 2109 0 121 122 114 .00635 .00
254 .00381 18 121 2107 123 124 117 125 118 ?1 29 122 2100 0 125 126 118 .00635 -
.00254 .00381 18 125 2098 127 128 121 129 122 ?1 29 126 2097 0 129 130 122 .0063
5 -.00254 .178381071944989 18 129 2094 131 132 125 133 126 ?1 29 130 2093 0 133
 134 126 .00635 .00254 .178381071944989 18 133 2090 135 136 129 137 130 ?1 29 13
4 2079 0 137 138 130 -.00254 .00635 .18415 18 137 2076 139 140 133 141 134 ?1 29
 138 2075 0 141 142 134 .00254 .00635 .18415 18 141 2072 143 144 137 145 138 ?1
 29 142 2071 0 145 146 138 -.00254 .00635 .00635 18 145 2068 33 26 141 147 142 ?
1 29 146 2067 0 147 148 142 .00254 .00635 .00635 18 147 2064 149 150 145 151 146
 ?1 29 148 1437 0 151 152 146 .00381 -.01651 .00635 18 151 1435 153 154 147 155
 148 ?1 29 152 1433 0 155 156 148 -.00381 -.01651 .00635 18 155 1431 157 49 151
 158 152 ?1 29 156 1414 0 158 159 152 -.00381 -.01905 .00381 18 158 1412 160 161
 155 162 156 ?1 29 159 1411 0 162 163 156 .00381 -.01905 .00381 18 162 1409 164
 165 158 166 159 ?1 29 163 1402 0 166 167 159 .00381 .01651 .00635 18 166 1400 1
68 169 162 170 163 ?1 29 167 1398 0 170 171 163 -.00381 .01651 .00635 18 170 139
6 172 36 166 173 167 ?1 29 171 1379 0 173 174 167 -.00635 .01651 .00381 18 173 1
377 175 176 170 177 171 ?1 29 174 1367 0 177 178 171 -.00635 -.01651 .00381 18 1
77 1365 179 180 173 181 174 ?1 29 178 1354 0 181 182 174 .00635 .01651 .00381 18
 181 1352 183 184 177 185 178 ?1 29 182 1339 0 185 186 178 .00635 -.01651 .00381
 18 185 1337 187 188 181 189 182 ?1 29 186 1313 0 189 190 182 -.00635 .01651 0 1
8 189 1310 191 192 185 193 186 ?1 29 190 1309 0 193 194 186 -.00635 -.01651 0 18
 193 1306 195 196 189 197 190 ?1 29 194 1305 0 197 198 190 -.00381 -.01905 0 18
 197 1302 199 200 193 201 194 ?1 29 198 1301 0 201 202 194 .00381 -.01905 0 18 2
01 1298 203 204 197 205 198 ?1 29 202 1297 0 205 206 198 .00635 .01651 0 18 205
 1294 207 208 201 209 202 ?1 29 206 1293 0 209 210 202 .00635 -.01651 0 18 209 1
290 211 212 205 213 206 ?1 29 210 1281 0 213 214 206 .00381 .01905 .00381 18 213
 1279 215 216 209 217 210 ?1 29 214 1278 0 217 218 210 -.00381 .01905 .00381 18
 217 1276 219 220 213 221 214 ?1 29 218 1275 0 221 222 214 -.00381 .01905 0 18 2
21 1272 223 224 217 225 218 ?1 29 222 1271 0 225 0 218 .00381 .01905 0 18 225 12
68 226 227 221 0 222 ?1 81 1 226 1899 31 225 0 0 219 207 228 17 227 0 229 230 23
1 225 208 232 0 233 -15 255 229 1689 0 234 235 0 17 230 0 229 234 227 213 233 23
6 0 0 -17 231 0 229 227 234 205 184 237 0 0 -17 208 0 238 239 240 205 227 232 0
 241 +16 232 1329 242 ?208 243 244 245 0 0 1 17 233 0 246 247 216 225 230 236 0
 240 +15 246 723 0 216 248 0 17 247 0 246 220 233 221 240 249 0 250 +17 216 0 24
6 233 220 213 251 252 0 253 +16 236 1285 254 ?233 255 256 257 0 0 1 17 240 0 238
 208 224 225 247 249 0 0 -15 238 75 0 240 258 0 17 224 0 238 240 259 221 260 244
 0 247 +16 249 1269 261 ?247 262 263 264 0 0 1 81 1 261 1957 31 249 0 0 265 266
 267 16 262 2073 268 ?269 270 249 271 0 0 1 16 263 2065 272 ?273 249 274 275 0 0
 1 30 255 264 745 0 249 276 275 0 +-173472347597681e-32 .01905 0 -1 -13659239968
32132e-31 0 30 276 921 0 277 278 264 0 +1618278744621125e-65 -.00635 .00635 1 13
65923996832132e-31 0 30 275 743 0 263 264 271 0 +-1618278744621125e-65 .00635 .0
0635 -1 -1365923996832132e-31 0 30 271 495 0 262 275 279 0 +0 .00635 .18415 -1 -
1365923996832132e-31 0 30 279 494 0 270 271 280 0 +0 .005842 .18415 1 0 0 16 270
 2161 281 ?282 283 262 279 0 0 1 30 280 336 0 283 279 284 0 +0 -.005842 .18415 1
 0 0 16 283 2215 285 ?286 287 270 280 0 0 1 30 284 335 0 287 280 288 0 +0 -.0063
5 .18415 -1 -1365923996832132e-31 0 16 287 2197 289 ?290 291 283 284 0 0 1 30 28
8 111 0 291 284 292 0 +.00635 867361737988404e-33 0 0 1 0 16 291 1291 293 ?241 2
94 287 288 0 0 1 30 292 109 0 294 288 295 0 +-.00635 -867361737988404e-33 0 0 1
 0 16 294 1307 296 ?259 297 291 292 0 0 1 30 295 1157 0 297 292 298 0 --.00635 -
.005842 .183642 1 0 0 16 297 2133 299 ?300 301 294 295 0 0 1 30 298 1170 0 301 2
95 302 0 +0 .005842 .183642 1 0 0 16 301 2117 303 ?304 305 297 298 0 0 1 31 302
 1187 0 305 298 306 0 +.00635 -433680868994202e-32 .183642 -1 0 0 0 0 1 .005842
 16 305 2091 307 ?308 309 301 302 0 0 1 31 306 1188 0 309 302 310 0 --.00635 -43
3680868994202e-32 .183642 -1 0 0 0 0 1 .005842 16 309 2125 311 ?312 252 305 306
 0 0 1 30 310 1282 0 252 306 313 0 --260208521396521e-32 .01905 .00381 -1 -13659
23996832132e-31 0 16 252 1280 314 ?216 256 309 310 0 0 1 30 313 1284 0 256 310 2
57 0 --.00381 .01905 .092075 0 0 -1 16 256 1283 315 ?220 236 252 313 0 0 1 30 25
7 1287 0 236 313 316 0 +.00381 .01905 0 0 0 -1 31 316 1316 0 255 257 317 0 --.00
381 -.01651 0 0 0 1 1 0 0 .00254 16 255 1314 318 ?196 319 236 316 0 0 1 31 317 1
321 0 319 316 320 0 -.00381 -.01651 0 0 0 1 1 0 0 .00254 16 319 1319 321 ?204 24
4 255 317 0 0 1 31 320 1326 0 244 317 245 0 --.00381 .01651 0 0 0 1 1 0 0 .00254
 16 244 1324 322 ?224 232 319 320 0 0 1 31 245 1331 0 232 320 323 0 -.00381 .016
51 0 0 0 1 1 0 0 .00254 30 323 1340 0 243 245 324 0 -.00635 -.01905 .00381 0 1 0
 16 243 1338 325 ?188 326 232 323 0 0 1 30 324 1345 0 326 323 327 0 +.00635 -.01
651 0 0 0 -1 16 326 1343 265 ?328 329 243 324 0 0 1 30 327 1355 0 329 324 330 0
 +.00635 .00635 .00381 0 -1 0 16 329 1353 331 ?124 237 326 327 0 0 1 30 330 1358
 0 237 327 332 0 -.00635 .01651 .00635 0 0 -1 16 237 1356 333 ?184 334 329 330 0
 0 1 30 332 1368 0 334 330 335 0 +-.00635 -867361737988404e-33 .00381 0 1 0 16 3
34 1366 336 ?62 337 237 332 0 0 1 30 335 1371 0 337 332 338 0 --.00635 -.01651 .
1778 0 0 -1 16 337 1369 339 ?180 340 334 335 0 0 1 30 338 1380 0 340 335 341 0 -
-.00635 -867361737988404e-33 .00381 0 -1 0 16 340 1378 342 ?176 343 337 338 0 0
 1 30 341 1385 0 343 338 344 0 +-.00635 .01651 .1778 0 0 -1 16 343 1383 345 ?192
 38 340 341 0 0 1 30 344 1399 0 38 341 346 0 +-.00381 .01905 .00635 0 -1 0 16 38
 1397 347 ?29 348 343 344 0 0 1 30 346 1403 0 348 344 349 0 +-1387778780781446e-
33 .01651 .00635 -1 -1365923996832132e-31 0 16 348 1401 350 ?36 351 38 346 0 0 1
 30 349 1406 0 351 346 352 0 -.00381 .01905 .00635 0 -1 0 16 351 1404 353 ?169 3
54 348 349 0 0 1 30 352 1415 0 354 349 355 0 -260208521396521e-32 -.01905 .00381
 1 1365923996832132e-31 0 16 354 1413 356 ?161 357 351 352 0 0 1 30 355 1417 0 3
57 352 358 0 +-.00381 -.01905 .092075 0 0 -1 16 357 1416 359 ?200 360 354 355 0
 0 1 30 358 1420 0 360 355 361 0 -.00381 -.01905 .00635 0 0 -1 16 360 1418 362 ?
165 50 357 358 0 0 1 30 361 1434 0 50 358 363 0 --.00381 -.01905 .00635 0 1 0 16
 50 1432 364 ?49 365 360 361 0 0 1 30 363 1438 0 365 361 366 0 +1387778780781446
e-33 -.01651 .00635 1 1365923996832132e-31 0 16 365 1436 367 ?154 368 50 363 0 0
 1 30 366 1441 0 368 363 369 0 +.00381 -.00635 .00635 0 1 0 16 368 1439 370 ?53
 371 365 366 0 0 1 31 369 1738 0 372 366 373 0 -.00381 .01651 .00381 0 358555049
1684345e-30 1 0 -1 3585550491684345e-30 .00254 16 372 1709 374 ?234 375 376 369
 0 0 1 31 373 1737 0 375 369 377 0 +.00381 .01651 .00381 1 1707404996040165e-31
 0 -1707404996040165e-31 1 0 .00254 16 375 1707 378 ?379 380 372 373 0 0 1 31 37
7 1736 0 380 373 381 0 +.00381 .01651 .00381 0 1 0 0 0 1 .00254 16 380 1706 382
 ?383 384 375 377 0 0 1 31 381 1735 0 384 377 385 0 --.00381 .01651 .00381 -1 -1
707404996040165e-31 0 1707404996040165e-31 -1 0 .00254 16 384 1704 386 ?387 388
 380 381 0 0 1 31 385 1734 0 388 381 389 0 +-.00381 .01651 .00381 0 0 1 1 0 0 .0
0254 16 388 1699 390 ?391 392 384 385 0 0 1 31 389 1733 0 392 385 393 0 +-.00381
 .01651 .00381 0 1 0 0 0 1 .00254 16 392 1698 394 ?395 396 388 389 0 0 1 31 393
 1819 0 397 389 398 0 -.00381 -.01651 .00381 0 0 1 1 0 0 .00254 16 397 1790 399
 ?400 401 0 393 0 0 1 31 398 1818 0 401 393 402 0 +.00381 -.01651 .00381 0 -1 0
 0 0 -1 .00254 16 401 1788 403 ?404 405 397 398 0 0 1 31 402 1817 0 405 398 406
 0 +.00381 -.01651 .00381 1 1707404996040165e-31 0 -1707404996040165e-31 1 0 .00
254 16 405 1787 407 ?408 409 401 402 0 0 1 31 406 1816 0 409 402 410 0 --.00381
 -.01651 .00381 -1 -1707404996040165e-31 0 1707404996040165e-31 -1 0 .00254 16 4
09 1782 411 ?412 413 405 406 0 0 1 31 410 1815 0 413 406 414 0 +-.00381 -.01651
 .00381 0 -1 0 0 0 -1 .00254 16 413 1780 415 ?416 376 409 410 0 0 1 31 414 1814
 0 376 410 417 0 +-.00381 -.01651 .00381 0 -3585550491684345e-30 1 0 -1 -3585550
491684345e-30 .00254 16 376 1779 418 ?419 372 413 414 0 0 1 31 417 1995 0 371 41
4 420 0 +1734723475976805e-33 -.0127 .00508 0 0 1 1 0 0 .0022225 16 371 1992 421
 ?422 423 368 417 0 0 1 31 420 2001 0 423 417 424 0 -1734723475976805e-33 -.0127
 .00635 0 0 1 1 0 0 .0034925 16 423 1998 425 ?426 427 371 420 0 0 1 31 424 2007
 0 427 420 428 0 +-1734723475976805e-33 .0127 .00508 0 0 1 1 0 0 .0022225 16 427
 2004 429 ?430 431 423 424 0 0 1 31 428 2013 0 431 424 432 0 --1734723475976805e
-33 .0127 .00635 0 0 1 1 0 0 .0034925 16 431 2010 433 ?434 435 427 428 0 0 1 30
 432 2082 0 435 428 436 0 --.00254 .00635 .18415 0 0 -1 16 435 2080 437 ?140 438
 431 432 0 0 1 30 436 2087 0 438 432 439 0 +.00254 .00635 .1778 0 0 -1 16 438 20
85 440 ?441 442 435 436 0 0 1 30 439 2104 0 442 436 443 0 +.00635 -.00254 .00381
 0 0 -1 16 442 2102 444 ?445 446 438 439 0 0 1 30 443 2110 0 446 439 447 0 -.006
35 .00254 .1778 0 0 -1 16 446 2108 448 ?136 449 442 443 0 0 1 38 12 CCCCCCCCCCCA
17 intersection_data204 0 Z447 2142 0 449 443 450 0 +7 451 452 453 454 455 16 44
9 2140 456 ?108 457 446 447 0 0 1 38 450 2147 0 457 447 458 0 +20 451 459 460 46
1 462 51 451 1219 0 463 464 465 466 +0 1734723475976805e-33 .183642 1 0 0 .00584
2 0 0 -1 40 255 5 452 0 1 5 .000420658085181773 .3862325335022645 ??-.0044407619
5248116 .005842 .183642 -.00467389380523743 .00569635822237739 .182345671722767
 -.00544604475943338 .00500394071685376 .1806271133848495 -.00617463978396173 .0
0368258200617922 .179106853500959 -.00635 .00254 .178381071944989 41 3 CI8 term_
use0 0 1 cCZ1 453 L?-.00444076195248116 .005842 .183642 41 1 454 L?-.00635 .0025
4 .178381071944989 204 2 17 INTERSECTION_DATA17 Intersection data7 uv_type0 0 1
 u6 values0 1 1 fT20 455 4 2.093111148600945 .005842 1.570796326794895 -.0044407
6195248116 2.16527520748361 .00454567172276713 1.347035730556306 -.0046738938052
3743 2.438337956692325 .00282711338484959 1.02853881024041 -.00544604475943338 2
.83701500447243 .001306853500958826 .682021025180884 -.00617463978396173 3.14159
265358979 .000581071944989187 .4497968604243585 -.00635 14 255 463 1200 467 ?468
 469 470 6 451 -0 0 468 469 24 50 255 464 132 0 17 471 451 0 +0 -.00635 .1778 13
65923996832132e-31 -1 0 1 1365923996832132e-31 0 51 465 1732 0 235 451 472 0 +.0
0381 .01651 .092075 0 0 1 .00254 1 0 0 141 255 466 447 473 474 451 141 473 475 4
76 466 451 141 474 450 466 476 451 141 476 458 474 473 451 38 458 2152 0 477 450
 475 0 +478 451 479 480 481 482 16 477 2150 483 ?132 484 457 458 0 0 1 38 475 21
57 0 484 458 485 0 +486 451 487 488 489 490 51 478 2593 0 491 486 20 492 +.00254
 -.00254 .1778 0 0 1 .00381 1 0 0 40 5 479 0 1 5 .000420658085181773 .3862325335
02264 ??.00444076195248116 -.005842 .183642 .00467389380523744 -.005696358222377
38 .182345671722767 .00544604475943338 -.00500394071685375 .1806271133848495 .00
617463978396173 -.003682582006179215 .179106853500959 .00635 -.00254 .1783810719
44989 41 1 480 L?.00444076195248116 -.005842 .183642 41 1 481 L?.00635 -.00254 .
178381071944989 204 20 482 4 5.23470380219074 .005842 4.71238898038469 .00444076
195248116 5.3068678610734 .00454567172276713 4.93614957662328 .00467389380523744
 5.57993061028212 .00282711338484959 5.25464649693918 .00544604475943338 5.97860
765806222 .001306853500958826 5.6011642819987 .00617463978396173 6.2831853071795
9 .000581071944989187 5.83338844675523 .00635 14 491 2575 493 ?494 495 496 6 478
 +0 0 494 495 24 51 486 2563 0 495 497 478 498 +.00254 .00254 .1778 0 0 -1 .0038
1 -1 0 0 51 20 2623 0 494 478 7 499 +-.00254 -.00254 .1778 0 0 -1 .00381 -1 0 0
 141 492 458 500 500 478 141 500 501 492 492 478 38 501 2506 0 502 503 504 0 -50
5 478 506 507 508 509 16 502 2268 510 ?511 512 513 501 0 0 1 38 503 2505 0 513 5
14 501 0 +486 515 516 517 518 519 31 504 2507 0 512 501 520 0 -.00254 -.00254 .0
0635 0 0 1 1 0 0 .00381 51 505 1811 0 521 522 523 524 +.00381 -.01905 .00381 0 -
1 0 .00254 0 0 -1 40 5 506 0 1 5 .0002914282540282585 .357010123231724 ??.00381
 -.00613210244842773 .00635 .00460984740955906 -.005738723448681 .00622077666353
017 .0053851333093551 -.00507403165962822 .00580262516740109 .00606816396735011
 -.00397810952972726 .00497288240874201 .00634998799997732 -.002549562427976165
 .00381780768667408 41 1 507 L?.00381 -.00613210244842773 .00635 41 2 508 TF.006
35 -.00254 .00381 .00634998799997732 -.002549562427976165 .00381780768667408 204
 24 509 4 3.141592653589795 -.01291789755157226 5.05222588983881 -.17145 2.82124
077690747 -.013311276551319 5.28671258036435 -.17157922333647 2.472682689966805
 -.01397596834037178 5.55555735246439 -.171997374832599 2.04634658662366 -.01507
189047027275 5.89613715764212 -.172827117591258 1.57387022402706 -.0165004375720
2385 6.2806754809288 -.173982192313326 1.570796326794895 -.01651 0 -.17399 14 52
1 1765 525 ?526 527 528 6 505 +0 0 526 527 24 53 255 522 1812 0 526 529 505 0 +.
00381 -.01651 .00381 .00254 0 0 1 1 0 0 51 523 1810 0 527 505 530 0 +13877787807
81446e-33 -.01651 .00381 1 1365923996832132e-31 0 .00254 -1365923996832132e-31 1
 0 141 524 501 524 524 505 14 527 1763 531 ?521 532 533 6 523 +0 0 521 532 24 53
 530 1809 0 532 523 534 0 +-.00381 -.01651 .00381 .00254 -1 0 3585550491684345e-
30 3585550491684345e-30 0 1 14 532 1761 535 ?527 536 537 6 530 +0 0 527 536 24 5
1 534 1808 0 536 530 538 539 +-.00381 -867361737988404e-33 .00381 0 1 0 .00254 0
 0 1 14 536 1759 540 ?532 541 46 6 534 +0 0 532 541 24 51 538 1807 0 541 534 542
 0 +-.00381 -.01651 .092075 0 0 -1 .00254 -1 0 0 141 539 543 539 539 534 38 543
 2509 0 544 520 22 0 +20 534 545 546 547 548 16 544 2280 549 ?47 27 550 543 0 0
 1 31 520 2508 0 550 504 543 0 --.00254 -.00254 .00635 0 0 1 1 0 0 .00381 38 22
 2510 0 27 543 8 0 -551 7 552 553 554 555 40 5 545 0 1 5 .000291428254028258 .35
7010123231724 ??-.00381 -.00613210244842774 .00635 -.00460984740955906 -.0057387
23448681 .00622077666353018 -.0053851333093551 -.00507403165962822 .005802625167
4011 -.00606816396735011 -.00397810952972726 .00497288240874202 -.00634998799997
732 -.002549562427976165 .00381780768667409 41 1 546 L?-.00381 -.006132102448427
74 .00635 41 2 547 TF-.00635 -.00254 .00381 -.00634998799997732 -.00254956242797
6165 .00381780768667409 204 24 548 4 5.05222588983881 .17145 0 -.006132102448427
73 5.28671258036435 .17157922333647 5.96283343049726 -.005738723448681 5.5555573
5246439 .171997374832599 5.6142753435566 -.00507403165962822 5.89613715764212 .1
72827117591258 5.18793924021345 -.00397810952972726 6.2806754809288 .17398219231
3326 4.71546287761685 -.002549562427976165 0 .17399 4.71238898038469 -.00254 16
 27 2284 556 ?39 11 544 22 0 0 1 51 551 1726 0 468 557 529 558 +-.00381 .01905 .
00381 0 -1 0 .00254 0 0 -1 40 5 552 0 1 5 .0002914282540282585 .357010123231724
 ??-.00381 .00613210244842773 .00635 -.00460984740955906 .005738723448681 .00622
077666353017 -.0053851333093551 .00507403165962822 .00580262516740109 -.00606816
396735011 .00397810952972726 .00497288240874201 -.00634998799997732 .00254956242
7976165 .00381780768667408 41 1 553 L?-.00381 .00613210244842773 .00635 41 2 554
 TF-.00635 .00254 .00381 -.00634998799997732 .002549562427976165 .00381780768667
408 204 24 555 4 3.141592653589795 .01291789755157226 1.91063323624901 -.17145 3
.46194453027212 .013311276551319 2.145119926774555 -.17157922333647 3.8105026172
1278 .01397596834037178 2.4139646988746 -.171997374832599 4.23683872055593 .0150
7189047027275 2.754544504052325 -.172827117591258 4.70931508315253 .016500437572
02385 3.13908282733901 -.173982192313326 4.71238898038469 .01651 3.1415926535897
95 -.17399 14 468 1676 559 ?560 463 561 6 551 +0 0 560 463 24 51 557 1727 0 560
 562 551 0 +-.00381 .01651 .1778 0 0 -1 .00254 -1 0 0 51 529 1813 0 563 551 522
 0 +.00381 -.01651 .1778 0 0 1 .00254 1 0 0 141 558 22 558 558 551 14 563 1769 5
64 ?565 526 566 6 529 +0 0 565 526 24 81 1 564 2819 567 563 568 0 569 570 571 14
 565 2023 570 ?572 563 573 6 542 +0 0 572 563 24 14 526 1767 569 ?563 521 574 6
 522 +0 0 563 521 24 15 566 1770 0 400 563 0 13 24 49 0 0 0 0 0 0 10 17 14 17 12
8 575 ?576 0 577 6 464 +0 0 576 0 24 81 1 575 2790 567 17 578 0 0 579 580 14 576
 126 579 ?581 17 582 6 471 -0 0 581 17 24 15 577 127 0 583 17 0 17 583 0 577 81
 584 82 585 277 0 586 +17 81 0 577 290 583 78 586 587 0 588 +17 584 0 577 583 29
0 86 589 590 0 585 +17 585 0 591 51 85 86 583 277 0 0 -16 277 2189 592 ?583 274
 593 276 0 0 1 17 586 0 496 594 595 82 81 587 0 0 -15 496 2576 0 595 491 0 17 59
4 0 496 596 586 42 85 512 0 0 -17 595 0 496 586 597 78 69 598 0 0 -16 587 2209 5
99 ?81 600 590 601 0 0 1 81 1 599 2743 31 587 0 0 510 444 602 16 600 2222 603 ?7
7 598 587 604 0 0 1 16 590 2204 605 ?584 587 606 607 0 0 1 30 601 2211 0 587 607
 604 0 -.00254 -.00635 .18415 0 0 -1 30 607 2206 0 590 608 601 0 +-.00254 -.0063
5 .1778 0 0 -1 31 604 2224 0 600 601 609 0 +-.00254 -.00254 .18415 0 0 1 1 0 0 .
00381 31 609 2229 0 598 604 610 0 +.00254 -.00254 .18415 0 0 1 1 0 0 .00381 16 5
98 2227 611 ?69 612 600 609 0 0 1 30 610 2234 0 612 609 613 0 --.004440761952481
16 -.005842 .183642 0 0 -1 16 612 2232 614 ?73 615 598 610 0 0 1 30 613 2239 0 6
15 610 616 0 -.004440761952481155 -.005842 .18415 0 0 1 16 615 2237 617 ?104 618
 612 613 0 0 1 30 616 2248 0 618 613 619 0 +-.00635 .00254 .00381 0 0 -1 16 618
 2246 620 ?621 622 615 616 0 0 1 30 619 2254 0 622 616 514 0 --.00635 -.00254 .1
778 0 0 -1 16 622 2252 623 ?112 624 618 619 0 0 1 31 514 2504 0 624 619 503 0 -.
00254 .00254 .00635 0 0 1 1 0 0 .00381 16 624 2260 625 ?626 513 622 514 0 0 1 81
 1 625 2737 31 624 0 0 448 556 627 17 626 0 35 169 628 54 150 624 0 629 +16 513
 2264 630 ?631 502 624 503 0 0 1 81 1 630 2734 31 513 0 0 632 440 633 17 631 0 6
34 635 59 121 629 513 0 636 +15 634 1683 0 59 637 0 17 635 0 634 638 631 181 124
 329 0 383 -17 59 0 634 631 638 54 169 351 0 626 -17 629 0 639 150 636 54 631 51
3 0 0 -17 636 0 639 629 640 121 136 446 0 0 -15 639 2546 0 640 495 0 17 640 0 63
9 636 641 133 116 484 0 0 -17 136 0 582 308 124 133 636 446 0 642 +15 582 125 0
 124 576 0 17 308 0 582 445 136 129 642 305 0 643 +17 124 0 582 136 184 121 635
 329 0 631 +17 642 0 470 116 132 133 308 305 0 640 -15 470 1201 0 642 463 0 17 1
16 0 470 644 642 113 640 484 0 304 +17 132 0 470 642 645 129 646 477 0 308 +17 6
45 0 470 132 100 101 300 297 0 646 -17 646 0 496 597 643 101 132 477 0 0 -17 597
 0 496 595 646 66 104 615 0 0 -17 643 0 496 646 596 129 445 442 0 0 -17 596 0 49
6 643 594 125 511 502 0 445 -17 445 0 582 188 308 125 643 442 0 0 +17 188 0 582
 328 445 185 128 243 0 647 +17 328 0 582 241 188 209 648 326 0 239 +17 128 0 528
 511 647 125 188 243 0 596 -17 647 0 528 128 649 185 404 401 0 650 -15 528 1766
 0 128 521 0 17 649 0 528 647 511 151 53 368 0 651 -17 404 0 574 408 650 151 647
 401 0 0 +17 650 0 574 404 408 185 400 397 0 648 -15 574 1768 0 404 526 0 17 408
 0 574 650 404 162 651 405 0 400 +17 400 0 566 652 648 162 650 397 0 0 +17 648 0
 566 400 212 185 328 326 0 0 -17 212 0 566 648 652 209 204 319 0 328 -17 652 0 5
66 212 400 201 165 360 0 0 -17 204 0 238 653 239 201 212 319 0 654 +17 653 0 238
 196 204 197 654 274 0 655 +17 239 0 238 204 208 209 241 291 0 0 -17 654 0 656 1
65 200 201 653 274 0 652 -15 656 1410 0 654 657 0 17 165 0 656 161 654 162 652 3
60 0 658 +17 200 0 656 654 161 197 659 357 0 653 +16 274 1299 266 ?653 263 277 2
78 0 0 1 81 1 266 1961 31 274 0 0 261 293 660 30 278 923 0 274 661 276 0 +173472
347597681e-32 -.01905 0 -1 -1365923996832132e-31 0 31 661 1127 0 593 662 278 0 +
-1734723475976805e-33 .0127 0 0 0 1 1 0 0 .0022225 16 593 1058 663 ?664 277 396
 661 0 0 1 31 662 1128 0 396 0 661 0 +1734723475976805e-33 -.0127 0 0 0 1 1 0 0
 .0022225 16 396 1088 665 ?666 593 392 662 0 0 1 81 1 665 1138 31 396 0 0 667 66
3 668 17 666 0 669 666 666 0 670 396 0 0 +15 669 1038 0 666 258 238 17 670 0 671
 670 670 0 666 396 0 0 -15 671 1103 0 670 672 0 14 672 1104 673 ?469 657 674 6 6
75 -0 0 469 657 24 81 1 673 2803 567 672 676 0 677 678 679 14 469 1074 678 ?463
 672 680 6 681 -0 0 463 672 24 14 657 898 677 ?672 682 656 6 683 +0 0 672 682 24
 15 674 1993 0 422 672 671 51 675 1121 0 672 681 683 0 +1734723475976805e-33 -.0
127 -.01905 0 0 1 .0022225 1 0 0 51 681 1124 0 469 0 675 0 +-1734723475976805e-3
3 .0127 -.01905 0 0 1 .0022225 1 0 0 50 683 913 0 657 675 684 0 +260208521396521
e-32 -.01905 .092075 1365923996832132e-31 -1 0 1 1365923996832132e-31 0 50 684 9
08 0 682 683 685 0 +173472347597681e-32 -.01905 .00635 0 0 1 1 0 0 14 682 882 68
6 ?657 248 687 6 684 +0 0 657 248 24 50 685 735 0 248 684 688 0 +-26020852139652
1e-32 .01905 .092075 -1365923996832132e-31 1 0 -1 -1365923996832132e-31 0 14 248
 720 689 ?682 690 246 6 685 +0 0 682 690 24 50 688 730 0 690 685 691 0 +-1734723
47597681e-32 .01905 .00635 0 0 1 1 0 0 14 690 704 692 ?248 693 694 6 688 +0 0 24
8 693 24 50 691 483 0 693 688 695 0 +0 0 .18415 0 0 1 1 0 0 14 693 468 696 ?690
 697 698 6 691 +0 0 690 697 24 50 695 480 0 697 691 699 0 +0 .005842 .18415 0 1
 0 0 0 1 14 697 456 700 ?693 701 702 6 695 -0 0 693 701 24 50 699 326 0 701 695
 703 0 +0 0 .18415 0 0 1 1 0 0 14 701 311 704 ?697 705 706 6 699 +0 0 697 705 24
 50 703 321 0 705 699 707 0 +0 -.005842 .18415 0 1 0 0 0 1 14 705 295 708 ?701 2
58 709 6 703 +0 0 701 258 24 50 707 108 0 258 703 710 0 +0 0 0 0 0 1 1 0 0 14 25
8 68 711 ?705 712 713 6 707 -0 0 705 712 24 50 710 129 0 712 707 714 0 +-.00635
 -867361737988404e-33 .1778 -1 0 0 0 0 1 14 712 122 715 ?258 581 716 6 710 +0 0
 258 581 24 50 714 130 0 581 710 471 0 +0 .00635 .1778 1365923996832132e-31 -1 0
 1 1365923996832132e-31 0 14 581 124 717 ?712 576 718 6 714 -0 0 712 576 24 50 4
71 131 0 576 714 464 0 +.00635 867361737988404e-33 .1778 -1 0 0 0 0 1 81 1 717 2
792 567 581 719 0 579 715 720 15 718 123 0 721 581 0 17 721 0 718 441 140 141 26
9 262 0 722 -17 441 0 718 273 721 147 722 438 0 628 +17 140 0 718 721 273 137 72
3 435 0 269 +17 269 0 698 96 144 137 721 262 0 724 +17 722 0 639 725 150 141 441
 438 0 0 -17 725 0 639 641 722 89 144 606 0 0 -17 150 0 639 722 629 147 626 624
 0 441 -17 641 0 639 640 725 113 92 726 0 0 -17 144 0 698 269 282 141 725 606 0
 721 +16 606 2183 727 ?144 590 728 608 0 0 1 81 1 727 2724 31 606 0 0 603 729 73
0 16 728 2178 729 ?96 606 726 731 0 0 1 31 608 2185 0 606 731 607 0 +.00254 .002
54 .18415 0 0 1 1 0 0 .00381 31 731 2180 0 728 732 608 0 +-.00254 .00254 .18415
 0 0 1 1 0 0 .00381 30 732 2175 0 726 485 731 0 -.004440761952481165 .005842 .18
3642 0 0 -1 16 726 2173 733 ?92 728 734 732 0 0 1 30 485 2170 0 734 475 732 0 --
.00444076195248116 .005842 .18415 0 0 1 16 734 2168 632 ?120 726 484 485 0 0 1 8
1 1 632 2733 31 734 0 0 733 630 735 17 120 0 702 304 736 117 737 734 0 644 +16 4
84 2155 738 ?116 734 477 475 0 0 1 81 1 738 2726 31 484 0 0 729 456 739 80 7 CCC
CCDI12 legal_owners0 16 1 lCZ1 31 740 741 9000 0 0 0 0 3 6 0 0 0 FFTFTFTTFFFFFFF
F1 81 1 729 2725 31 728 0 0 727 738 742 81 1 456 2727 31 449 0 0 738 483 743 82
 255 3 739 26 4 1 81 1 483 2728 31 477 0 0 456 744 745 82 3 743 26 5 1 81 1 744
 2729 31 457 0 0 483 617 746 82 3 745 26 6 1 16 457 2145 744 ?100 477 449 450 0
 0 1 81 1 617 2730 31 615 0 0 744 614 747 82 3 746 26 7 1 81 1 614 2731 31 612 0
 0 617 733 748 82 3 747 26 8 1 81 1 733 2732 31 726 0 0 614 632 749 82 3 748 26
 9 1 82 3 749 26 10 1 17 100 0 470 645 750 97 751 457 0 300 +17 750 0 470 100 10
8 109 312 309 0 751 -17 751 0 752 753 754 109 100 457 0 0 -17 300 0 709 73 104 9
7 645 297 0 754 +15 709 298 0 286 705 0 17 73 0 709 286 300 70 754 612 0 755 +17
 104 0 709 300 286 101 597 615 0 645 +17 754 0 752 751 756 97 73 612 0 0 -15 752
 2606 0 751 494 0 17 756 0 752 754 589 70 77 600 0 0 -17 589 0 752 756 88 74 584
 590 0 0 -17 77 0 706 588 755 74 756 600 0 290 +15 706 314 0 588 701 0 17 588 0
 706 69 77 78 290 287 0 595 -17 755 0 706 77 69 70 286 283 0 756 -17 290 0 577 5
84 81 74 588 287 0 589 +17 69 0 706 755 588 66 595 598 0 286 +17 286 0 709 104 7
3 66 755 283 0 597 +17 88 0 752 589 757 86 51 550 0 584 -17 757 0 752 88 753 30
 47 544 0 0 -17 51 0 591 49 585 30 88 550 0 757 +16 550 2276 758 ?51 544 512 520
 0 0 1 81 1 758 2749 31 550 0 0 623 289 759 16 512 2272 760 ?85 550 502 504 0 0
 1 81 1 760 2745 31 512 0 0 444 549 761 17 85 0 591 585 53 82 594 512 0 583 +15
 591 885 0 154 682 0 17 53 0 591 85 154 42 649 368 0 511 +17 154 0 591 53 49 151
 762 365 0 649 +17 511 0 528 649 128 42 596 502 0 594 +17 49 0 591 154 51 155 41
 50 0 48 +17 762 0 533 412 651 155 154 365 0 0 -15 533 1764 0 412 527 0 17 412 0
 533 658 762 158 763 409 0 0 +17 651 0 533 762 658 151 408 405 0 404 -17 658 0 5
33 651 412 162 161 354 0 408 -17 161 0 656 200 165 158 658 354 0 659 +17 659 0 7
64 765 655 158 200 357 0 419 -15 764 1758 0 655 541 0 17 765 0 764 766 659 177 4
19 376 0 416 -17 655 0 764 659 766 197 196 255 0 0 -17 419 0 537 763 416 158 765
 376 0 412 +15 537 1762 0 416 532 0 17 763 0 537 416 419 155 412 409 0 762 -17 4
16 0 537 419 763 177 48 413 0 0 +17 48 0 46 41 767 155 416 413 0 763 -15 46 1760
 0 41 536 0 17 767 0 46 48 47 177 62 334 0 765 -17 47 0 46 767 41 60 757 544 0 7
53 +17 62 0 716 112 180 60 767 334 0 47 +15 716 121 0 62 712 0 17 112 0 716 312
 62 109 753 622 0 750 +17 180 0 716 62 768 177 766 337 0 767 +17 768 0 716 180 1
92 193 259 294 0 766 -17 766 0 764 655 765 193 180 337 0 0 -17 192 0 716 768 176
 189 769 343 0 259 +17 259 0 238 224 196 189 768 294 0 260 +17 196 0 238 259 653
 193 655 255 0 768 +17 260 0 770 769 250 189 224 244 0 0 -15 770 1679 0 260 560
 0 17 769 0 770 771 260 173 192 343 0 772 -17 250 0 770 260 771 221 220 256 0 0
 -17 771 0 770 250 769 217 391 388 0 773 -17 220 0 246 216 247 217 250 256 0 771
 +17 391 0 774 395 773 173 771 388 0 0 +17 773 0 774 391 395 217 387 384 0 251 -
15 774 1681 0 391 775 0 17 395 0 774 773 391 170 772 392 0 387 +17 387 0 776 777
 251 170 773 384 0 0 +17 251 0 776 387 253 217 216 252 0 0 -15 776 1685 0 387 77
8 0 17 253 0 776 251 777 213 379 375 0 779 -17 777 0 776 253 387 166 36 348 0 63
8 -17 379 0 780 383 779 166 253 375 0 0 +17 779 0 780 379 383 213 234 372 0 230
 -15 780 1687 0 379 781 0 17 383 0 780 779 379 181 638 380 0 234 +17 234 0 229 2
31 230 181 779 372 0 0 +17 638 0 634 59 635 166 383 380 0 379 -14 781 1686 782 ?
235 778 780 6 472 +0 0 235 778 24 81 1 782 2811 567 781 783 0 784 785 786 14 235
 1688 785 ?541 781 229 6 465 +0 0 541 781 24 14 778 1684 784 ?781 637 776 6 787
 +0 0 781 637 24 53 472 1731 0 781 465 787 0 +.00381 .01651 .00381 .00254 0 0 1
 1 0 0 51 787 1730 0 778 472 515 0 +-1387778780781446e-33 .01651 .00381 -1 -1365
923996832132e-31 0 .00254 1365923996832132e-31 -1 0 51 515 1729 0 637 787 562 78
8 +.00381 867361737988404e-33 .00381 0 1 0 .00254 0 0 1 14 637 1682 789 ?778 775
 634 6 515 +0 0 778 775 24 53 562 1728 0 775 515 557 0 +-.00381 .01651 .00381 .0
0254 -1 0 0 0 0 1 141 788 503 788 788 515 14 775 1680 790 ?637 560 774 6 562 +0
 0 637 560 24 81 1 790 2808 567 775 791 0 792 789 793 14 560 1678 792 ?775 468 7
70 6 557 +0 0 775 468 24 81 1 792 2807 567 560 794 0 559 790 795 80 1 567 0 796
 8001 0 0 0 0 3 5 0 0 0 FFFFTFTFFFFFFFFF2 81 1 794 1973 31 560 0 792 797 798 799
 81 1 559 2806 567 468 800 0 467 792 801 83 255 3 795 .498039215686275 .49803921
5686275 .498039215686275 81 1 800 2778 31 468 0 559 802 803 804 81 1 467 2805 56
7 463 805 0 678 559 806 83 3 801 .498039215686275 .498039215686275 .498039215686
275 81 1 805 2774 31 463 0 467 807 808 809 81 1 678 2804 567 469 810 0 673 467 8
11 83 3 806 .498039215686275 .498039215686275 .498039215686275 81 1 810 2057 31
 469 0 678 676 68 812 83 3 811 .498039215686275 .498039215686275 .49803921568627
5 81 1 676 2056 31 672 0 673 813 810 814 81 1 68 2694 31 66 0 0 810 72 815 82 3
 812 25 3 2 81 1 72 2695 31 70 0 0 68 80 816 82 3 815 26 0 0 81 1 80 2696 31 78
 0 0 72 76 817 82 3 816 26 1 0 81 1 76 2697 31 74 0 0 80 91 818 82 3 817 26 2 0
 81 1 91 2698 31 89 0 0 76 95 819 82 3 818 26 3 0 81 1 95 2699 31 93 0 0 91 143
 820 82 3 819 26 4 0 81 1 143 2700 31 141 0 0 95 139 821 82 3 820 26 5 0 81 1 13
9 2701 31 137 0 0 143 103 822 82 3 821 26 6 0 81 1 103 2702 31 101 0 0 139 99 82
3 82 3 822 26 7 0 81 1 99 2703 31 97 0 0 103 115 824 82 3 823 26 8 0 81 1 115 27
04 31 113 0 0 99 119 825 82 3 824 26 9 0 81 1 119 2705 31 117 0 0 115 135 826 82
 3 825 26 10 0 81 1 135 2706 31 133 0 0 119 107 827 82 3 826 26 11 0 81 1 107 27
07 31 105 0 0 135 131 828 82 3 827 26 12 0 81 1 131 2708 31 129 0 0 107 111 829
 82 3 828 26 13 0 81 1 111 2709 31 109 0 0 131 123 830 82 3 829 26 14 0 81 1 123
 2710 31 121 0 0 111 58 831 82 3 830 26 15 0 81 1 58 2711 31 54 0 0 123 149 832
 82 3 831 26 16 0 81 1 149 2712 31 147 0 0 58 32 833 82 3 832 26 17 0 81 1 32 27
13 31 63 0 0 149 28 834 82 3 833 26 18 0 82 3 834 26 19 0 81 1 813 2055 31 565 0
 570 835 676 836 82 3 814 25 2 2 81 1 570 2820 567 565 813 0 564 837 838 81 1 83
5 2054 31 572 0 837 425 813 839 82 3 836 25 1 2 14 572 2036 837 ?495 565 840 6 4
97 +0 0 495 565 24 81 1 837 2821 567 572 835 0 570 841 842 81 1 425 2053 31 423
 0 0 421 835 843 82 3 839 25 0 2 81 1 421 2052 31 371 0 0 433 425 844 82 3 843 2
5 3 1 81 1 433 2051 31 431 0 0 429 421 845 82 3 844 25 2 1 81 1 429 2050 31 427
 0 0 846 433 847 82 3 845 25 1 1 81 1 846 1987 31 258 0 711 848 429 849 82 3 847
 25 0 1 81 1 711 2794 567 258 846 0 715 708 850 81 1 848 1983 31 657 0 677 851 8
46 852 82 3 849 24 20 2 81 1 677 2802 567 657 848 0 686 673 853 81 1 851 1981 31
 248 0 689 568 848 854 82 3 852 24 16 2 81 1 689 2800 567 248 851 0 692 686 855
 81 1 568 1980 31 563 0 564 856 851 857 82 3 854 24 14 2 81 1 856 1979 31 541 0
 858 859 568 860 82 3 857 24 13 2 14 541 1757 858 ?536 235 764 6 538 +0 0 536 23
5 24 81 1 858 2813 567 541 856 0 785 540 861 81 1 859 1978 31 527 0 531 862 856
 863 82 3 860 24 12 2 81 1 531 2816 567 527 859 0 535 525 864 81 1 862 1975 31 5
26 0 569 798 859 865 82 3 863 24 11 2 81 1 569 2818 567 526 862 0 525 564 866 81
 1 798 1974 31 532 0 535 794 862 867 82 3 865 24 8 2 81 1 535 2815 567 532 798 0
 540 531 868 82 3 867 24 7 2 81 1 540 2814 567 536 803 0 858 535 869 83 3 868 .4
98039215686275 .498039215686275 .498039215686275 81 1 803 2779 31 536 0 540 800
 870 871 83 3 869 .498039215686275 .498039215686275 .498039215686275 81 1 870 27
80 31 521 0 525 803 719 872 82 3 871 26 11 2 81 1 525 2817 567 521 870 0 531 569
 873 81 1 719 2781 31 581 0 717 870 578 874 82 3 872 26 12 2 81 1 578 2782 31 17
 0 575 719 875 876 82 3 874 26 13 2 81 1 875 2783 31 576 0 579 578 877 878 82 3
 876 26 14 2 81 1 579 2791 567 576 875 0 575 717 879 81 1 877 2784 31 712 0 715
 875 880 881 82 3 878 26 15 2 81 1 715 2793 567 712 877 0 717 711 882 81 1 880 2
785 31 690 0 692 877 883 884 82 3 881 26 16 2 81 1 692 2799 567 690 880 0 696 68
9 885 81 1 883 2786 31 682 0 686 880 0 886 82 3 884 26 17 2 81 1 686 2801 567 68
2 883 0 689 677 887 82 3 886 26 18 2 83 3 887 .498039215686275 .498039215686275
 .498039215686275 81 1 696 2798 567 693 807 0 700 692 888 83 3 885 .498039215686
275 .498039215686275 .498039215686275 81 1 807 2773 31 693 0 696 889 805 890 81
 1 700 2797 567 697 891 0 704 696 892 83 3 888 .498039215686275 .498039215686275
 .498039215686275 81 1 891 2776 31 697 0 700 808 802 893 81 1 704 2796 567 701 8
89 0 708 700 894 83 3 892 .498039215686275 .498039215686275 .498039215686275 81
 1 889 2772 31 701 0 704 895 807 896 81 1 708 2795 567 705 808 0 711 704 897 83
 3 894 .498039215686275 .498039215686275 .498039215686275 81 1 808 2775 31 705 0
 708 805 891 898 83 3 897 .498039215686275 .498039215686275 .498039215686275 82
 3 898 26 7 2 81 1 895 2771 31 494 0 899 900 889 901 82 3 896 26 4 2 14 494 2605
 899 ?19 491 752 6 20 +0 0 19 491 24 81 1 899 2824 567 494 895 0 493 902 903 81
 1 900 2770 31 491 0 493 904 895 905 82 3 901 26 3 2 81 1 493 2823 567 491 900 0
 841 899 906 81 1 904 2769 31 19 0 902 907 900 908 82 3 905 26 2 2 14 19 2635 90
2 ?0 494 909 6 7 +0 0 0 494 24 81 1 902 2825 567 19 904 0 899 0 910 81 1 907 276
8 31 495 0 841 592 904 911 82 3 908 26 1 2 14 495 2545 841 ?491 572 639 6 486 +0
 0 491 572 24 81 1 841 2822 567 495 907 0 837 493 912 81 1 592 2767 31 277 0 0 2
72 907 913 82 3 911 26 0 2 81 1 272 2766 31 263 0 0 325 592 914 82 3 913 26 45 1
 81 1 325 2765 31 243 0 0 370 272 915 82 3 914 26 44 1 81 1 370 2764 31 368 0 0
 336 325 916 82 3 915 26 43 1 81 1 336 2763 31 334 0 0 364 370 917 82 3 916 26 4
2 1 81 1 364 2762 31 50 0 0 342 336 918 82 3 917 26 41 1 81 1 342 2761 31 340 0
 0 347 364 919 82 3 918 26 40 1 81 1 347 2760 31 38 0 0 331 342 920 82 3 919 26
 39 1 81 1 331 2759 31 329 0 0 353 347 921 82 3 920 26 38 1 81 1 353 2758 31 351
 0 0 311 331 922 82 3 921 26 37 1 81 1 311 2757 31 309 0 0 307 353 923 82 3 922
 26 36 1 81 1 307 2756 31 305 0 0 303 311 924 82 3 923 26 35 1 81 1 303 2755 31
 301 0 0 299 307 925 82 3 924 26 34 1 81 1 299 2754 31 297 0 0 281 303 926 82 3
 925 26 33 1 81 1 281 2753 31 270 0 0 268 299 927 82 3 926 26 32 1 81 1 268 2752
 31 262 0 0 285 281 928 82 3 927 26 31 1 81 1 285 2751 31 283 0 0 289 268 929 82
 3 928 26 30 1 81 1 289 2750 31 287 0 0 758 285 930 82 3 929 26 29 1 82 3 930 26
 28 1 83 3 912 .498039215686275 .498039215686275 .498039215686275 83 3 910 .4980
39215686275 .498039215686275 .498039215686275 15 909 2636 0 724 19 0 17 724 0 90
9 723 737 137 96 728 0 0 -17 723 0 909 931 724 145 140 435 0 0 -17 737 0 909 724
 932 93 120 734 0 0 -17 96 0 698 282 269 93 724 728 0 736 +15 698 471 0 282 693
 0 17 282 0 698 144 96 89 736 270 0 725 +17 736 0 702 120 92 93 282 270 0 737 -1
5 702 459 0 304 697 0 17 92 0 702 736 304 89 641 726 0 282 +17 304 0 702 92 120
 113 644 301 0 641 +17 644 0 470 108 116 117 304 301 0 932 -17 108 0 470 750 644
 105 932 449 0 312 +17 932 0 909 737 933 117 108 449 0 0 -17 933 0 909 932 934 1
05 621 618 0 0 -17 934 0 909 933 931 63 39 27 0 621 -17 621 0 716 176 312 63 933
 618 0 0 +17 176 0 716 192 621 173 65 340 0 769 +17 312 0 716 621 112 105 750 30
9 0 933 +17 65 0 561 39 772 63 176 340 0 934 -15 561 1677 0 65 468 0 17 39 0 561
 37 65 12 934 27 0 931 +17 772 0 561 65 37 173 395 392 0 391 -17 37 0 561 772 39
 170 29 38 0 395 -17 931 0 909 934 723 12 26 11 0 0 -17 26 0 35 628 29 145 931 1
1 0 273 +15 35 707 0 628 690 0 17 628 0 35 626 26 147 273 263 0 0 -17 273 0 718
 140 441 145 628 263 0 723 +83 3 906 .498039215686275 .498039215686275 .49803921
5686275 83 3 903 .498039215686275 .498039215686275 .498039215686275 81 1 802 277
7 31 637 0 789 891 800 935 82 3 893 26 8 2 81 1 789 2809 567 637 802 0 790 784 9
36 82 3 935 26 9 2 81 1 784 2810 567 778 937 0 789 782 938 83 3 936 .49803921568
6275 .498039215686275 .498039215686275 81 1 937 1971 31 778 0 784 791 797 939 83
 3 938 .498039215686275 .498039215686275 .498039215686275 81 1 791 1968 31 775 0
 790 783 937 940 81 1 797 1972 31 235 0 785 937 794 941 82 3 939 24 4 2 81 1 785
 2812 567 235 797 0 782 858 942 82 3 941 24 5 2 83 3 942 .498039215686275 .49803
9215686275 .498039215686275 81 1 783 1967 31 781 0 782 296 791 943 82 3 940 24 1
 2 81 1 296 1964 31 294 0 0 293 783 944 82 3 943 24 0 2 81 1 293 1963 31 291 0 0
 266 296 945 82 3 944 24 47 1 82 3 945 24 46 1 82 3 890 26 5 2 83 3 882 .4980392
15686275 .498039215686275 .498039215686275 83 3 879 .498039215686275 .4980392156
86275 .498039215686275 83 3 873 .498039215686275 .498039215686275 .4980392156862
75 83 3 866 .498039215686275 .498039215686275 .498039215686275 83 3 864 .4980392
15686275 .498039215686275 .498039215686275 83 3 861 .498039215686275 .4980392156
86275 .498039215686275 83 3 855 .498039215686275 .498039215686275 .4980392156862
75 83 3 853 .498039215686275 .498039215686275 .498039215686275 83 3 850 .4980392
15686275 .498039215686275 .498039215686275 83 3 842 .498039215686275 .4980392156
86275 .498039215686275 15 840 2037 0 946 572 947 54 255 497 2043 0 572 542 486 0
 +-1734723475976805e-33 .0127 .00508 0 0 1 .0034925 .00127 1 0 0 54 542 2030 0 5
65 538 497 0 +1734723475976805e-33 -.0127 .00508 0 0 1 .0034925 .00127 1 0 0 17
 946 0 840 946 946 0 434 431 0 0 -15 947 2038 0 948 572 0 17 948 0 947 948 948 0
 430 427 0 0 -17 430 0 680 430 430 0 948 427 0 0 +15 680 2005 0 430 469 949 15 9
49 1073 0 950 469 0 17 950 0 949 950 950 0 664 593 0 0 -17 664 0 713 664 664 0 9
50 593 0 0 +15 713 1044 0 664 258 669 17 434 0 694 434 434 0 946 431 0 0 +15 694
 2011 0 434 690 35 83 3 838 .498039215686275 .498039215686275 .498039215686275 8
2 3 809 26 6 2 82 3 804 26 10 2 82 3 799 24 6 2 79 255 15 796 SDL/TYSA_COLOUR83
 3 793 .498039215686275 .498039215686275 .498039215686275 83 3 786 .498039215686
275 .498039215686275 .498039215686275 17 36 0 35 29 169 170 777 348 0 37 +17 169
 0 35 36 626 166 59 351 0 777 +17 753 0 752 757 751 60 112 622 0 0 -81 1 444 274
4 31 442 0 0 599 760 951 81 1 549 2746 31 544 0 0 760 605 952 82 3 761 26 23 1 8
1 1 605 2747 31 590 0 0 549 623 953 82 3 952 26 24 1 81 1 623 2748 31 622 0 0 60
5 758 954 82 3 953 26 25 1 82 3 954 26 26 1 82 3 951 26 22 1 82 3 759 26 27 1 82
 3 742 26 3 1 79 9 741 BTI/DetId82 3 735 26 11 1 81 1 603 2723 31 600 0 0 611 72
7 955 82 3 730 26 2 1 81 1 611 2722 31 598 0 0 44 603 956 82 3 955 26 1 1 81 1 4
4 2721 31 86 0 0 40 611 957 82 3 956 26 0 1 82 3 957 26 27 0 83 3 720 .498039215
686275 .498039215686275 .498039215686275 15 687 1999 0 426 682 591 17 426 0 687
 426 426 0 958 423 0 0 +17 958 0 573 958 958 0 426 423 0 0 -15 573 2024 0 958 56
5 959 15 959 2025 0 960 565 0 17 960 0 959 960 960 0 422 371 0 0 -17 422 0 674 4
22 422 0 960 371 0 0 +83 3 679 .498039215686275 .498039215686275 .49803921568627
5 81 1 667 954 31 1 0 961 0 665 962 81 1 663 1139 31 593 0 0 665 168 963 82 3 66
8 22 2 1 81 1 168 1889 31 166 0 0 663 183 964 82 3 963 22 3 1 81 1 183 1890 31 1
81 0 0 168 215 965 82 3 964 24 0 0 81 1 215 1891 31 213 0 0 183 172 966 82 3 965
 24 1 0 81 1 172 1892 31 170 0 0 215 175 967 82 3 966 24 2 0 81 1 175 1893 31 17
3 0 0 172 219 968 82 3 967 24 3 0 81 1 219 1894 31 217 0 0 175 226 969 82 3 968
 24 4 0 82 3 969 24 5 0 81 1 961 2787 970 1 667 14 0 0 971 82 3 962 6 0 3 80 1 9
70 972 973 8038 0 0 0 0 0 0 0 0 0 TTTTTTTTTTTTTFTF10 81 1 14 2788 972 1 961 2 0
 0 974 98 255 6 971 80 97 114 116 32 49 80 1 972 975 976 8017 0 0 0 0 0 0 0 0 0
 TTTTTTTTTTTTTFTF3 84 255 6 974 Part 179 13 976 SDL/TYSA_NAME79 14 973 SDL/TYSA_
UNAME82 3 660 24 44 1 17 241 0 582 184 328 205 239 291 0 231 +17 184 0 582 124 2
41 181 231 237 0 635 +81 1 440 2735 31 438 0 0 630 448 977 82 3 633 26 12 1 81 1
 448 2736 31 446 0 0 440 625 978 82 3 977 26 13 1 82 3 978 26 14 1 81 1 556 2738
 31 27 0 0 625 437 979 82 3 627 26 15 1 81 1 437 2739 31 435 0 0 556 620 980 82
 3 979 26 16 1 81 1 620 2740 31 618 0 0 437 25 981 82 3 980 26 17 1 81 1 25 2741
 31 11 0 0 620 510 982 82 3 981 26 18 1 81 1 510 2742 31 502 0 0 25 599 983 82 3
 982 26 19 1 82 3 983 26 20 1 82 3 602 26 21 1 83 3 580 .498039215686275 .498039
215686275 .498039215686275 83 3 571 .498039215686275 .498039215686275 .498039215
686275 40 5 516 0 1 5 .000291428254028258 .357010123231724 ??.00381 .00613210244
842774 .00635 .00460984740955906 .005738723448681 .00622077666353018 .0053851333
093551 .00507403165962822 .0058026251674011 .00606816396735011 .0039781095297272
6 .00497288240874202 .00634998799997732 .002549562427976165 .00381780768667409 4
1 1 517 L?.00381 .00613210244842774 .00635 41 2 518 TF.00635 .00254 .00381 .0063
4998799997732 .002549562427976165 .00381780768667409 204 24 519 4 1.910633236249
01 .17145 0 .00613210244842773 2.145119926774555 .17157922333647 .32035187668232
55 .005738723448681 2.4139646988746 .171997374832599 .668909963622987 .005074031
65962822 2.754544504052325 .172827117591258 1.095246066966134 .00397810952972726
 3.13908282733901 .173982192313326 1.56772242956273 .002549562427976165 3.141592
653589795 .17399 1.570796326794895 .00254 141 499 450 984 984 20 141 984 543 499
 499 20 141 498 475 985 985 486 141 985 503 498 498 486 40 6 487 0 1 6 .00032047
64595972615 .353945943815513 ??.00635 .00254 .178381071944989 .00614901528508915
 .003761109606871105 .179171763034793 .00551294278908102 .00492279482390977 .180
496359346383 .00475451701479961 .00564032488477629 .1821202578424145 .0044593140
6551724 .00583125105665121 .1832877753335745 .00444076195248116 .005842 .183642
 41 1 488 L?.00635 .00254 .178381071944989 41 1 489 L?.00444076195248116 .005842
 .183642 204 24 490 4 3.141592653589795 -.000581071944989187 .4497968604243575 .
00635 2.81533409232254 -.00137176303479314 .699460729040276 .00614901528508915 2
.46594160092777 -.002696359346383125 1.002196519401216 .00551294278908102 2.1910
4565044951 -.004320257842414385 1.30727380390492 .00475451701479961 2.0987387407
90245 -.00548777533357461 1.51012496811045 .00445931406551724 2.093111148600945
 -.005842 1.570796326794895 .00444076195248116 40 6 459 0 1 6 .00032047645959726
2 .3539459438155125 ??-.00635 -.00254 .178381071944989 -.00614901528508915 -.003
761109606871105 .179171763034793 -.00551294278908102 -.00492279482390976 .180496
359346383 -.00475451701479961 -.00564032488477629 .1821202578424145 -.0044593140
65517245 -.00583125105665121 .1832877753335745 -.00444076195248117 -.005842 .183
642 41 1 460 L?-.00635 -.00254 .178381071944989 41 1 461 L?-.00444076195248117 -
.005842 .183642 204 24 462 4 0 -.000581071944989187 5.83338844675523 -.00635 5.9
5692674591234 -.00137176303479314 5.58372457813931 -.00614901528508915 5.6075342
5451757 -.002696359346383125 5.28098878777837 -.00551294278908102 5.332638304039
3 -.004320257842414385 4.97591150327467 -.00475451701479961 5.24033139438004 -.0
0548777533357461 4.77306033906914 -.004459314065517245 5.23470380219074 -.005842
 4.71238898038469 -.00444076195248117 81 1 418 1939 31 376 0 0 411 403 986 81 1
 411 1938 31 409 0 0 415 418 987 81 1 403 1940 31 401 0 0 418 407 988 82 3 986 2
4 22 1 81 1 407 1941 31 405 0 0 403 399 989 82 3 988 24 23 1 81 1 399 1942 31 39
7 0 0 407 356 990 82 3 989 24 24 1 81 1 356 1949 31 354 0 0 399 367 991 82 3 990
 24 25 1 81 1 367 1950 31 365 0 0 356 359 992 82 3 991 24 32 1 81 1 359 1951 31
 357 0 0 367 318 993 82 3 992 24 33 1 81 1 318 1952 31 255 0 0 359 339 994 82 3
 993 24 34 1 81 1 339 1953 31 337 0 0 318 362 995 82 3 994 24 35 1 81 1 362 1954
 31 360 0 0 339 321 996 82 3 995 24 36 1 81 1 321 1955 31 319 0 0 362 265 997 82
 3 996 24 37 1 81 1 265 1956 31 326 0 0 321 261 998 82 3 997 24 38 1 82 3 998 24
 39 1 81 1 415 1937 31 413 0 0 345 411 999 82 3 987 24 21 1 81 1 345 1936 31 343
 0 0 322 415 1000 82 3 999 24 20 1 81 1 322 1935 31 244 0 0 315 345 1001 82 3 10
00 24 19 1 81 1 315 1934 31 256 0 0 333 322 1002 82 3 1001 24 18 1 81 1 333 1933
 31 237 0 0 242 315 1003 82 3 1002 24 17 1 81 1 242 1932 31 232 0 0 254 333 1004
 82 3 1003 24 16 1 81 1 254 1931 31 236 0 0 350 242 1005 82 3 1004 24 15 1 81 1
 350 1930 31 348 0 0 314 254 1006 82 3 1005 24 14 1 81 1 314 1929 31 252 0 0 390
 350 1007 82 3 1006 24 13 1 81 1 390 1922 31 388 0 0 386 314 1008 82 3 1007 24 1
2 1 81 1 386 1921 31 384 0 0 394 390 1009 82 3 1008 24 5 1 81 1 394 1920 31 392
 0 0 374 386 1010 82 3 1009 24 4 1 81 1 374 1919 31 372 0 0 378 394 1011 82 3 10
10 24 3 1 81 1 378 1918 31 375 0 0 382 374 1012 82 3 1011 24 2 1 81 1 382 1917 3
1 380 0 0 211 378 1013 82 3 1012 24 1 1 81 1 211 1916 31 209 0 0 203 382 1014 82
 3 1013 24 0 1 81 1 203 1915 31 201 0 0 195 211 1015 82 3 1014 24 27 0 81 1 195
 1914 31 193 0 0 199 203 1016 82 3 1015 24 26 0 81 1 199 1913 31 197 0 0 164 195
 1017 82 3 1016 24 25 0 81 1 164 1908 31 162 0 0 187 199 1018 82 3 1017 24 24 0
 81 1 187 1907 31 185 0 0 153 164 1019 82 3 1018 24 19 0 81 1 153 1906 31 151 0
 0 160 187 1020 82 3 1019 24 18 0 81 1 160 1905 31 158 0 0 179 153 1021 82 3 102
0 24 17 0 81 1 179 1904 31 177 0 0 157 160 1022 82 3 1021 24 16 0 81 1 157 1903
 31 155 0 0 191 179 1023 82 3 1022 24 15 0 81 1 191 1902 31 189 0 0 223 157 1024
 82 3 1023 24 14 0 81 1 223 1901 31 221 0 0 207 191 1025 82 3 1024 24 13 0 81 1
 207 1900 31 205 0 0 226 223 1026 82 3 1025 24 12 0 82 3 1026 24 11 0 82 3 267 2
4 40 1 82 3 228 24 10 0 81 1 33 2715 31 145 0 0 28 127 1027 81 1 127 2716 31 125
 0 0 33 52 1028 82 3 1027 26 21 0 81 1 52 2717 31 42 0 0 127 84 1029 82 3 1028 2
6 22 0 81 1 84 2718 31 82 0 0 52 43 1030 82 3 1029 26 23 0 81 1 43 2719 31 60 0
 0 84 40 1031 82 3 1030 26 24 0 82 3 1031 26 25 0 82 3 45 26 26 0 82 3 34 26 20
 0 19 18 138 0 1 0 10 6 0 S0 141 21 447 1032 1032 7 141 1032 22 21 21 7 74 4 CI1
6 index_map_offset0 0 1 dCCZ20 16 5 0 0 883 961 14 2 902 0 0 0 0 0 0 0 0 0 0 0 0
 0 0 0 80 1 13 567 1033 8040 0 0 0 0 3 5 0 0 0 TTTFFFFFFFFFFFFF2 83 3 15 .498039
215686275 .498039215686275 .498039215686275 79 17 1033 SDL/TYSA_COLOUR_21 0 
